<ttFont>
    <TTGlyph name="A" xMin="27" yMin="0" xMax="1115" yMax="1456">
      <contour>
        <pt x="803" y="368" on="1"/>
        <pt x="339" y="368" on="1"/>
        <pt x="233" y="0" on="1"/>
        <pt x="27" y="0" on="1"/>
        <pt x="475" y="1456" on="1"/>
        <pt x="671" y="1456" on="1"/>
        <pt x="1115" y="0" on="1"/>
        <pt x="909" y="0" on="1"/>
      </contour>
      <contour>
        <pt x="386" y="529" on="1"/>
        <pt x="757" y="529" on="1"/>
        <pt x="575" y="1165" on="1"/>
        <pt x="569" y="1165" on="1"/>
      </contour>
    </TTGlyph>
    <TTGlyph name="A.smcp" xMin="31" yMin="0" xMax="1018" yMax="1165">
      <contour>
        <pt x="722" y="263" on="1"/>
        <pt x="327" y="263" on="1"/>
        <pt x="244" y="0" on="1"/>
        <pt x="31" y="0" on="1"/>
        <pt x="421" y="1165" on="1"/>
        <pt x="630" y="1165" on="1"/>
        <pt x="1018" y="0" on="1"/>
        <pt x="806" y="0" on="1"/>
      </contour>
      <contour>
        <pt x="375" y="417" on="1"/>
        <pt x="674" y="417" on="1"/>
        <pt x="527" y="881" on="1"/>
        <pt x="521" y="881" on="1"/>
      </contour>
    </TTGlyph>
    <TTGlyph name="AE" xMin="3" yMin="0" xMax="1590" yMax="1456">
      <contour>
        <pt x="1590" y="0" on="1"/>
        <pt x="838" y="0" on="1"/>
        <pt x="825" y="361" on="1"/>
        <pt x="409" y="361" on="1"/>
        <pt x="245" y="0" on="1"/>
        <pt x="3" y="0" on="1"/>
        <pt x="706" y="1456" on="1"/>
        <pt x="1538" y="1456" on="1"/>
        <pt x="1538" y="1299" on="1"/>
        <pt x="994" y="1299" on="1"/>
        <pt x="1011" y="832" on="1"/>
        <pt x="1469" y="832" on="1"/>
        <pt x="1469" y="677" on="1"/>
        <pt x="1016" y="677" on="1"/>
        <pt x="1034" y="155" on="1"/>
        <pt x="1590" y="155" on="1"/>
      </contour>
      <contour>
        <pt x="487" y="531" on="1"/>
        <pt x="819" y="531" on="1"/>
        <pt x="795" y="1196" on="1"/>
        <pt x="790" y="1197" on="1"/>
      </contour>
    </TTGlyph>
    <TTGlyph name="AEacute" xMin="3" yMin="0" xMax="1590" yMax="1824">
      <component glyphName="AE" x="0" y="0" flags="0x204"/>
      <component glyphName="acute" x="586" y="346" flags="0x4"/>
    </TTGlyph>
    <TTGlyph name="Aacute" xMin="27" yMin="0" xMax="1115" yMax="1824">
      <component glyphName="A" x="0" y="0" flags="0x204"/>
      <component glyphName="acute" x="374" y="346" flags="0x4"/>
    </TTGlyph>
    <TTGlyph name="Aacute.smcp" xMin="31" yMin="0" xMax="1018" yMax="1501">
      <component glyphName="A.smcp" x="0" y="0" flags="0x204"/>
      <component glyphName="acute" x="306" y="23" flags="0x4"/>
    </TTGlyph>
    <TTGlyph name="Abreve" xMin="27" yMin="0" xMax="1115" yMax="1872">
      <component glyphName="A" x="0" y="0" flags="0x204"/>
      <component glyphName="breve" x="191" y="416" flags="0x4"/>
    </TTGlyph>
    <TTGlyph name="Abreve.smcp" xMin="31" yMin="0" xMax="1018" yMax="1549">
      <component glyphName="A.smcp" x="0" y="0" flags="0x204"/>
      <component glyphName="breve" x="123" y="93" flags="0x4"/>
    </TTGlyph>
    <TTGlyph name="Acircumflex" xMin="27" yMin="0" xMax="1115" yMax="1854">
      <component glyphName="A" x="0" y="0" flags="0x204"/>
      <component glyphName="circumflex" x="168" y="347" flags="0x4"/>
    </TTGlyph>
    <TTGlyph name="Acircumflex.smcp" xMin="31" yMin="0" xMax="1018" yMax="1531">
      <component glyphName="A.smcp" x="0" y="0" flags="0x204"/>
      <component glyphName="circumflex" x="100" y="24" flags="0x4"/>
    </TTGlyph>
    <TTGlyph name="Adieresis" xMin="27" yMin="0" xMax="1115" yMax="1802">
      <component glyphName="A" x="0" y="0" flags="0x204"/>
      <component glyphName="dieresis" x="120" y="346" flags="0x4"/>
    </TTGlyph>
    <TTGlyph name="Adieresis.smcp" xMin="31" yMin="0" xMax="1018" yMax="1479">
      <component glyphName="A.smcp" x="0" y="0" flags="0x204"/>
      <component glyphName="dieresis" x="52" y="23" flags="0x4"/>
    </TTGlyph>
    <TTGlyph name="Agrave" xMin="27" yMin="0" xMax="1115" yMax="1827">
      <component glyphName="A" x="0" y="0" flags="0x204"/>
      <component glyphName="grave" x="211" y="350" flags="0x4"/>
    </TTGlyph>
    <TTGlyph name="Agrave.smcp" xMin="31" yMin="0" xMax="1018" yMax="1504">
      <component glyphName="A.smcp" x="0" y="0" flags="0x204"/>
      <component glyphName="grave" x="143" y="27" flags="0x4"/>
    </TTGlyph>
    <TTGlyph name="Alpha" xMin="27" yMin="0" xMax="1115" yMax="1456">
      <component glyphName="A" x="0" y="0" flags="0x204"/>
    </TTGlyph>
    <TTGlyph name="Alphatonos" xMin="27" yMin="0" xMax="1115" yMax="1633">
      <component glyphName="A" x="0" y="0" flags="0x204"/>
      <component glyphName="tonos" x="-37" y="0" flags="0x4"/>
    </TTGlyph>
    <TTGlyph name="Amacron" xMin="27" yMin="0" xMax="1115" yMax="1784">
      <component glyphName="A" x="0" y="0" flags="0x204"/>
      <component glyphName="macron" x="148" y="328" flags="0x4"/>
    </TTGlyph>
    <TTGlyph name="Amacron.smcp" xMin="31" yMin="0" xMax="1018" yMax="1461">
      <component glyphName="A.smcp" x="0" y="0" flags="0x204"/>
      <component glyphName="macron" x="80" y="5" flags="0x4"/>
    </TTGlyph>
    <TTGlyph name="Aogonek" xMin="27" yMin="-413" xMax="1150" yMax="1456">
      <component glyphName="A" x="0" y="0" flags="0x204"/>
      <component glyphName="ogonek" x="729" y="0" flags="0x4"/>
    </TTGlyph>
    <TTGlyph name="Aogonek.smcp" xMin="31" yMin="-413" xMax="1051" yMax="1165">
      <component glyphName="A.smcp" x="0" y="0" flags="0x204"/>
      <component glyphName="ogonek" x="630" y="0" flags="0x4"/>
    </TTGlyph>
    <TTGlyph name="Aring" xMin="27" yMin="0" xMax="1115" yMax="1918">
      <component glyphName="A" x="0" y="0" flags="0x204"/>
      <component glyphName="ring" x="279" y="423" flags="0x4"/>
    </TTGlyph>
    <TTGlyph name="Aring.smcp" xMin="31" yMin="0" xMax="1018" yMax="1595">
      <component glyphName="A.smcp" x="0" y="0" flags="0x204"/>
      <component glyphName="ring" x="211" y="100" flags="0x4"/>
    </TTGlyph>
    <TTGlyph name="Aringacute" xMin="27" yMin="0" xMax="1115" yMax="2100">
      <component glyphName="A" x="0" y="0" flags="0x204"/>
      <component glyphName="ringacute" x="296" y="408" flags="0x4"/>
    </TTGlyph>
    <TTGlyph name="Aringacute.smcp" xMin="31" yMin="0" xMax="1018" yMax="1777">
      <component glyphName="A.smcp" x="0" y="0" flags="0x204"/>
      <component glyphName="ringacute" x="228" y="85" flags="0x4"/>
    </TTGlyph>
    <TTGlyph name="Atilde" xMin="27" yMin="0" xMax="1115" yMax="1869">
      <component glyphName="A" x="0" y="0" flags="0x204"/>
      <component glyphName="tilde" x="170" y="354" flags="0x4"/>
    </TTGlyph>
    <TTGlyph name="Atilde.smcp" xMin="31" yMin="0" xMax="1018" yMax="1546">
      <component glyphName="A.smcp" x="0" y="0" flags="0x204"/>
      <component glyphName="tilde" x="102" y="31" flags="0x4"/>
    </TTGlyph>
    <TTGlyph name="B" xMin="141" yMin="0" xMax="1031" yMax="1456">
      <contour>
        <pt x="141" y="0" on="1"/>
        <pt x="141" y="1456" on="1"/>
        <pt x="547" y="1456" on="1"/>
        <pt x="753" y="1456" on="0"/>
        <pt x="984" y="1260" on="0"/>
        <pt x="984" y="1064" on="1"/>
        <pt x="984" y="960" on="0"/>
        <pt x="879" y="801" on="0"/>
        <pt x="786" y="764" on="1"/>
        <pt x="904" y="738" on="0"/>
        <pt x="1031" y="543" on="0"/>
        <pt x="1031" y="412" on="1"/>
        <pt x="1031" y="211" on="0"/>
        <pt x="804" y="0" on="0"/>
        <pt x="604" y="0" on="1"/>
      </contour>
      <contour>
        <pt x="344" y="679" on="1"/>
        <pt x="344" y="154" on="1"/>
        <pt x="604" y="154" on="1"/>
        <pt x="712" y="154" on="0"/>
        <pt x="829" y="287" on="0"/>
        <pt x="829" y="411" on="1"/>
        <pt x="829" y="534" on="0"/>
        <pt x="729" y="679" on="0"/>
        <pt x="625" y="679" on="1"/>
      </contour>
      <contour>
        <pt x="344" y="825" on="1"/>
        <pt x="567" y="825" on="1"/>
        <pt x="667" y="825" on="0"/>
        <pt x="781" y="946" on="0"/>
        <pt x="781" y="1060" on="1"/>
        <pt x="781" y="1180" on="0"/>
        <pt x="662" y="1300" on="0"/>
        <pt x="547" y="1300" on="1"/>
        <pt x="344" y="1300" on="1"/>
      </contour>
    </TTGlyph>
    <TTGlyph name="B.smcp" xMin="128" yMin="0" xMax="913" yMax="1165">
      <contour>
        <pt x="128" y="0" on="1"/>
        <pt x="128" y="1165" on="1"/>
        <pt x="492" y="1165" on="1"/>
        <pt x="673" y="1165" on="0"/>
        <pt x="875" y="1006" on="0"/>
        <pt x="875" y="849" on="1"/>
        <pt x="875" y="763" on="0"/>
        <pt x="784" y="630" on="0"/>
        <pt x="702" y="598" on="1"/>
        <pt x="804" y="574" on="0"/>
        <pt x="913" y="426" on="0"/>
        <pt x="913" y="326" on="1"/>
        <pt x="913" y="165" on="0"/>
        <pt x="724" y="0" on="0"/>
        <pt x="551" y="0" on="1"/>
      </contour>
      <contour>
        <pt x="330" y="522" on="1"/>
        <pt x="330" y="152" on="1"/>
        <pt x="551" y="152" on="1"/>
        <pt x="632" y="152" on="0"/>
        <pt x="711" y="245" on="0"/>
        <pt x="711" y="335" on="1"/>
        <pt x="711" y="423" on="0"/>
        <pt x="631" y="522" on="0"/>
        <pt x="551" y="522" on="1"/>
      </contour>
      <contour>
        <pt x="330" y="658" on="1"/>
        <pt x="501" y="658" on="1"/>
        <pt x="585" y="660" on="0"/>
        <pt x="672" y="749" on="0"/>
        <pt x="672" y="832" on="1"/>
        <pt x="672" y="921" on="0"/>
        <pt x="583" y="999" on="0"/>
        <pt x="492" y="999" on="1"/>
        <pt x="330" y="999" on="1"/>
      </contour>
    </TTGlyph>
    <TTGlyph name="Beta" xMin="141" yMin="0" xMax="1031" yMax="1456">
      <component glyphName="B" x="0" y="0" flags="0x204"/>
    </TTGlyph>
    <TTGlyph name="C" xMin="94" yMin="-21" xMax="1005" yMax="1477">
      <contour>
        <pt x="1002" y="442" on="1"/>
        <pt x="1005" y="436" on="1"/>
        <pt x="1004" y="218" on="0"/>
        <pt x="774" y="-21" on="0"/>
        <pt x="564" y="-21" on="1"/>
        <pt x="350" y="-21" on="0"/>
        <pt x="94" y="267" on="0"/>
        <pt x="94" y="525" on="1"/>
        <pt x="94" y="929" on="1"/>
        <pt x="94" y="1187" on="0"/>
        <pt x="347" y="1477" on="0"/>
        <pt x="558" y="1477" on="1"/>
        <pt x="772" y="1477" on="0"/>
        <pt x="1002" y="1243" on="0"/>
        <pt x="1005" y="1018" on="1"/>
        <pt x="1002" y="1012" on="1"/>
        <pt x="810" y="1012" on="1"/>
        <pt x="807" y="1171" on="0"/>
        <pt x="687" y="1321" on="0"/>
        <pt x="558" y="1321" on="1"/>
        <pt x="433" y="1321" on="0"/>
        <pt x="295" y="1119" on="0"/>
        <pt x="295" y="932" on="1"/>
        <pt x="295" y="525" on="1"/>
        <pt x="295" y="335" on="0"/>
        <pt x="436" y="133" on="0"/>
        <pt x="564" y="133" on="1"/>
        <pt x="690" y="133" on="0"/>
        <pt x="807" y="280" on="0"/>
        <pt x="809" y="442" on="1"/>
      </contour>
    </TTGlyph>
    <TTGlyph name="C.smcp" xMin="96" yMin="-17" xMax="913" yMax="1181">
      <contour>
        <pt x="906" y="381" on="1"/>
        <pt x="908" y="375" on="1"/>
        <pt x="912" y="184" on="0"/>
        <pt x="698" y="-17" on="0"/>
        <pt x="512" y="-17" on="1"/>
        <pt x="329" y="-17" on="0"/>
        <pt x="96" y="249" on="0"/>
        <pt x="96" y="461" on="1"/>
        <pt x="96" y="704" on="1"/>
        <pt x="96" y="915" on="0"/>
        <pt x="329" y="1181" on="0"/>
        <pt x="512" y="1181" on="1"/>
        <pt x="700" y="1181" on="0"/>
        <pt x="913" y="980" on="0"/>
        <pt x="909" y="790" on="1"/>
        <pt x="907" y="784" on="1"/>
        <pt x="713" y="784" on="1"/>
        <pt x="713" y="907" on="0"/>
        <pt x="613" y="1027" on="0"/>
        <pt x="512" y="1027" on="1"/>
        <pt x="416" y="1027" on="0"/>
        <pt x="298" y="846" on="0"/>
        <pt x="298" y="705" on="1"/>
        <pt x="298" y="461" on="1"/>
        <pt x="298" y="318" on="0"/>
        <pt x="416" y="136" on="0"/>
        <pt x="512" y="136" on="1"/>
        <pt x="612" y="136" on="0"/>
        <pt x="711" y="254" on="0"/>
        <pt x="711" y="381" on="1"/>
      </contour>
    </TTGlyph>
    <TTGlyph name="Cacute" xMin="94" yMin="-21" xMax="1005" yMax="1845">
      <component glyphName="C" x="0" y="0" flags="0x204"/>
      <component glyphName="acute" x="347" y="367" flags="0x4"/>
    </TTGlyph>
    <TTGlyph name="Cacute.smcp" xMin="96" yMin="-17" xMax="913" yMax="1517">
      <component glyphName="C.smcp" x="0" y="0" flags="0x204"/>
      <component glyphName="acute" x="287" y="39" flags="0x4"/>
    </TTGlyph>
    <TTGlyph name="Ccaron" xMin="94" yMin="-21" xMax="1005" yMax="1880">
      <component glyphName="C" x="0" y="0" flags="0x204"/>
      <component glyphName="caron" x="161" y="371" flags="0x4"/>
    </TTGlyph>
    <TTGlyph name="Ccaron.smcp" xMin="96" yMin="-17" xMax="913" yMax="1552">
      <component glyphName="C.smcp" x="0" y="0" flags="0x204"/>
      <component glyphName="caron" x="101" y="43" flags="0x4"/>
    </TTGlyph>
    <TTGlyph name="Ccedilla" xMin="94" yMin="-447" xMax="1005" yMax="1477">
      <component glyphName="C" x="0" y="0" flags="0x204"/>
      <component glyphName="cedilla" x="359" y="-5" flags="0x4"/>
    </TTGlyph>
    <TTGlyph name="Ccedilla.smcp" xMin="96" yMin="-445" xMax="913" yMax="1181">
      <component glyphName="C.smcp" x="0" y="0" flags="0x204"/>
      <component glyphName="cedilla" x="301" y="-3" flags="0x4"/>
    </TTGlyph>
    <TTGlyph name="Ccircumflex" xMin="94" yMin="-21" xMax="1005" yMax="1875">
      <component glyphName="C" x="0" y="0" flags="0x204"/>
      <component glyphName="circumflex" x="141" y="368" flags="0x4"/>
    </TTGlyph>
    <TTGlyph name="Ccircumflex.smcp" xMin="96" yMin="-17" xMax="913" yMax="1547">
      <component glyphName="C.smcp" x="0" y="0" flags="0x204"/>
      <component glyphName="circumflex" x="81" y="40" flags="0x4"/>
    </TTGlyph>
    <TTGlyph name="Chi" xMin="48" yMin="0" xMax="1074" yMax="1456">
      <component glyphName="X" x="0" y="0" flags="0x204"/>
    </TTGlyph>
    <TTGlyph name="D" xMin="141" yMin="0" xMax="1066" yMax="1456">
      <contour>
        <pt x="141" y="0" on="1"/>
        <pt x="141" y="1456" on="1"/>
        <pt x="541" y="1456" on="1"/>
        <pt x="773" y="1456" on="0"/>
        <pt x="1066" y="1106" on="0"/>
        <pt x="1066" y="831" on="1"/>
        <pt x="1066" y="624" on="1"/>
        <pt x="1066" y="348" on="0"/>
        <pt x="773" y="0" on="0"/>
        <pt x="541" y="0" on="1"/>
      </contour>
      <contour>
        <pt x="344" y="1300" on="1"/>
        <pt x="344" y="154" on="1"/>
        <pt x="534" y="154" on="1"/>
        <pt x="687" y="154" on="0"/>
        <pt x="864" y="416" on="0"/>
        <pt x="864" y="624" on="1"/>
        <pt x="864" y="833" on="1"/>
        <pt x="864" y="1039" on="0"/>
        <pt x="687" y="1300" on="0"/>
        <pt x="534" y="1300" on="1"/>
      </contour>
    </TTGlyph>
    <TTGlyph name="D.smcp" xMin="128" yMin="0" xMax="928" yMax="1165">
      <contour>
        <pt x="128" y="0" on="1"/>
        <pt x="128" y="1165" on="1"/>
        <pt x="498" y="1165" on="1"/>
        <pt x="682" y="1165" on="0"/>
        <pt x="928" y="897" on="0"/>
        <pt x="928" y="687" on="1"/>
        <pt x="928" y="477" on="1"/>
        <pt x="928" y="267" on="0"/>
        <pt x="682" y="0" on="0"/>
        <pt x="498" y="0" on="1"/>
      </contour>
      <contour>
        <pt x="330" y="1011" on="1"/>
        <pt x="330" y="152" on="1"/>
        <pt x="498" y="152" on="1"/>
        <pt x="596" y="152" on="0"/>
        <pt x="726" y="336" on="0"/>
        <pt x="726" y="477" on="1"/>
        <pt x="726" y="688" on="1"/>
        <pt x="726" y="826" on="0"/>
        <pt x="596" y="1011" on="0"/>
        <pt x="498" y="1011" on="1"/>
      </contour>
    </TTGlyph>
    <TTGlyph name="Dcaron" xMin="141" yMin="0" xMax="1066" yMax="1859">
      <component glyphName="D" x="0" y="0" flags="0x204"/>
      <component glyphName="caron" x="119" y="350" flags="0x4"/>
    </TTGlyph>
    <TTGlyph name="Dcaron.smcp" xMin="128" yMin="0" xMax="928" yMax="1536">
      <component glyphName="D.smcp" x="0" y="0" flags="0x204"/>
      <component glyphName="caron" x="33" y="27" flags="0x4"/>
    </TTGlyph>
    <TTGlyph name="Dcroat" xMin="44" yMin="0" xMax="1096" yMax="1456">
      <contour>
        <pt x="171" y="0" on="1"/>
        <pt x="171" y="670" on="1"/>
        <pt x="44" y="670" on="1"/>
        <pt x="44" y="811" on="1"/>
        <pt x="171" y="811" on="1"/>
        <pt x="171" y="1456" on="1"/>
        <pt x="571" y="1456" on="1"/>
        <pt x="803" y="1456" on="0"/>
        <pt x="1096" y="1106" on="0"/>
        <pt x="1096" y="831" on="1"/>
        <pt x="1096" y="624" on="1"/>
        <pt x="1096" y="348" on="0"/>
        <pt x="803" y="0" on="0"/>
        <pt x="571" y="0" on="1"/>
      </contour>
      <contour>
        <pt x="599" y="670" on="1"/>
        <pt x="374" y="670" on="1"/>
        <pt x="374" y="154" on="1"/>
        <pt x="564" y="154" on="1"/>
        <pt x="717" y="154" on="0"/>
        <pt x="894" y="416" on="0"/>
        <pt x="894" y="624" on="1"/>
        <pt x="894" y="833" on="1"/>
        <pt x="894" y="1039" on="0"/>
        <pt x="717" y="1300" on="0"/>
        <pt x="564" y="1300" on="1"/>
        <pt x="374" y="1300" on="1"/>
        <pt x="374" y="811" on="1"/>
        <pt x="599" y="811" on="1"/>
      </contour>
    </TTGlyph>
    <TTGlyph name="Dcroat.smcp" xMin="-13" yMin="0" xMax="928" yMax="1165">
      <component glyphName="D.smcp" x="0" y="0" flags="0x204"/>
      <component glyphName="crossbar" x="-146" y="-139" flags="0x4"/>
    </TTGlyph>
    <TTGlyph name="Delta" xMin="31" yMin="0" xMax="1221" yMax="1456">
      <contour>
        <pt x="538" y="1456" on="1"/>
        <pt x="734" y="1456" on="1"/>
        <pt x="1221" y="0" on="1"/>
        <pt x="31" y="0" on="1"/>
      </contour>
      <contour>
        <pt x="292" y="154" on="1"/>
        <pt x="961" y="154" on="1"/>
        <pt x="637" y="1163" on="1"/>
        <pt x="631" y="1163" on="1"/>
      </contour>
    </TTGlyph>
    <TTGlyph name="E" xMin="141" yMin="0" xMax="970" yMax="1456">
      <contour>
        <pt x="884" y="676" on="1"/>
        <pt x="344" y="676" on="1"/>
        <pt x="344" y="154" on="1"/>
        <pt x="970" y="154" on="1"/>
        <pt x="970" y="0" on="1"/>
        <pt x="141" y="0" on="1"/>
        <pt x="141" y="1456" on="1"/>
        <pt x="964" y="1456" on="1"/>
        <pt x="964" y="1300" on="1"/>
        <pt x="344" y="1300" on="1"/>
        <pt x="344" y="831" on="1"/>
        <pt x="884" y="831" on="1"/>
      </contour>
    </TTGlyph>
    <TTGlyph name="E.smcp" xMin="128" yMin="0" xMax="832" yMax="1165">
      <contour>
        <pt x="759" y="528" on="1"/>
        <pt x="330" y="528" on="1"/>
        <pt x="330" y="152" on="1"/>
        <pt x="832" y="152" on="1"/>
        <pt x="832" y="0" on="1"/>
        <pt x="128" y="0" on="1"/>
        <pt x="128" y="1165" on="1"/>
        <pt x="832" y="1165" on="1"/>
        <pt x="832" y="1011" on="1"/>
        <pt x="330" y="1011" on="1"/>
        <pt x="330" y="682" on="1"/>
        <pt x="759" y="682" on="1"/>
      </contour>
    </TTGlyph>
    <TTGlyph name="Eacute" xMin="141" yMin="0" xMax="970" yMax="1824">
      <component glyphName="E" x="0" y="0" flags="0x204"/>
      <component glyphName="acute" x="314" y="346" flags="0x4"/>
    </TTGlyph>
    <TTGlyph name="Eacute.smcp" xMin="128" yMin="0" xMax="832" yMax="1501">
      <component glyphName="E.smcp" x="0" y="0" flags="0x204"/>
      <component glyphName="acute" x="254" y="23" flags="0x4"/>
    </TTGlyph>
    <TTGlyph name="Ebreve" xMin="141" yMin="0" xMax="970" yMax="1872">
      <component glyphName="E" x="0" y="0" flags="0x204"/>
      <component glyphName="breve" x="131" y="416" flags="0x4"/>
    </TTGlyph>
    <TTGlyph name="Ebreve.smcp" xMin="128" yMin="0" xMax="832" yMax="1549">
      <component glyphName="E.smcp" x="0" y="0" flags="0x204"/>
      <component glyphName="breve" x="71" y="93" flags="0x4"/>
    </TTGlyph>
    <TTGlyph name="Ecaron" xMin="141" yMin="0" xMax="970" yMax="1859">
      <component glyphName="E" x="0" y="0" flags="0x204"/>
      <component glyphName="caron" x="128" y="350" flags="0x4"/>
    </TTGlyph>
    <TTGlyph name="Ecaron.smcp" xMin="128" yMin="0" xMax="832" yMax="1536">
      <component glyphName="E.smcp" x="0" y="0" flags="0x204"/>
      <component glyphName="caron" x="68" y="27" flags="0x4"/>
    </TTGlyph>
    <TTGlyph name="Ecircumflex" xMin="141" yMin="0" xMax="970" yMax="1854">
      <component glyphName="E" x="0" y="0" flags="0x204"/>
      <component glyphName="circumflex" x="108" y="347" flags="0x4"/>
    </TTGlyph>
    <TTGlyph name="Ecircumflex.smcp" xMin="128" yMin="0" xMax="832" yMax="1531">
      <component glyphName="E.smcp" x="0" y="0" flags="0x204"/>
      <component glyphName="circumflex" x="48" y="24" flags="0x4"/>
    </TTGlyph>
    <TTGlyph name="Edieresis" xMin="141" yMin="0" xMax="970" yMax="1802">
      <component glyphName="E" x="0" y="0" flags="0x204"/>
      <component glyphName="dieresis" x="60" y="346" flags="0x4"/>
    </TTGlyph>
    <TTGlyph name="Edieresis.smcp" xMin="128" yMin="0" xMax="832" yMax="1479">
      <component glyphName="E.smcp" x="0" y="0" flags="0x204"/>
      <component glyphName="dieresis" x="0" y="23" flags="0x4"/>
    </TTGlyph>
    <TTGlyph name="Edotaccent" xMin="141" yMin="0" xMax="970" yMax="1816">
      <component glyphName="E" x="0" y="0" flags="0x204"/>
      <component glyphName="dotaccent" x="281" y="357" flags="0x4"/>
    </TTGlyph>
    <TTGlyph name="Edotaccent.smcp" xMin="128" yMin="0" xMax="832" yMax="1493">
      <component glyphName="E.smcp" x="0" y="0" flags="0x204"/>
      <component glyphName="dotaccent" x="221" y="34" flags="0x4"/>
    </TTGlyph>
    <TTGlyph name="Egrave" xMin="141" yMin="0" xMax="970" yMax="1827">
      <component glyphName="E" x="0" y="0" flags="0x204"/>
      <component glyphName="grave" x="151" y="350" flags="0x4"/>
    </TTGlyph>
    <TTGlyph name="Egrave.smcp" xMin="128" yMin="0" xMax="832" yMax="1504">
      <component glyphName="E.smcp" x="0" y="0" flags="0x204"/>
      <component glyphName="grave" x="91" y="27" flags="0x4"/>
    </TTGlyph>
    <TTGlyph name="Emacron" xMin="141" yMin="0" xMax="970" yMax="1784">
      <component glyphName="E" x="0" y="0" flags="0x204"/>
      <component glyphName="macron" x="88" y="328" flags="0x4"/>
    </TTGlyph>
    <TTGlyph name="Emacron.smcp" xMin="128" yMin="0" xMax="832" yMax="1461">
      <component glyphName="E.smcp" x="0" y="0" flags="0x204"/>
      <component glyphName="macron" x="28" y="5" flags="0x4"/>
    </TTGlyph>
    <TTGlyph name="Eng" xMin="133" yMin="-437" xMax="1096" yMax="1456">
      <contour>
        <pt x="1096" y="1456" on="1"/>
        <pt x="1096" y="-74" on="1"/>
        <pt x="1096" y="-248" on="0"/>
        <pt x="937" y="-437" on="0"/>
        <pt x="797" y="-437" on="1"/>
        <pt x="767" y="-437" on="0"/>
        <pt x="715" y="-428" on="0"/>
        <pt x="687" y="-419" on="1"/>
        <pt x="699" y="-268" on="1"/>
        <pt x="714" y="-273" on="0"/>
        <pt x="763" y="-281" on="0"/>
        <pt x="783" y="-281" on="1"/>
        <pt x="834" y="-281" on="0"/>
        <pt x="893" y="-172" on="0"/>
        <pt x="893" y="-74" on="1"/>
        <pt x="893" y="0" on="1"/>
        <pt x="342" y="1068" on="1"/>
        <pt x="336" y="1066" on="1"/>
        <pt x="336" y="0" on="1"/>
        <pt x="133" y="0" on="1"/>
        <pt x="133" y="1456" on="1"/>
        <pt x="336" y="1456" on="1"/>
        <pt x="887" y="387" on="1"/>
        <pt x="893" y="389" on="1"/>
        <pt x="893" y="1456" on="1"/>
      </contour>
    </TTGlyph>
    <TTGlyph name="Eogonek" xMin="141" yMin="-413" xMax="970" yMax="1456">
      <component glyphName="E" x="0" y="0" flags="0x204"/>
      <component glyphName="ogonek" x="261" y="0" flags="0x4"/>
    </TTGlyph>
    <TTGlyph name="Eogonek.smcp" xMin="128" yMin="-413" xMax="832" yMax="1165">
      <component glyphName="E.smcp" x="0" y="0" flags="0x204"/>
      <component glyphName="ogonek" x="222" y="0" flags="0x4"/>
    </TTGlyph>
    <TTGlyph name="Epsilon" xMin="141" yMin="0" xMax="970" yMax="1456">
      <component glyphName="E" x="0" y="0" flags="0x204"/>
    </TTGlyph>
    <TTGlyph name="Epsilontonos" xMin="-48" yMin="0" xMax="1070" yMax="1635">
      <component glyphName="E" x="100" y="0" flags="0x4"/>
      <component glyphName="tonos" x="-239" y="2" flags="0x4"/>
    </TTGlyph>
    <TTGlyph name="Eta" xMin="141" yMin="0" xMax="1104" yMax="1456">
      <component glyphName="H" x="0" y="0" flags="0x204"/>
    </TTGlyph>
    <TTGlyph name="Etatonos" xMin="-11" yMin="0" xMax="1204" yMax="1633">
      <component glyphName="H" x="100" y="0" flags="0x4"/>
      <component glyphName="tonos" x="-202" y="0" flags="0x4"/>
    </TTGlyph>
    <TTGlyph name="Eth" xMin="44" yMin="0" xMax="1096" yMax="1456">
      <contour>
        <pt x="171" y="0" on="1"/>
        <pt x="171" y="670" on="1"/>
        <pt x="44" y="670" on="1"/>
        <pt x="44" y="811" on="1"/>
        <pt x="171" y="811" on="1"/>
        <pt x="171" y="1456" on="1"/>
        <pt x="571" y="1456" on="1"/>
        <pt x="803" y="1456" on="0"/>
        <pt x="1096" y="1106" on="0"/>
        <pt x="1096" y="831" on="1"/>
        <pt x="1096" y="624" on="1"/>
        <pt x="1096" y="348" on="0"/>
        <pt x="803" y="0" on="0"/>
        <pt x="571" y="0" on="1"/>
      </contour>
      <contour>
        <pt x="599" y="670" on="1"/>
        <pt x="374" y="670" on="1"/>
        <pt x="374" y="154" on="1"/>
        <pt x="564" y="154" on="1"/>
        <pt x="717" y="154" on="0"/>
        <pt x="894" y="416" on="0"/>
        <pt x="894" y="624" on="1"/>
        <pt x="894" y="833" on="1"/>
        <pt x="894" y="1039" on="0"/>
        <pt x="717" y="1300" on="0"/>
        <pt x="564" y="1300" on="1"/>
        <pt x="374" y="1300" on="1"/>
        <pt x="374" y="811" on="1"/>
        <pt x="599" y="811" on="1"/>
      </contour>
    </TTGlyph>
    <TTGlyph name="Eth.smcp" xMin="-13" yMin="0" xMax="928" yMax="1165">
      <component glyphName="D.smcp" x="0" y="0" flags="0x204"/>
      <component glyphName="crossbar" x="-146" y="-139" flags="0x4"/>
    </TTGlyph>
    <TTGlyph name="Euro" xMin="71" yMin="-21" xMax="848" yMax="1477">
      <contour>
        <pt x="791" y="491" on="1"/>
        <pt x="400" y="491" on="1"/>
        <pt x="400" y="482" on="1"/>
        <pt x="400" y="332" on="0"/>
        <pt x="532" y="133" on="0"/>
        <pt x="644" y="133" on="1"/>
        <pt x="693" y="133" on="0"/>
        <pt x="787" y="150" on="0"/>
        <pt x="831" y="167" on="1"/>
        <pt x="848" y="10" on="1"/>
        <pt x="800" y="-5" on="0"/>
        <pt x="696" y="-21" on="0"/>
        <pt x="644" y="-21" on="1"/>
        <pt x="444" y="-21" on="0"/>
        <pt x="197" y="263" on="0"/>
        <pt x="197" y="482" on="1"/>
        <pt x="197" y="491" on="1"/>
        <pt x="71" y="491" on="1"/>
        <pt x="71" y="646" on="1"/>
        <pt x="197" y="646" on="1"/>
        <pt x="197" y="787" on="1"/>
        <pt x="71" y="787" on="1"/>
        <pt x="71" y="942" on="1"/>
        <pt x="197" y="942" on="1"/>
        <pt x="197" y="965" on="1"/>
        <pt x="197" y="1188" on="0"/>
        <pt x="443" y="1477" on="0"/>
        <pt x="643" y="1477" on="1"/>
        <pt x="693" y="1477" on="0"/>
        <pt x="791" y="1461" on="0"/>
        <pt x="848" y="1446" on="1"/>
        <pt x="831" y="1286" on="1"/>
        <pt x="786" y="1302" on="0"/>
        <pt x="691" y="1321" on="0"/>
        <pt x="643" y="1321" on="1"/>
        <pt x="530" y="1321" on="0"/>
        <pt x="400" y="1120" on="0"/>
        <pt x="400" y="967" on="1"/>
        <pt x="400" y="942" on="1"/>
        <pt x="791" y="942" on="1"/>
        <pt x="791" y="787" on="1"/>
        <pt x="400" y="787" on="1"/>
        <pt x="400" y="646" on="1"/>
        <pt x="791" y="646" on="1"/>
      </contour>
    </TTGlyph>
    <TTGlyph name="F" xMin="141" yMin="0" xMax="972" yMax="1456">
      <contour>
        <pt x="885" y="647" on="1"/>
        <pt x="344" y="647" on="1"/>
        <pt x="344" y="0" on="1"/>
        <pt x="141" y="0" on="1"/>
        <pt x="141" y="1456" on="1"/>
        <pt x="972" y="1456" on="1"/>
        <pt x="972" y="1300" on="1"/>
        <pt x="344" y="1300" on="1"/>
        <pt x="344" y="802" on="1"/>
        <pt x="885" y="802" on="1"/>
      </contour>
    </TTGlyph>
    <TTGlyph name="F.smcp" xMin="128" yMin="0" xMax="842" yMax="1165">
      <contour>
        <pt x="769" y="502" on="1"/>
        <pt x="330" y="502" on="1"/>
        <pt x="330" y="0" on="1"/>
        <pt x="128" y="0" on="1"/>
        <pt x="128" y="1165" on="1"/>
        <pt x="842" y="1165" on="1"/>
        <pt x="842" y="1011" on="1"/>
        <pt x="330" y="1011" on="1"/>
        <pt x="330" y="657" on="1"/>
        <pt x="769" y="657" on="1"/>
      </contour>
    </TTGlyph>
    <TTGlyph name="G" xMin="102" yMin="-21" xMax="1061" yMax="1477">
      <contour>
        <pt x="1061" y="207" on="1"/>
        <pt x="1011" y="119" on="0"/>
        <pt x="786" y="-21" on="0"/>
        <pt x="611" y="-21" on="1"/>
        <pt x="382" y="-21" on="0"/>
        <pt x="102" y="257" on="0"/>
        <pt x="102" y="514" on="1"/>
        <pt x="102" y="946" on="1"/>
        <pt x="102" y="1199" on="0"/>
        <pt x="368" y="1477" on="0"/>
        <pt x="588" y="1477" on="1"/>
        <pt x="811" y="1477" on="0"/>
        <pt x="1047" y="1252" on="0"/>
        <pt x="1055" y="1049" on="1"/>
        <pt x="1053" y="1043" on="1"/>
        <pt x="861" y="1043" on="1"/>
        <pt x="856" y="1179" on="0"/>
        <pt x="723" y="1321" on="0"/>
        <pt x="591" y="1321" on="1"/>
        <pt x="458" y="1321" on="0"/>
        <pt x="304" y="1130" on="0"/>
        <pt x="304" y="948" on="1"/>
        <pt x="304" y="514" on="1"/>
        <pt x="304" y="328" on="0"/>
        <pt x="469" y="133" on="0"/>
        <pt x="611" y="133" on="1"/>
        <pt x="715" y="133" on="0"/>
        <pt x="830" y="204" on="0"/>
        <pt x="858" y="259" on="1"/>
        <pt x="858" y="590" on="1"/>
        <pt x="609" y="590" on="1"/>
        <pt x="609" y="737" on="1"/>
        <pt x="1061" y="737" on="1"/>
      </contour>
    </TTGlyph>
    <TTGlyph name="G.smcp" xMin="96" yMin="-17" xMax="954" yMax="1181">
      <contour>
        <pt x="954" y="158" on="1"/>
        <pt x="904" y="89" on="0"/>
        <pt x="699" y="-17" on="0"/>
        <pt x="542" y="-17" on="1"/>
        <pt x="343" y="-17" on="0"/>
        <pt x="96" y="248" on="0"/>
        <pt x="96" y="461" on="1"/>
        <pt x="96" y="704" on="1"/>
        <pt x="96" y="915" on="0"/>
        <pt x="342" y="1181" on="0"/>
        <pt x="534" y="1181" on="1"/>
        <pt x="725" y="1181" on="0"/>
        <pt x="940" y="987" on="0"/>
        <pt x="937" y="824" on="1"/>
        <pt x="935" y="818" on="1"/>
        <pt x="741" y="816" on="1"/>
        <pt x="740" y="921" on="0"/>
        <pt x="636" y="1027" on="0"/>
        <pt x="534" y="1027" on="1"/>
        <pt x="428" y="1027" on="0"/>
        <pt x="298" y="845" on="0"/>
        <pt x="298" y="705" on="1"/>
        <pt x="298" y="461" on="1"/>
        <pt x="298" y="317" on="0"/>
        <pt x="429" y="136" on="0"/>
        <pt x="542" y="136" on="1"/>
        <pt x="625" y="136" on="0"/>
        <pt x="726" y="180" on="0"/>
        <pt x="752" y="212" on="1"/>
        <pt x="752" y="452" on="1"/>
        <pt x="548" y="452" on="1"/>
        <pt x="548" y="597" on="1"/>
        <pt x="954" y="597" on="1"/>
      </contour>
    </TTGlyph>
    <TTGlyph name="Gamma" xMin="141" yMin="0" xMax="920" yMax="1456">
      <contour>
        <pt x="920" y="1300" on="1"/>
        <pt x="344" y="1300" on="1"/>
        <pt x="344" y="0" on="1"/>
        <pt x="141" y="0" on="1"/>
        <pt x="141" y="1456" on="1"/>
        <pt x="920" y="1456" on="1"/>
      </contour>
    </TTGlyph>
    <TTGlyph name="Gbreve" xMin="102" yMin="-21" xMax="1061" yMax="1893">
      <component glyphName="G" x="0" y="0" flags="0x204"/>
      <component glyphName="breve" x="180" y="437" flags="0x4"/>
    </TTGlyph>
    <TTGlyph name="Gbreve.smcp" xMin="96" yMin="-17" xMax="954" yMax="1565">
      <component glyphName="G.smcp" x="0" y="0" flags="0x204"/>
      <component glyphName="breve" x="117" y="109" flags="0x4"/>
    </TTGlyph>
    <TTGlyph name="Gcircumflex" xMin="102" yMin="-21" xMax="1061" yMax="1875">
      <component glyphName="G" x="0" y="0" flags="0x204"/>
      <component glyphName="circumflex" x="157" y="368" flags="0x4"/>
    </TTGlyph>
    <TTGlyph name="Gcircumflex.smcp" xMin="96" yMin="-17" xMax="954" yMax="1547">
      <component glyphName="G.smcp" x="0" y="0" flags="0x204"/>
      <component glyphName="circumflex" x="94" y="40" flags="0x4"/>
    </TTGlyph>
    <TTGlyph name="Gcommaaccent" xMin="102" yMin="-484" xMax="1061" yMax="1477">
      <component glyphName="G" x="0" y="0" flags="0x204"/>
      <component glyphName="commaaccent" x="378" y="-345" flags="0x4"/>
    </TTGlyph>
    <TTGlyph name="Gcommaaccent.smcp" xMin="96" yMin="-483" xMax="954" yMax="1181">
      <component glyphName="G.smcp" x="0" y="0" flags="0x204"/>
      <component glyphName="commaaccent" x="315" y="-344" flags="0x4"/>
    </TTGlyph>
    <TTGlyph name="H" xMin="141" yMin="0" xMax="1104" yMax="1456">
      <contour>
        <pt x="1104" y="0" on="1"/>
        <pt x="902" y="0" on="1"/>
        <pt x="902" y="642" on="1"/>
        <pt x="344" y="642" on="1"/>
        <pt x="344" y="0" on="1"/>
        <pt x="141" y="0" on="1"/>
        <pt x="141" y="1456" on="1"/>
        <pt x="344" y="1456" on="1"/>
        <pt x="344" y="797" on="1"/>
        <pt x="902" y="797" on="1"/>
        <pt x="902" y="1456" on="1"/>
        <pt x="1104" y="1456" on="1"/>
      </contour>
    </TTGlyph>
    <TTGlyph name="H.smcp" xMin="128" yMin="0" xMax="977" yMax="1165">
      <contour>
        <pt x="977" y="0" on="1"/>
        <pt x="773" y="0" on="1"/>
        <pt x="773" y="493" on="1"/>
        <pt x="330" y="493" on="1"/>
        <pt x="330" y="0" on="1"/>
        <pt x="128" y="0" on="1"/>
        <pt x="128" y="1165" on="1"/>
        <pt x="330" y="1165" on="1"/>
        <pt x="330" y="646" on="1"/>
        <pt x="773" y="646" on="1"/>
        <pt x="773" y="1165" on="1"/>
        <pt x="977" y="1165" on="1"/>
      </contour>
    </TTGlyph>
    <TTGlyph name="Hbar" xMin="28" yMin="0" xMax="1216" yMax="1456">
      <contour>
        <pt x="1101" y="1159" on="1"/>
        <pt x="1216" y="1159" on="1"/>
        <pt x="1216" y="1026" on="1"/>
        <pt x="1101" y="1026" on="1"/>
        <pt x="1101" y="0" on="1"/>
        <pt x="899" y="0" on="1"/>
        <pt x="899" y="642" on="1"/>
        <pt x="341" y="642" on="1"/>
        <pt x="341" y="0" on="1"/>
        <pt x="138" y="0" on="1"/>
        <pt x="138" y="1026" on="1"/>
        <pt x="28" y="1026" on="1"/>
        <pt x="28" y="1159" on="1"/>
        <pt x="138" y="1159" on="1"/>
        <pt x="138" y="1456" on="1"/>
        <pt x="341" y="1456" on="1"/>
        <pt x="341" y="1159" on="1"/>
        <pt x="899" y="1159" on="1"/>
        <pt x="899" y="1456" on="1"/>
        <pt x="1101" y="1456" on="1"/>
      </contour>
      <contour>
        <pt x="341" y="797" on="1"/>
        <pt x="899" y="797" on="1"/>
        <pt x="899" y="1026" on="1"/>
        <pt x="341" y="1026" on="1"/>
      </contour>
    </TTGlyph>
    <TTGlyph name="Hcircumflex" xMin="141" yMin="0" xMax="1104" yMax="1854">
      <component glyphName="H" x="0" y="0" flags="0x204"/>
      <component glyphName="circumflex" x="198" y="347" flags="0x4"/>
    </TTGlyph>
    <TTGlyph name="Hcircumflex.smcp" xMin="128" yMin="0" xMax="977" yMax="1531">
      <component glyphName="H.smcp" x="0" y="0" flags="0x204"/>
      <component glyphName="circumflex" x="112" y="24" flags="0x4"/>
    </TTGlyph>
    <TTGlyph name="I" xMin="155" yMin="0" xMax="357" yMax="1456">
      <contour>
        <pt x="357" y="0" on="1"/>
        <pt x="155" y="0" on="1"/>
        <pt x="155" y="1456" on="1"/>
        <pt x="357" y="1456" on="1"/>
      </contour>
    </TTGlyph>
    <TTGlyph name="I.smcp" xMin="128" yMin="0" xMax="330" yMax="1165">
      <contour>
        <pt x="330" y="0" on="1"/>
        <pt x="128" y="0" on="1"/>
        <pt x="128" y="1165" on="1"/>
        <pt x="330" y="1165" on="1"/>
      </contour>
    </TTGlyph>
    <TTGlyph name="IJ" xMin="155" yMin="-21" xMax="1366" yMax="1456">
      <component glyphName="I" x="0" y="0" flags="0x4"/>
      <component glyphName="J" x="513" y="0" flags="0x4"/>
    </TTGlyph>
    <TTGlyph name="Iacute" xMin="154" yMin="0" xMax="554" yMax="1824">
      <component glyphName="I" x="0" y="0" flags="0x204"/>
      <component glyphName="acute" x="42" y="346" flags="0x4"/>
    </TTGlyph>
    <TTGlyph name="Iacute.smcp" xMin="126" yMin="0" xMax="526" yMax="1501">
      <component glyphName="I.smcp" x="0" y="0" flags="0x204"/>
      <component glyphName="acute" x="14" y="23" flags="0x4"/>
    </TTGlyph>
    <TTGlyph name="Ibreve" xMin="-25" yMin="0" xMax="542" yMax="1872">
      <component glyphName="I" x="0" y="0" flags="0x204"/>
      <component glyphName="breve" x="-139" y="416" flags="0x4"/>
    </TTGlyph>
    <TTGlyph name="Ibreve.smcp" xMin="-53" yMin="0" xMax="514" yMax="1549">
      <component glyphName="I.smcp" x="0" y="0" flags="0x204"/>
      <component glyphName="breve" x="-167" y="93" flags="0x4"/>
    </TTGlyph>
    <TTGlyph name="Icircumflex" xMin="-25" yMin="0" xMax="545" yMax="1854">
      <component glyphName="I" x="0" y="0" flags="0x204"/>
      <component glyphName="circumflex" x="-162" y="347" flags="0x4"/>
    </TTGlyph>
    <TTGlyph name="Icircumflex.smcp" xMin="-53" yMin="0" xMax="517" yMax="1531">
      <component glyphName="I.smcp" x="0" y="0" flags="0x204"/>
      <component glyphName="circumflex" x="-190" y="24" flags="0x4"/>
    </TTGlyph>
    <TTGlyph name="Idieresis" xMin="-59" yMin="0" xMax="577" yMax="1802">
      <component glyphName="I" x="0" y="0" flags="0x204"/>
      <component glyphName="dieresis" x="-210" y="346" flags="0x4"/>
    </TTGlyph>
    <TTGlyph name="Idieresis.smcp" xMin="-87" yMin="0" xMax="549" yMax="1479">
      <component glyphName="I.smcp" x="0" y="0" flags="0x204"/>
      <component glyphName="dieresis" x="-238" y="23" flags="0x4"/>
    </TTGlyph>
    <TTGlyph name="Idotaccent" xMin="146" yMin="0" xMax="363" yMax="1816">
      <component glyphName="I" x="0" y="0" flags="0x204"/>
      <component glyphName="dotaccent" x="9" y="357" flags="0x4"/>
    </TTGlyph>
    <TTGlyph name="Idotaccent.smcp" xMin="120" yMin="0" xMax="337" yMax="1493">
      <component glyphName="I.smcp" x="0" y="0" flags="0x204"/>
      <component glyphName="dotaccent" x="-17" y="34" flags="0x4"/>
    </TTGlyph>
    <TTGlyph name="Igrave" xMin="-39" yMin="0" xMax="359" yMax="1827">
      <component glyphName="I" x="0" y="0" flags="0x204"/>
      <component glyphName="grave" x="-119" y="350" flags="0x4"/>
    </TTGlyph>
    <TTGlyph name="Igrave.smcp" xMin="-67" yMin="0" xMax="331" yMax="1504">
      <component glyphName="I.smcp" x="0" y="0" flags="0x204"/>
      <component glyphName="grave" x="-147" y="27" flags="0x4"/>
    </TTGlyph>
    <TTGlyph name="Imacron" xMin="-57" yMin="0" xMax="578" yMax="1784">
      <component glyphName="I" x="0" y="0" flags="0x204"/>
      <component glyphName="macron" x="-182" y="328" flags="0x4"/>
    </TTGlyph>
    <TTGlyph name="Imacron.smcp" xMin="-85" yMin="0" xMax="550" yMax="1461">
      <component glyphName="I.smcp" x="0" y="0" flags="0x204"/>
      <component glyphName="macron" x="-210" y="5" flags="0x4"/>
    </TTGlyph>
    <TTGlyph name="Iogonek" xMin="47" yMin="-413" xMax="394" yMax="1456">
      <component glyphName="I" x="0" y="0" flags="0x204"/>
      <component glyphName="ogonek" x="-27" y="0" flags="0x4"/>
    </TTGlyph>
    <TTGlyph name="Iogonek.smcp" xMin="20" yMin="-413" xMax="367" yMax="1165">
      <component glyphName="I.smcp" x="0" y="0" flags="0x204"/>
      <component glyphName="ogonek" x="-54" y="0" flags="0x4"/>
    </TTGlyph>
    <TTGlyph name="Iota" xMin="155" yMin="0" xMax="357" yMax="1456">
      <component glyphName="I" x="0" y="0" flags="0x204"/>
    </TTGlyph>
    <TTGlyph name="Iotadieresis" xMin="-59" yMin="0" xMax="577" yMax="1802">
      <component glyphName="I" x="0" y="0" flags="0x204"/>
      <component glyphName="dieresis" x="-210" y="346" flags="0x4"/>
    </TTGlyph>
    <TTGlyph name="Iotatonos" xMin="-5" yMin="0" xMax="457" yMax="1633">
      <component glyphName="I" x="100" y="0" flags="0x4"/>
      <component glyphName="tonos" x="-196" y="0" flags="0x4"/>
    </TTGlyph>
    <TTGlyph name="Itilde" xMin="-48" yMin="0" xMax="562" yMax="1869">
      <component glyphName="I" x="0" y="0" flags="0x204"/>
      <component glyphName="tilde" x="-160" y="354" flags="0x4"/>
    </TTGlyph>
    <TTGlyph name="Itilde.smcp" xMin="-76" yMin="0" xMax="534" yMax="1546">
      <component glyphName="I.smcp" x="0" y="0" flags="0x204"/>
      <component glyphName="tilde" x="-188" y="31" flags="0x4"/>
    </TTGlyph>
    <TTGlyph name="J" xMin="59" yMin="-21" xMax="853" yMax="1456">
      <contour>
        <pt x="651" y="1456" on="1"/>
        <pt x="853" y="1456" on="1"/>
        <pt x="853" y="417" on="1"/>
        <pt x="853" y="216" on="0"/>
        <pt x="633" y="-21" on="0"/>
        <pt x="461" y="-21" on="1"/>
        <pt x="276" y="-21" on="0"/>
        <pt x="59" y="194" on="0"/>
        <pt x="63" y="402" on="1"/>
        <pt x="66" y="408" on="1"/>
        <pt x="261" y="408" on="1"/>
        <pt x="261" y="270" on="0"/>
        <pt x="368" y="133" on="0"/>
        <pt x="461" y="133" on="1"/>
        <pt x="543" y="133" on="0"/>
        <pt x="651" y="287" on="0"/>
        <pt x="651" y="417" on="1"/>
      </contour>
    </TTGlyph>
    <TTGlyph name="J.smcp" xMin="47" yMin="-17" xMax="774" yMax="1165">
      <contour>
        <pt x="572" y="1165" on="1"/>
        <pt x="774" y="1165" on="1"/>
        <pt x="774" y="359" on="1"/>
        <pt x="774" y="187" on="0"/>
        <pt x="574" y="-17" on="0"/>
        <pt x="418" y="-17" on="1"/>
        <pt x="246" y="-17" on="0"/>
        <pt x="47" y="163" on="0"/>
        <pt x="52" y="336" on="1"/>
        <pt x="54" y="342" on="1"/>
        <pt x="249" y="342" on="1"/>
        <pt x="249" y="238" on="0"/>
        <pt x="340" y="135" on="0"/>
        <pt x="418" y="135" on="1"/>
        <pt x="485" y="135" on="0"/>
        <pt x="572" y="257" on="0"/>
        <pt x="572" y="359" on="1"/>
      </contour>
    </TTGlyph>
    <TTGlyph name="Jcircumflex" xMin="59" yMin="-21" xMax="1028" yMax="1840">
      <component glyphName="J" x="0" y="0" flags="0x204"/>
      <component glyphName="circumflex" x="321" y="333" flags="0x4"/>
    </TTGlyph>
    <TTGlyph name="Jcircumflex.smcp" xMin="47" yMin="-17" xMax="954" yMax="1521">
      <component glyphName="J.smcp" x="0" y="0" flags="0x204"/>
      <component glyphName="circumflex" x="247" y="14" flags="0x4"/>
    </TTGlyph>
    <TTGlyph name="K" xMin="141" yMin="0" xMax="1127" yMax="1456">
      <contour>
        <pt x="483" y="653" on="1"/>
        <pt x="344" y="653" on="1"/>
        <pt x="344" y="0" on="1"/>
        <pt x="141" y="0" on="1"/>
        <pt x="141" y="1456" on="1"/>
        <pt x="344" y="1456" on="1"/>
        <pt x="344" y="816" on="1"/>
        <pt x="465" y="816" on="1"/>
        <pt x="850" y="1456" on="1"/>
        <pt x="1092" y="1456" on="1"/>
        <pt x="634" y="765" on="1"/>
        <pt x="1127" y="0" on="1"/>
        <pt x="879" y="0" on="1"/>
      </contour>
    </TTGlyph>
    <TTGlyph name="K.smcp" xMin="128" yMin="0" xMax="952" yMax="1165">
      <contour>
        <pt x="418" y="498" on="1"/>
        <pt x="330" y="498" on="1"/>
        <pt x="330" y="0" on="1"/>
        <pt x="128" y="0" on="1"/>
        <pt x="128" y="1165" on="1"/>
        <pt x="330" y="1165" on="1"/>
        <pt x="330" y="665" on="1"/>
        <pt x="407" y="665" on="1"/>
        <pt x="677" y="1165" on="1"/>
        <pt x="929" y="1165" on="1"/>
        <pt x="575" y="620" on="1"/>
        <pt x="952" y="0" on="1"/>
        <pt x="693" y="0" on="1"/>
      </contour>
    </TTGlyph>
    <TTGlyph name="Kappa" xMin="141" yMin="0" xMax="1127" yMax="1456">
      <component glyphName="K" x="0" y="0" flags="0x204"/>
    </TTGlyph>
    <TTGlyph name="Kcommaaccent" xMin="141" yMin="-472" xMax="1127" yMax="1456">
      <component glyphName="K" x="0" y="0" flags="0x204"/>
      <component glyphName="commaaccent" x="341" y="-333" flags="0x4"/>
    </TTGlyph>
    <TTGlyph name="Kcommaaccent.smcp" xMin="128" yMin="-474" xMax="952" yMax="1165">
      <component glyphName="K.smcp" x="0" y="0" flags="0x204"/>
      <component glyphName="commaaccent" x="250" y="-335" flags="0x4"/>
    </TTGlyph>
    <TTGlyph name="L" xMin="141" yMin="0" xMax="912" yMax="1456">
      <contour>
        <pt x="344" y="154" on="1"/>
        <pt x="912" y="154" on="1"/>
        <pt x="912" y="0" on="1"/>
        <pt x="141" y="0" on="1"/>
        <pt x="141" y="1456" on="1"/>
        <pt x="344" y="1456" on="1"/>
      </contour>
    </TTGlyph>
    <TTGlyph name="L.smcp" xMin="128" yMin="0" xMax="760" yMax="1165">
      <contour>
        <pt x="330" y="152" on="1"/>
        <pt x="760" y="152" on="1"/>
        <pt x="760" y="0" on="1"/>
        <pt x="128" y="0" on="1"/>
        <pt x="128" y="1165" on="1"/>
        <pt x="330" y="1165" on="1"/>
      </contour>
    </TTGlyph>
    <TTGlyph name="Lacute" xMin="140" yMin="0" xMax="912" yMax="1773">
      <component glyphName="L" x="0" y="0" flags="0x204"/>
      <component glyphName="acute" x="28" y="295" flags="0x4"/>
    </TTGlyph>
    <TTGlyph name="Lacute.smcp" xMin="124" yMin="0" xMax="760" yMax="1480">
      <component glyphName="L.smcp" x="0" y="0" flags="0x204"/>
      <component glyphName="acute" x="12" y="2" flags="0x4"/>
    </TTGlyph>
    <TTGlyph name="Lambda" xMin="38" yMin="0" xMax="1102" yMax="1456">
      <contour>
        <pt x="573" y="1189" on="1"/>
        <pt x="567" y="1189" on="1"/>
        <pt x="248" y="0" on="1"/>
        <pt x="38" y="0" on="1"/>
        <pt x="471" y="1456" on="1"/>
        <pt x="669" y="1456" on="1"/>
        <pt x="1102" y="0" on="1"/>
        <pt x="892" y="0" on="1"/>
      </contour>
    </TTGlyph>
    <TTGlyph name="Lcaron" xMin="141" yMin="0" xMax="912" yMax="1456">
      <component glyphName="L" x="0" y="0" flags="0x204"/>
      <component glyphName="commaaccent" x="436" y="1232" flags="0x4"/>
    </TTGlyph>
    <TTGlyph name="Lcaron.smcp" xMin="128" yMin="0" xMax="760" yMax="1165">
      <component glyphName="L.smcp" x="0" y="0" flags="0x204"/>
      <component glyphName="commaaccent" x="342" y="941" flags="0x4"/>
    </TTGlyph>
    <TTGlyph name="Lcommaaccent" xMin="141" yMin="-470" xMax="912" yMax="1456">
      <component glyphName="L" x="0" y="0" flags="0x204"/>
      <component glyphName="commaaccent" x="323" y="-331" flags="0x4"/>
    </TTGlyph>
    <TTGlyph name="Lcommaaccent.smcp" xMin="128" yMin="-472" xMax="760" yMax="1165">
      <component glyphName="L.smcp" x="0" y="0" flags="0x204"/>
      <component glyphName="commaaccent" x="210" y="-333" flags="0x4"/>
    </TTGlyph>
    <TTGlyph name="Ldot" xMin="141" yMin="0" xMax="912" yMax="1456">
      <component glyphName="L" x="0" y="0" flags="0x204"/>
      <component glyphName="dotaccent" x="374" y="-574" flags="0x4"/>
    </TTGlyph>
    <TTGlyph name="Ldot.smcp" xMin="128" yMin="0" xMax="760" yMax="1165">
      <component glyphName="L.smcp" x="0" y="0" flags="0x204"/>
      <component glyphName="dotaccent" x="283" y="-734" flags="0x4"/>
    </TTGlyph>
    <TTGlyph name="Lslash" xMin="28" yMin="0" xMax="901" yMax="1456">
      <contour>
        <pt x="333" y="852" on="1"/>
        <pt x="554" y="931" on="1"/>
        <pt x="554" y="780" on="1"/>
        <pt x="333" y="701" on="1"/>
        <pt x="333" y="154" on="1"/>
        <pt x="901" y="154" on="1"/>
        <pt x="901" y="0" on="1"/>
        <pt x="130" y="0" on="1"/>
        <pt x="130" y="629" on="1"/>
        <pt x="28" y="593" on="1"/>
        <pt x="28" y="744" on="1"/>
        <pt x="130" y="780" on="1"/>
        <pt x="130" y="1456" on="1"/>
        <pt x="333" y="1456" on="1"/>
      </contour>
    </TTGlyph>
    <TTGlyph name="M" xMin="136" yMin="0" xMax="1346" yMax="1456">
      <contour>
        <pt x="397" y="1456" on="1"/>
        <pt x="737" y="268" on="1"/>
        <pt x="743" y="268" on="1"/>
        <pt x="1084" y="1456" on="1"/>
        <pt x="1346" y="1456" on="1"/>
        <pt x="1346" y="0" on="1"/>
        <pt x="1145" y="0" on="1"/>
        <pt x="1145" y="559" on="1"/>
        <pt x="1163" y="1119" on="1"/>
        <pt x="1157" y="1120" on="1"/>
        <pt x="807" y="0" on="1"/>
        <pt x="673" y="0" on="1"/>
        <pt x="324" y="1119" on="1"/>
        <pt x="318" y="1118" on="1"/>
        <pt x="337" y="559" on="1"/>
        <pt x="337" y="0" on="1"/>
        <pt x="136" y="0" on="1"/>
        <pt x="136" y="1456" on="1"/>
      </contour>
    </TTGlyph>
    <TTGlyph name="M.smcp" xMin="128" yMin="0" xMax="1183" yMax="1165">
      <contour>
        <pt x="652" y="249" on="1"/>
        <pt x="658" y="249" on="1"/>
        <pt x="929" y="1165" on="1"/>
        <pt x="1183" y="1165" on="1"/>
        <pt x="1183" y="0" on="1"/>
        <pt x="980" y="0" on="1"/>
        <pt x="980" y="764" on="1"/>
        <pt x="974" y="765" on="1"/>
        <pt x="724" y="0" on="1"/>
        <pt x="587" y="0" on="1"/>
        <pt x="336" y="770" on="1"/>
        <pt x="330" y="769" on="1"/>
        <pt x="330" y="0" on="1"/>
        <pt x="128" y="0" on="1"/>
        <pt x="128" y="1165" on="1"/>
        <pt x="383" y="1165" on="1"/>
      </contour>
    </TTGlyph>
    <TTGlyph name="Mu" xMin="136" yMin="0" xMax="1346" yMax="1456">
      <component glyphName="M" x="0" y="0" flags="0x204"/>
    </TTGlyph>
    <TTGlyph name="N" xMin="141" yMin="0" xMax="1104" yMax="1456">
      <contour>
        <pt x="1104" y="0" on="1"/>
        <pt x="902" y="0" on="1"/>
        <pt x="350" y="1083" on="1"/>
        <pt x="344" y="1081" on="1"/>
        <pt x="344" y="0" on="1"/>
        <pt x="141" y="0" on="1"/>
        <pt x="141" y="1456" on="1"/>
        <pt x="344" y="1456" on="1"/>
        <pt x="896" y="376" on="1"/>
        <pt x="902" y="378" on="1"/>
        <pt x="902" y="1456" on="1"/>
        <pt x="1104" y="1456" on="1"/>
      </contour>
    </TTGlyph>
    <TTGlyph name="N.smcp" xMin="128" yMin="0" xMax="986" yMax="1165">
      <contour>
        <pt x="986" y="0" on="1"/>
        <pt x="783" y="0" on="1"/>
        <pt x="336" y="807" on="1"/>
        <pt x="330" y="805" on="1"/>
        <pt x="330" y="0" on="1"/>
        <pt x="128" y="0" on="1"/>
        <pt x="128" y="1165" on="1"/>
        <pt x="330" y="1165" on="1"/>
        <pt x="777" y="359" on="1"/>
        <pt x="783" y="361" on="1"/>
        <pt x="783" y="1165" on="1"/>
        <pt x="986" y="1165" on="1"/>
      </contour>
    </TTGlyph>
    <TTGlyph name="Nacute" xMin="141" yMin="0" xMax="1104" yMax="1824">
      <component glyphName="N" x="0" y="0" flags="0x204"/>
      <component glyphName="acute" x="408" y="346" flags="0x4"/>
    </TTGlyph>
    <TTGlyph name="Nacute.smcp" xMin="128" yMin="0" xMax="986" yMax="1501">
      <component glyphName="N.smcp" x="0" y="0" flags="0x204"/>
      <component glyphName="acute" x="328" y="23" flags="0x4"/>
    </TTGlyph>
    <TTGlyph name="Ncaron" xMin="141" yMin="0" xMax="1104" yMax="1859">
      <component glyphName="N" x="0" y="0" flags="0x204"/>
      <component glyphName="caron" x="222" y="350" flags="0x4"/>
    </TTGlyph>
    <TTGlyph name="Ncaron.smcp" xMin="128" yMin="0" xMax="986" yMax="1536">
      <component glyphName="N.smcp" x="0" y="0" flags="0x204"/>
      <component glyphName="caron" x="142" y="27" flags="0x4"/>
    </TTGlyph>
    <TTGlyph name="Ncommaaccent" xMin="141" yMin="-470" xMax="1104" yMax="1456">
      <component glyphName="N" x="0" y="0" flags="0x204"/>
      <component glyphName="commaaccent" x="415" y="-331" flags="0x4"/>
    </TTGlyph>
    <TTGlyph name="Ncommaaccent.smcp" xMin="128" yMin="-472" xMax="986" yMax="1165">
      <component glyphName="N.smcp" x="0" y="0" flags="0x204"/>
      <component glyphName="commaaccent" x="335" y="-333" flags="0x4"/>
    </TTGlyph>
    <TTGlyph name="Ntilde" xMin="141" yMin="0" xMax="1104" yMax="1869">
      <component glyphName="N" x="0" y="0" flags="0x204"/>
      <component glyphName="tilde" x="204" y="354" flags="0x4"/>
    </TTGlyph>
    <TTGlyph name="Ntilde.smcp" xMin="128" yMin="0" xMax="986" yMax="1546">
      <component glyphName="N.smcp" x="0" y="0" flags="0x204"/>
      <component glyphName="tilde" x="124" y="31" flags="0x4"/>
    </TTGlyph>
    <TTGlyph name="Nu" xMin="141" yMin="0" xMax="1104" yMax="1456">
      <component glyphName="N" x="0" y="0" flags="0x204"/>
    </TTGlyph>
    <TTGlyph name="O" xMin="91" yMin="-21" xMax="1068" yMax="1477">
      <contour>
        <pt x="1068" y="527" on="1"/>
        <pt x="1068" y="268" on="0"/>
        <pt x="800" y="-21" on="0"/>
        <pt x="575" y="-21" on="1"/>
        <pt x="353" y="-21" on="0"/>
        <pt x="91" y="268" on="0"/>
        <pt x="91" y="527" on="1"/>
        <pt x="91" y="927" on="1"/>
        <pt x="91" y="1185" on="0"/>
        <pt x="354" y="1477" on="0"/>
        <pt x="575" y="1477" on="1"/>
        <pt x="799" y="1477" on="0"/>
        <pt x="1068" y="1185" on="0"/>
        <pt x="1068" y="927" on="1"/>
      </contour>
      <contour>
        <pt x="866" y="930" on="1"/>
        <pt x="866" y="1120" on="0"/>
        <pt x="714" y="1317" on="0"/>
        <pt x="575" y="1317" on="1"/>
        <pt x="438" y="1317" on="0"/>
        <pt x="292" y="1120" on="0"/>
        <pt x="292" y="930" on="1"/>
        <pt x="292" y="527" on="1"/>
        <pt x="292" y="335" on="0"/>
        <pt x="439" y="137" on="0"/>
        <pt x="575" y="137" on="1"/>
        <pt x="715" y="137" on="0"/>
        <pt x="866" y="334" on="0"/>
        <pt x="866" y="527" on="1"/>
      </contour>
    </TTGlyph>
    <TTGlyph name="O.smcp" xMin="95" yMin="-17" xMax="956" yMax="1181">
      <contour>
        <pt x="956" y="461" on="1"/>
        <pt x="956" y="246" on="0"/>
        <pt x="718" y="-17" on="0"/>
        <pt x="527" y="-17" on="1"/>
        <pt x="334" y="-17" on="0"/>
        <pt x="95" y="246" on="0"/>
        <pt x="95" y="461" on="1"/>
        <pt x="95" y="704" on="1"/>
        <pt x="95" y="917" on="0"/>
        <pt x="333" y="1181" on="0"/>
        <pt x="525" y="1181" on="1"/>
        <pt x="716" y="1181" on="0"/>
        <pt x="956" y="917" on="0"/>
        <pt x="956" y="704" on="1"/>
      </contour>
      <contour>
        <pt x="754" y="705" on="1"/>
        <pt x="754" y="855" on="0"/>
        <pt x="632" y="1027" on="0"/>
        <pt x="525" y="1027" on="1"/>
        <pt x="417" y="1027" on="0"/>
        <pt x="297" y="855" on="0"/>
        <pt x="297" y="705" on="1"/>
        <pt x="297" y="461" on="1"/>
        <pt x="297" y="308" on="0"/>
        <pt x="418" y="135" on="0"/>
        <pt x="527" y="135" on="1"/>
        <pt x="633" y="135" on="0"/>
        <pt x="754" y="308" on="0"/>
        <pt x="754" y="461" on="1"/>
      </contour>
    </TTGlyph>
    <TTGlyph name="OE" xMin="93" yMin="-21" xMax="1597" yMax="1477">
      <contour>
        <pt x="1597" y="0" on="1"/>
        <pt x="832" y="0" on="1"/>
        <pt x="754" y="-10" on="0"/>
        <pt x="643" y="-21" on="0"/>
        <pt x="586" y="-21" on="1"/>
        <pt x="367" y="-21" on="0"/>
        <pt x="93" y="311" on="0"/>
        <pt x="93" y="576" on="1"/>
        <pt x="93" y="880" on="1"/>
        <pt x="93" y="1145" on="0"/>
        <pt x="365" y="1477" on="0"/>
        <pt x="585" y="1477" on="1"/>
        <pt x="643" y="1477" on="0"/>
        <pt x="764" y="1465" on="0"/>
        <pt x="832" y="1456" on="1"/>
        <pt x="1591" y="1456" on="1"/>
        <pt x="1591" y="1300" on="1"/>
        <pt x="971" y="1300" on="1"/>
        <pt x="971" y="831" on="1"/>
        <pt x="1511" y="831" on="1"/>
        <pt x="1511" y="676" on="1"/>
        <pt x="971" y="676" on="1"/>
        <pt x="971" y="154" on="1"/>
        <pt x="1597" y="154" on="1"/>
      </contour>
      <contour>
        <pt x="586" y="134" on="1"/>
        <pt x="632" y="134" on="0"/>
        <pt x="724" y="141" on="0"/>
        <pt x="768" y="148" on="1"/>
        <pt x="768" y="1308" on="1"/>
        <pt x="723" y="1314" on="0"/>
        <pt x="632" y="1322" on="0"/>
        <pt x="585" y="1322" on="1"/>
        <pt x="450" y="1322" on="0"/>
        <pt x="296" y="1091" on="0"/>
        <pt x="296" y="882" on="1"/>
        <pt x="296" y="576" on="1"/>
        <pt x="296" y="366" on="0"/>
        <pt x="451" y="134" on="0"/>
      </contour>
    </TTGlyph>
    <TTGlyph name="Oacute" xMin="91" yMin="-21" xMax="1068" yMax="1845">
      <component glyphName="O" x="0" y="0" flags="0x204"/>
      <component glyphName="acute" x="365" y="367" flags="0x4"/>
    </TTGlyph>
    <TTGlyph name="Oacute.smcp" xMin="95" yMin="-17" xMax="956" yMax="1518">
      <component glyphName="O.smcp" x="0" y="0" flags="0x204"/>
      <component glyphName="acute" x="298" y="40" flags="0x4"/>
    </TTGlyph>
    <TTGlyph name="Obreve" xMin="91" yMin="-21" xMax="1068" yMax="1893">
      <component glyphName="O" x="0" y="0" flags="0x204"/>
      <component glyphName="breve" x="182" y="437" flags="0x4"/>
    </TTGlyph>
    <TTGlyph name="Obreve.smcp" xMin="95" yMin="-17" xMax="956" yMax="1566">
      <component glyphName="O.smcp" x="0" y="0" flags="0x204"/>
      <component glyphName="breve" x="115" y="110" flags="0x4"/>
    </TTGlyph>
    <TTGlyph name="Ocircumflex" xMin="91" yMin="-21" xMax="1068" yMax="1875">
      <component glyphName="O" x="0" y="0" flags="0x204"/>
      <component glyphName="circumflex" x="159" y="368" flags="0x4"/>
    </TTGlyph>
    <TTGlyph name="Ocircumflex.smcp" xMin="95" yMin="-17" xMax="956" yMax="1548">
      <component glyphName="O.smcp" x="0" y="0" flags="0x204"/>
      <component glyphName="circumflex" x="92" y="41" flags="0x4"/>
    </TTGlyph>
    <TTGlyph name="Odieresis" xMin="91" yMin="-21" xMax="1068" yMax="1823">
      <component glyphName="O" x="0" y="0" flags="0x204"/>
      <component glyphName="dieresis" x="111" y="367" flags="0x4"/>
    </TTGlyph>
    <TTGlyph name="Odieresis.smcp" xMin="95" yMin="-17" xMax="956" yMax="1496">
      <component glyphName="O.smcp" x="0" y="0" flags="0x204"/>
      <component glyphName="dieresis" x="44" y="40" flags="0x4"/>
    </TTGlyph>
    <TTGlyph name="Ograve" xMin="91" yMin="-21" xMax="1068" yMax="1848">
      <component glyphName="O" x="0" y="0" flags="0x204"/>
      <component glyphName="grave" x="202" y="371" flags="0x4"/>
    </TTGlyph>
    <TTGlyph name="Ograve.smcp" xMin="95" yMin="-17" xMax="956" yMax="1521">
      <component glyphName="O.smcp" x="0" y="0" flags="0x204"/>
      <component glyphName="grave" x="135" y="44" flags="0x4"/>
    </TTGlyph>
    <TTGlyph name="Ohorn" xMin="92" yMin="-21" xMax="1319" yMax="1631">
      <contour>
        <pt x="1069" y="527" on="1"/>
        <pt x="1069" y="268" on="0"/>
        <pt x="801" y="-21" on="0"/>
        <pt x="576" y="-21" on="1"/>
        <pt x="354" y="-21" on="0"/>
        <pt x="92" y="268" on="0"/>
        <pt x="92" y="527" on="1"/>
        <pt x="92" y="927" on="1"/>
        <pt x="92" y="1185" on="0"/>
        <pt x="355" y="1477" on="0"/>
        <pt x="576" y="1477" on="1"/>
        <pt x="698" y="1477" on="0"/>
        <pt x="894" y="1387" on="0"/>
        <pt x="960" y="1301" on="1"/>
        <pt x="1053" y="1323" on="0"/>
        <pt x="1149" y="1492" on="0"/>
        <pt x="1149" y="1631" on="1"/>
        <pt x="1319" y="1631" on="1"/>
        <pt x="1319" y="1442" on="0"/>
        <pt x="1170" y="1202" on="0"/>
        <pt x="1032" y="1163" on="1"/>
        <pt x="1050" y="1111" on="0"/>
        <pt x="1069" y="993" on="0"/>
        <pt x="1069" y="927" on="1"/>
      </contour>
      <contour>
        <pt x="867" y="930" on="1"/>
        <pt x="867" y="1120" on="0"/>
        <pt x="715" y="1317" on="0"/>
        <pt x="576" y="1317" on="1"/>
        <pt x="439" y="1317" on="0"/>
        <pt x="293" y="1120" on="0"/>
        <pt x="293" y="930" on="1"/>
        <pt x="293" y="527" on="1"/>
        <pt x="293" y="335" on="0"/>
        <pt x="440" y="137" on="0"/>
        <pt x="576" y="137" on="1"/>
        <pt x="716" y="137" on="0"/>
        <pt x="867" y="334" on="0"/>
        <pt x="867" y="527" on="1"/>
      </contour>
    </TTGlyph>
    <TTGlyph name="Ohungarumlaut" xMin="91" yMin="-21" xMax="1068" yMax="1888">
      <component glyphName="O" x="0" y="0" flags="0x204"/>
      <component glyphName="hungarumlaut" x="237" y="370" flags="0x4"/>
    </TTGlyph>
    <TTGlyph name="Ohungarumlaut.smcp" xMin="95" yMin="-17" xMax="959" yMax="1561">
      <component glyphName="O.smcp" x="0" y="0" flags="0x204"/>
      <component glyphName="hungarumlaut" x="170" y="43" flags="0x4"/>
    </TTGlyph>
    <TTGlyph name="Omacron" xMin="91" yMin="-21" xMax="1068" yMax="1805">
      <component glyphName="O" x="0" y="0" flags="0x204"/>
      <component glyphName="macron" x="139" y="349" flags="0x4"/>
    </TTGlyph>
    <TTGlyph name="Omacron.smcp" xMin="95" yMin="-17" xMax="956" yMax="1478">
      <component glyphName="O.smcp" x="0" y="0" flags="0x204"/>
      <component glyphName="macron" x="72" y="22" flags="0x4"/>
    </TTGlyph>
    <TTGlyph name="Omega" xMin="101" yMin="0" xMax="1057" yMax="1477">
      <contour>
        <pt x="631" y="164" on="1"/>
        <pt x="729" y="200" on="0"/>
        <pt x="841" y="484" on="0"/>
        <pt x="841" y="737" on="1"/>
        <pt x="841" y="848" on="1"/>
        <pt x="841" y="1070" on="0"/>
        <pt x="700" y="1320" on="0"/>
        <pt x="577" y="1320" on="1"/>
        <pt x="455" y="1320" on="0"/>
        <pt x="316" y="1070" on="0"/>
        <pt x="316" y="848" on="1"/>
        <pt x="316" y="737" on="1"/>
        <pt x="316" y="483" on="0"/>
        <pt x="430" y="199" on="0"/>
        <pt x="531" y="164" on="1"/>
        <pt x="531" y="0" on="1"/>
        <pt x="111" y="0" on="1"/>
        <pt x="111" y="155" on="1"/>
        <pt x="336" y="155" on="1"/>
        <pt x="229" y="248" on="0"/>
        <pt x="101" y="556" on="0"/>
        <pt x="101" y="737" on="1"/>
        <pt x="101" y="846" on="1"/>
        <pt x="101" y="1126" on="0"/>
        <pt x="364" y="1477" on="0"/>
        <pt x="577" y="1477" on="1"/>
        <pt x="790" y="1477" on="0"/>
        <pt x="1057" y="1126" on="0"/>
        <pt x="1057" y="846" on="1"/>
        <pt x="1057" y="737" on="1"/>
        <pt x="1057" y="556" on="0"/>
        <pt x="928" y="248" on="0"/>
        <pt x="822" y="155" on="1"/>
        <pt x="1052" y="155" on="1"/>
        <pt x="1052" y="0" on="1"/>
        <pt x="631" y="0" on="1"/>
      </contour>
    </TTGlyph>
    <TTGlyph name="Omegatonos" xMin="27" yMin="0" xMax="1077" yMax="1633">
      <component glyphName="Omega" x="20" y="0" flags="0x4"/>
      <component glyphName="tonos" x="-164" y="0" flags="0x4"/>
    </TTGlyph>
    <TTGlyph name="Omicron" xMin="91" yMin="-21" xMax="1068" yMax="1477">
      <component glyphName="O" x="0" y="0" flags="0x204"/>
    </TTGlyph>
    <TTGlyph name="Omicrontonos" xMin="27" yMin="-21" xMax="1088" yMax="1633">
      <component glyphName="O" x="20" y="0" flags="0x4"/>
      <component glyphName="tonos" x="-164" y="0" flags="0x4"/>
    </TTGlyph>
    <TTGlyph name="Oslash" xMin="93" yMin="-90" xMax="1077" yMax="1512">
      <contour>
        <pt x="1070" y="527" on="1"/>
        <pt x="1070" y="268" on="0"/>
        <pt x="802" y="-21" on="0"/>
        <pt x="577" y="-21" on="1"/>
        <pt x="508" y="-21" on="0"/>
        <pt x="387" y="7" on="0"/>
        <pt x="336" y="35" on="1"/>
        <pt x="273" y="-90" on="1"/>
        <pt x="153" y="-90" on="1"/>
        <pt x="248" y="99" on="1"/>
        <pt x="173" y="169" on="0"/>
        <pt x="93" y="386" on="0"/>
        <pt x="93" y="527" on="1"/>
        <pt x="93" y="927" on="1"/>
        <pt x="93" y="1185" on="0"/>
        <pt x="356" y="1477" on="0"/>
        <pt x="577" y="1477" on="1"/>
        <pt x="668" y="1477" on="0"/>
        <pt x="826" y="1425" on="0"/>
        <pt x="888" y="1376" on="1"/>
        <pt x="956" y="1512" on="1"/>
        <pt x="1077" y="1512" on="1"/>
        <pt x="967" y="1293" on="1"/>
        <pt x="1017" y="1223" on="0"/>
        <pt x="1070" y="1038" on="0"/>
        <pt x="1070" y="927" on="1"/>
      </contour>
      <contour>
        <pt x="294" y="527" on="1"/>
        <pt x="294" y="451" on="0"/>
        <pt x="316" y="331" on="0"/>
        <pt x="338" y="291" on="1"/>
        <pt x="344" y="290" on="1"/>
        <pt x="802" y="1205" on="1"/>
        <pt x="764" y="1260" on="0"/>
        <pt x="650" y="1317" on="0"/>
        <pt x="577" y="1317" on="1"/>
        <pt x="440" y="1317" on="0"/>
        <pt x="294" y="1120" on="0"/>
        <pt x="294" y="930" on="1"/>
      </contour>
      <contour>
        <pt x="868" y="930" on="1"/>
        <pt x="868" y="967" on="0"/>
        <pt x="861" y="1034" on="0"/>
        <pt x="856" y="1059" on="1"/>
        <pt x="850" y="1060" on="1"/>
        <pt x="413" y="189" on="1"/>
        <pt x="445" y="162" on="0"/>
        <pt x="527" y="137" on="0"/>
        <pt x="577" y="137" on="1"/>
        <pt x="717" y="137" on="0"/>
        <pt x="868" y="334" on="0"/>
        <pt x="868" y="527" on="1"/>
      </contour>
    </TTGlyph>
    <TTGlyph name="Oslashacute" xMin="93" yMin="-90" xMax="1077" yMax="1886">
      <component glyphName="Oslash" x="0" y="0" flags="0x204"/>
      <component glyphName="acute" x="392" y="408" flags="0x4"/>
    </TTGlyph>
    <TTGlyph name="Otilde" xMin="91" yMin="-21" xMax="1068" yMax="1890">
      <component glyphName="O" x="0" y="0" flags="0x204"/>
      <component glyphName="tilde" x="161" y="375" flags="0x4"/>
    </TTGlyph>
    <TTGlyph name="Otilde.smcp" xMin="95" yMin="-17" xMax="956" yMax="1563">
      <component glyphName="O.smcp" x="0" y="0" flags="0x204"/>
      <component glyphName="tilde" x="94" y="48" flags="0x4"/>
    </TTGlyph>
    <TTGlyph name="P" xMin="141" yMin="0" xMax="1055" yMax="1456">
      <contour>
        <pt x="344" y="574" on="1"/>
        <pt x="344" y="0" on="1"/>
        <pt x="141" y="0" on="1"/>
        <pt x="141" y="1456" on="1"/>
        <pt x="619" y="1456" on="1"/>
        <pt x="823" y="1456" on="0"/>
        <pt x="1055" y="1213" on="0"/>
        <pt x="1055" y="1015" on="1"/>
        <pt x="1055" y="816" on="0"/>
        <pt x="823" y="574" on="0"/>
        <pt x="619" y="574" on="1"/>
      </contour>
      <contour>
        <pt x="344" y="730" on="1"/>
        <pt x="619" y="730" on="1"/>
        <pt x="734" y="730" on="0"/>
        <pt x="852" y="891" on="0"/>
        <pt x="852" y="1013" on="1"/>
        <pt x="852" y="1137" on="0"/>
        <pt x="735" y="1300" on="0"/>
        <pt x="619" y="1300" on="1"/>
        <pt x="344" y="1300" on="1"/>
      </contour>
    </TTGlyph>
    <TTGlyph name="P.smcp" xMin="128" yMin="0" xMax="928" yMax="1165">
      <contour>
        <pt x="330" y="409" on="1"/>
        <pt x="330" y="0" on="1"/>
        <pt x="128" y="0" on="1"/>
        <pt x="128" y="1165" on="1"/>
        <pt x="537" y="1165" on="1"/>
        <pt x="716" y="1165" on="0"/>
        <pt x="928" y="952" on="0"/>
        <pt x="928" y="786" on="1"/>
        <pt x="928" y="619" on="0"/>
        <pt x="716" y="409" on="0"/>
        <pt x="537" y="409" on="1"/>
      </contour>
      <contour>
        <pt x="330" y="564" on="1"/>
        <pt x="537" y="564" on="1"/>
        <pt x="627" y="564" on="0"/>
        <pt x="725" y="692" on="0"/>
        <pt x="725" y="784" on="1"/>
        <pt x="725" y="878" on="0"/>
        <pt x="627" y="1011" on="0"/>
        <pt x="537" y="1011" on="1"/>
        <pt x="330" y="1011" on="1"/>
      </contour>
    </TTGlyph>
    <TTGlyph name="Phi" xMin="73" yMin="0" xMax="1232" yMax="1456">
      <contour>
        <pt x="754" y="1273" on="1"/>
        <pt x="962" y="1269" on="0"/>
        <pt x="1232" y="964" on="0"/>
        <pt x="1232" y="726" on="1"/>
        <pt x="1232" y="488" on="0"/>
        <pt x="962" y="182" on="0"/>
        <pt x="754" y="179" on="1"/>
        <pt x="754" y="0" on="1"/>
        <pt x="553" y="0" on="1"/>
        <pt x="553" y="179" on="1"/>
        <pt x="343" y="180" on="0"/>
        <pt x="73" y="485" on="0"/>
        <pt x="73" y="724" on="1"/>
        <pt x="73" y="963" on="0"/>
        <pt x="343" y="1270" on="0"/>
        <pt x="553" y="1273" on="1"/>
        <pt x="553" y="1456" on="1"/>
        <pt x="754" y="1456" on="1"/>
      </contour>
      <contour>
        <pt x="272" y="724" on="1"/>
        <pt x="272" y="547" on="0"/>
        <pt x="419" y="342" on="0"/>
        <pt x="547" y="346" on="1"/>
        <pt x="553" y="348" on="1"/>
        <pt x="553" y="1104" on="1"/>
        <pt x="547" y="1106" on="1"/>
        <pt x="419" y="1109" on="0"/>
        <pt x="272" y="900" on="0"/>
      </contour>
      <contour>
        <pt x="1032" y="726" on="1"/>
        <pt x="1032" y="901" on="0"/>
        <pt x="885" y="1107" on="0"/>
        <pt x="760" y="1105" on="1"/>
        <pt x="754" y="1103" on="1"/>
        <pt x="754" y="348" on="1"/>
        <pt x="760" y="346" on="1"/>
        <pt x="885" y="343" on="0"/>
        <pt x="1032" y="551" on="0"/>
      </contour>
    </TTGlyph>
    <TTGlyph name="Pi" xMin="141" yMin="0" xMax="1105" yMax="1456">
      <contour>
        <pt x="1105" y="0" on="1"/>
        <pt x="903" y="0" on="1"/>
        <pt x="903" y="1300" on="1"/>
        <pt x="344" y="1300" on="1"/>
        <pt x="344" y="0" on="1"/>
        <pt x="141" y="0" on="1"/>
        <pt x="141" y="1456" on="1"/>
        <pt x="1105" y="1456" on="1"/>
      </contour>
    </TTGlyph>
    <TTGlyph name="Psi" xMin="70" yMin="0" xMax="1163" yMax="1456">
      <contour>
        <pt x="716" y="508" on="1"/>
        <pt x="722" y="507" on="1"/>
        <pt x="833" y="523" on="0"/>
        <pt x="960" y="731" on="0"/>
        <pt x="960" y="905" on="1"/>
        <pt x="960" y="1456" on="1"/>
        <pt x="1163" y="1456" on="1"/>
        <pt x="1163" y="905" on="1"/>
        <pt x="1163" y="658" on="0"/>
        <pt x="920" y="362" on="0"/>
        <pt x="716" y="339" on="1"/>
        <pt x="716" y="0" on="1"/>
        <pt x="514" y="0" on="1"/>
        <pt x="514" y="338" on="1"/>
        <pt x="310" y="360" on="0"/>
        <pt x="70" y="657" on="0"/>
        <pt x="70" y="905" on="1"/>
        <pt x="70" y="1456" on="1"/>
        <pt x="272" y="1456" on="1"/>
        <pt x="272" y="905" on="1"/>
        <pt x="272" y="734" on="0"/>
        <pt x="399" y="526" on="0"/>
        <pt x="508" y="508" on="1"/>
        <pt x="514" y="509" on="1"/>
        <pt x="514" y="1456" on="1"/>
        <pt x="716" y="1456" on="1"/>
      </contour>
    </TTGlyph>
    <TTGlyph name="Q" xMin="93" yMin="-221" xMax="1156" yMax="1477">
      <contour>
        <pt x="1070" y="527" on="1"/>
        <pt x="1070" y="398" on="0"/>
        <pt x="1000" y="194" on="0"/>
        <pt x="936" y="124" on="1"/>
        <pt x="1156" y="-110" on="1"/>
        <pt x="1024" y="-221" on="1"/>
        <pt x="798" y="24" on="1"/>
        <pt x="748" y="1" on="0"/>
        <pt x="637" y="-21" on="0"/>
        <pt x="577" y="-21" on="1"/>
        <pt x="355" y="-21" on="0"/>
        <pt x="93" y="268" on="0"/>
        <pt x="93" y="527" on="1"/>
        <pt x="93" y="927" on="1"/>
        <pt x="93" y="1185" on="0"/>
        <pt x="356" y="1477" on="0"/>
        <pt x="577" y="1477" on="1"/>
        <pt x="801" y="1477" on="0"/>
        <pt x="1070" y="1185" on="0"/>
        <pt x="1070" y="927" on="1"/>
      </contour>
      <contour>
        <pt x="868" y="930" on="1"/>
        <pt x="868" y="1120" on="0"/>
        <pt x="716" y="1317" on="0"/>
        <pt x="577" y="1317" on="1"/>
        <pt x="440" y="1317" on="0"/>
        <pt x="294" y="1120" on="0"/>
        <pt x="294" y="930" on="1"/>
        <pt x="294" y="527" on="1"/>
        <pt x="294" y="335" on="0"/>
        <pt x="441" y="137" on="0"/>
        <pt x="577" y="137" on="1"/>
        <pt x="717" y="137" on="0"/>
        <pt x="868" y="334" on="0"/>
        <pt x="868" y="527" on="1"/>
      </contour>
    </TTGlyph>
    <TTGlyph name="Q.smcp" xMin="96" yMin="-121" xMax="998" yMax="1181">
      <contour>
        <pt x="958" y="461" on="1"/>
        <pt x="958" y="363" on="0"/>
        <pt x="906" y="200" on="0"/>
        <pt x="858" y="138" on="1"/>
        <pt x="998" y="-15" on="1"/>
        <pt x="865" y="-121" on="1"/>
        <pt x="726" y="28" on="1"/>
        <pt x="681" y="5" on="0"/>
        <pt x="582" y="-17" on="0"/>
        <pt x="528" y="-17" on="1"/>
        <pt x="336" y="-17" on="0"/>
        <pt x="96" y="246" on="0"/>
        <pt x="96" y="461" on="1"/>
        <pt x="96" y="704" on="1"/>
        <pt x="96" y="917" on="0"/>
        <pt x="335" y="1181" on="0"/>
        <pt x="527" y="1181" on="1"/>
        <pt x="718" y="1181" on="0"/>
        <pt x="958" y="917" on="0"/>
        <pt x="958" y="704" on="1"/>
      </contour>
      <contour>
        <pt x="756" y="705" on="1"/>
        <pt x="756" y="854" on="0"/>
        <pt x="633" y="1027" on="0"/>
        <pt x="527" y="1027" on="1"/>
        <pt x="419" y="1027" on="0"/>
        <pt x="298" y="855" on="0"/>
        <pt x="298" y="705" on="1"/>
        <pt x="298" y="461" on="1"/>
        <pt x="298" y="308" on="0"/>
        <pt x="420" y="135" on="0"/>
        <pt x="528" y="135" on="1"/>
        <pt x="635" y="135" on="0"/>
        <pt x="756" y="308" on="0"/>
        <pt x="756" y="461" on="1"/>
      </contour>
    </TTGlyph>
    <TTGlyph name="R" xMin="141" yMin="0" xMax="1089" yMax="1455">
      <contour>
        <pt x="344" y="627" on="1"/>
        <pt x="344" y="0" on="1"/>
        <pt x="141" y="0" on="1"/>
        <pt x="141" y="1455" on="1"/>
        <pt x="594" y="1455" on="1"/>
        <pt x="801" y="1455" on="0"/>
        <pt x="1027" y="1241" on="0"/>
        <pt x="1027" y="1041" on="1"/>
        <pt x="1027" y="927" on="0"/>
        <pt x="922" y="757" on="0"/>
        <pt x="823" y="709" on="1"/>
        <pt x="932" y="672" on="0"/>
        <pt x="1029" y="495" on="0"/>
        <pt x="1029" y="365" on="1"/>
        <pt x="1029" y="238" on="1"/>
        <pt x="1029" y="171" on="0"/>
        <pt x="1056" y="56" on="0"/>
        <pt x="1089" y="23" on="1"/>
        <pt x="1089" y="0" on="1"/>
        <pt x="880" y="0" on="1"/>
        <pt x="846" y="33" on="0"/>
        <pt x="827" y="166" on="0"/>
        <pt x="827" y="240" on="1"/>
        <pt x="827" y="363" on="1"/>
        <pt x="827" y="485" on="0"/>
        <pt x="716" y="627" on="0"/>
        <pt x="619" y="627" on="1"/>
      </contour>
      <contour>
        <pt x="344" y="782" on="1"/>
        <pt x="584" y="782" on="1"/>
        <pt x="707" y="782" on="0"/>
        <pt x="824" y="915" on="0"/>
        <pt x="824" y="1037" on="1"/>
        <pt x="824" y="1162" on="0"/>
        <pt x="710" y="1300" on="0"/>
        <pt x="594" y="1300" on="1"/>
        <pt x="344" y="1300" on="1"/>
      </contour>
    </TTGlyph>
    <TTGlyph name="R.smcp" xMin="128" yMin="0" xMax="924" yMax="1165">
      <contour>
        <pt x="330" y="472" on="1"/>
        <pt x="330" y="0" on="1"/>
        <pt x="128" y="0" on="1"/>
        <pt x="128" y="1165" on="1"/>
        <pt x="517" y="1165" on="1"/>
        <pt x="695" y="1165" on="0"/>
        <pt x="896" y="985" on="0"/>
        <pt x="896" y="824" on="1"/>
        <pt x="896" y="731" on="0"/>
        <pt x="808" y="595" on="0"/>
        <pt x="724" y="556" on="1"/>
        <pt x="818" y="527" on="0"/>
        <pt x="902" y="384" on="0"/>
        <pt x="902" y="279" on="1"/>
        <pt x="902" y="172" on="1"/>
        <pt x="902" y="128" on="0"/>
        <pt x="911" y="38" on="0"/>
        <pt x="924" y="17" on="1"/>
        <pt x="924" y="0" on="1"/>
        <pt x="715" y="0" on="1"/>
        <pt x="705" y="21" on="0"/>
        <pt x="700" y="121" on="0"/>
        <pt x="700" y="173" on="1"/>
        <pt x="700" y="278" on="1"/>
        <pt x="700" y="370" on="0"/>
        <pt x="614" y="472" on="0"/>
        <pt x="534" y="472" on="1"/>
      </contour>
      <contour>
        <pt x="330" y="626" on="1"/>
        <pt x="517" y="626" on="1"/>
        <pt x="606" y="626" on="0"/>
        <pt x="693" y="724" on="0"/>
        <pt x="693" y="815" on="1"/>
        <pt x="693" y="905" on="0"/>
        <pt x="605" y="1011" on="0"/>
        <pt x="517" y="1011" on="1"/>
        <pt x="330" y="1011" on="1"/>
      </contour>
    </TTGlyph>
    <TTGlyph name="Racute" xMin="141" yMin="0" xMax="1089" yMax="1824">
      <component glyphName="R" x="0" y="0" flags="0x204"/>
      <component glyphName="acute" x="322" y="346" flags="0x4"/>
    </TTGlyph>
    <TTGlyph name="Racute.smcp" xMin="128" yMin="0" xMax="924" yMax="1501">
      <component glyphName="R.smcp" x="0" y="0" flags="0x204"/>
      <component glyphName="acute" x="239" y="23" flags="0x4"/>
    </TTGlyph>
    <TTGlyph name="Rcaron" xMin="141" yMin="0" xMax="1089" yMax="1859">
      <component glyphName="R" x="0" y="0" flags="0x204"/>
      <component glyphName="caron" x="136" y="350" flags="0x4"/>
    </TTGlyph>
    <TTGlyph name="Rcaron.smcp" xMin="128" yMin="0" xMax="924" yMax="1536">
      <component glyphName="R.smcp" x="0" y="0" flags="0x204"/>
      <component glyphName="caron" x="53" y="27" flags="0x4"/>
    </TTGlyph>
    <TTGlyph name="Rcommaaccent" xMin="141" yMin="-470" xMax="1089" yMax="1455">
      <component glyphName="R" x="0" y="0" flags="0x204"/>
      <component glyphName="commaaccent" x="329" y="-331" flags="0x4"/>
    </TTGlyph>
    <TTGlyph name="Rcommaaccent.smcp" xMin="128" yMin="-472" xMax="924" yMax="1165">
      <component glyphName="R.smcp" x="0" y="0" flags="0x204"/>
      <component glyphName="commaaccent" x="246" y="-333" flags="0x4"/>
    </TTGlyph>
    <TTGlyph name="Rho" xMin="141" yMin="0" xMax="1055" yMax="1456">
      <component glyphName="P" x="0" y="0" flags="0x204"/>
    </TTGlyph>
    <TTGlyph name="S" xMin="78" yMin="-21" xMax="1010" yMax="1477">
      <contour>
        <pt x="807" y="366" on="1"/>
        <pt x="807" y="469" on="0"/>
        <pt x="691" y="601" on="0"/>
        <pt x="546" y="651" on="1"/>
        <pt x="338" y="714" on="0"/>
        <pt x="116" y="917" on="0"/>
        <pt x="116" y="1084" on="1"/>
        <pt x="116" y="1256" on="0"/>
        <pt x="363" y="1477" on="0"/>
        <pt x="557" y="1477" on="1"/>
        <pt x="759" y="1477" on="0"/>
        <pt x="1006" y="1222" on="0"/>
        <pt x="1002" y="1042" on="1"/>
        <pt x="1000" y="1036" on="1"/>
        <pt x="805" y="1036" on="1"/>
        <pt x="805" y="1163" on="0"/>
        <pt x="674" y="1322" on="0"/>
        <pt x="555" y="1322" on="1"/>
        <pt x="442" y="1322" on="0"/>
        <pt x="319" y="1189" on="0"/>
        <pt x="319" y="1086" on="1"/>
        <pt x="319" y="993" on="0"/>
        <pt x="451" y="866" on="0"/>
        <pt x="603" y="814" on="1"/>
        <pt x="802" y="752" on="0"/>
        <pt x="1010" y="538" on="0"/>
        <pt x="1010" y="368" on="1"/>
        <pt x="1010" y="189" on="0"/>
        <pt x="764" y="-21" on="0"/>
        <pt x="564" y="-21" on="1"/>
        <pt x="369" y="-21" on="0"/>
        <pt x="78" y="210" on="0"/>
        <pt x="83" y="420" on="1"/>
        <pt x="85" y="426" on="1"/>
        <pt x="280" y="426" on="1"/>
        <pt x="280" y="276" on="0"/>
        <pt x="437" y="132" on="0"/>
        <pt x="564" y="132" on="1"/>
        <pt x="678" y="132" on="0"/>
        <pt x="807" y="259" on="0"/>
      </contour>
    </TTGlyph>
    <TTGlyph name="S.smcp" xMin="75" yMin="-17" xMax="893" yMax="1181">
      <contour>
        <pt x="691" y="304" on="1"/>
        <pt x="691" y="376" on="0"/>
        <pt x="598" y="465" on="0"/>
        <pt x="474" y="506" on="1"/>
        <pt x="284" y="559" on="0"/>
        <pt x="111" y="709" on="0"/>
        <pt x="111" y="858" on="1"/>
        <pt x="111" y="1003" on="0"/>
        <pt x="318" y="1181" on="0"/>
        <pt x="494" y="1181" on="1"/>
        <pt x="675" y="1181" on="0"/>
        <pt x="878" y="993" on="0"/>
        <pt x="874" y="826" on="1"/>
        <pt x="872" y="820" on="1"/>
        <pt x="678" y="820" on="1"/>
        <pt x="678" y="914" on="0"/>
        <pt x="585" y="1028" on="0"/>
        <pt x="494" y="1028" on="1"/>
        <pt x="402" y="1028" on="0"/>
        <pt x="313" y="933" on="0"/>
        <pt x="313" y="860" on="1"/>
        <pt x="313" y="785" on="0"/>
        <pt x="400" y="700" on="0"/>
        <pt x="536" y="658" on="1"/>
        <pt x="719" y="605" on="0"/>
        <pt x="893" y="451" on="0"/>
        <pt x="893" y="305" on="1"/>
        <pt x="893" y="155" on="0"/>
        <pt x="674" y="-17" on="0"/>
        <pt x="489" y="-17" on="1"/>
        <pt x="303" y="-17" on="0"/>
        <pt x="75" y="159" on="0"/>
        <pt x="80" y="338" on="1"/>
        <pt x="83" y="344" on="1"/>
        <pt x="277" y="344" on="1"/>
        <pt x="277" y="233" on="0"/>
        <pt x="396" y="135" on="0"/>
        <pt x="489" y="135" on="1"/>
        <pt x="589" y="135" on="0"/>
        <pt x="691" y="229" on="0"/>
      </contour>
    </TTGlyph>
    <TTGlyph name="Sacute" xMin="78" yMin="-21" xMax="1010" yMax="1845">
      <component glyphName="S" x="0" y="0" flags="0x204"/>
      <component glyphName="acute" x="323" y="367" flags="0x4"/>
    </TTGlyph>
    <TTGlyph name="Sacute.smcp" xMin="75" yMin="-17" xMax="893" yMax="1518">
      <component glyphName="S.smcp" x="0" y="0" flags="0x204"/>
      <component glyphName="acute" x="263" y="40" flags="0x4"/>
    </TTGlyph>
    <TTGlyph name="Scaron" xMin="78" yMin="-21" xMax="1010" yMax="1880">
      <component glyphName="S" x="0" y="0" flags="0x204"/>
      <component glyphName="caron" x="137" y="371" flags="0x4"/>
    </TTGlyph>
    <TTGlyph name="Scaron.smcp" xMin="75" yMin="-17" xMax="893" yMax="1553">
      <component glyphName="S.smcp" x="0" y="0" flags="0x204"/>
      <component glyphName="caron" x="77" y="44" flags="0x4"/>
    </TTGlyph>
    <TTGlyph name="Scedilla" xMin="78" yMin="-450" xMax="1010" yMax="1477">
      <component glyphName="S" x="0" y="0" flags="0x204"/>
      <component glyphName="cedilla" x="348" y="-8" flags="0x4"/>
    </TTGlyph>
    <TTGlyph name="Scedilla.smcp" xMin="75" yMin="-447" xMax="893" yMax="1181">
      <component glyphName="S.smcp" x="0" y="0" flags="0x204"/>
      <component glyphName="cedilla" x="281" y="-5" flags="0x4"/>
    </TTGlyph>
    <TTGlyph name="Scircumflex" xMin="78" yMin="-21" xMax="1010" yMax="1875">
      <component glyphName="S" x="0" y="0" flags="0x204"/>
      <component glyphName="circumflex" x="117" y="368" flags="0x4"/>
    </TTGlyph>
    <TTGlyph name="Scircumflex.smcp" xMin="75" yMin="-17" xMax="893" yMax="1548">
      <component glyphName="S.smcp" x="0" y="0" flags="0x204"/>
      <component glyphName="circumflex" x="57" y="41" flags="0x4"/>
    </TTGlyph>
    <TTGlyph name="Sigma" xMin="67" yMin="0" xMax="937" yMax="1456">
      <contour>
        <pt x="674" y="729" on="1"/>
        <pt x="307" y="154" on="1"/>
        <pt x="937" y="154" on="1"/>
        <pt x="937" y="0" on="1"/>
        <pt x="67" y="0" on="1"/>
        <pt x="67" y="126" on="1"/>
        <pt x="459" y="741" on="1"/>
        <pt x="67" y="1329" on="1"/>
        <pt x="67" y="1456" on="1"/>
        <pt x="905" y="1456" on="1"/>
        <pt x="905" y="1301" on="1"/>
        <pt x="312" y="1301" on="1"/>
        <pt x="674" y="756" on="1"/>
      </contour>
    </TTGlyph>
    <TTGlyph name="T" xMin="35" yMin="0" xMax="984" yMax="1456">
      <contour>
        <pt x="984" y="1300" on="1"/>
        <pt x="610" y="1300" on="1"/>
        <pt x="610" y="0" on="1"/>
        <pt x="407" y="0" on="1"/>
        <pt x="407" y="1300" on="1"/>
        <pt x="35" y="1300" on="1"/>
        <pt x="35" y="1456" on="1"/>
        <pt x="984" y="1456" on="1"/>
      </contour>
    </TTGlyph>
    <TTGlyph name="T.smcp" xMin="58" yMin="0" xMax="856" yMax="1165">
      <contour>
        <pt x="856" y="1011" on="1"/>
        <pt x="555" y="1011" on="1"/>
        <pt x="555" y="0" on="1"/>
        <pt x="353" y="0" on="1"/>
        <pt x="353" y="1011" on="1"/>
        <pt x="58" y="1011" on="1"/>
        <pt x="58" y="1165" on="1"/>
        <pt x="856" y="1165" on="1"/>
      </contour>
    </TTGlyph>
    <TTGlyph name="Tau" xMin="35" yMin="0" xMax="984" yMax="1456">
      <component glyphName="T" x="0" y="0" flags="0x204"/>
    </TTGlyph>
    <TTGlyph name="Tbar" xMin="35" yMin="0" xMax="984" yMax="1456">
      <contour>
        <pt x="787" y="805" on="1"/>
        <pt x="610" y="805" on="1"/>
        <pt x="610" y="0" on="1"/>
        <pt x="407" y="0" on="1"/>
        <pt x="407" y="805" on="1"/>
        <pt x="232" y="805" on="1"/>
        <pt x="232" y="946" on="1"/>
        <pt x="407" y="946" on="1"/>
        <pt x="407" y="1300" on="1"/>
        <pt x="35" y="1300" on="1"/>
        <pt x="35" y="1456" on="1"/>
        <pt x="984" y="1456" on="1"/>
        <pt x="984" y="1300" on="1"/>
        <pt x="610" y="1300" on="1"/>
        <pt x="610" y="946" on="1"/>
        <pt x="787" y="946" on="1"/>
      </contour>
    </TTGlyph>
    <TTGlyph name="Tbar.smcp" xMin="58" yMin="0" xMax="856" yMax="1165">
      <component glyphName="T.smcp" x="0" y="0" flags="0x204"/>
      <component glyphName="crossbar" x="40" y="-31" flags="0x4"/>
    </TTGlyph>
    <TTGlyph name="Tcaron" xMin="35" yMin="0" xMax="984" yMax="1856">
      <component glyphName="T" x="0" y="0" flags="0x204"/>
      <component glyphName="caron" x="111" y="347" flags="0x4"/>
    </TTGlyph>
    <TTGlyph name="Tcaron.smcp" xMin="58" yMin="0" xMax="856" yMax="1534">
      <component glyphName="T.smcp" x="0" y="0" flags="0x204"/>
      <component glyphName="caron" x="51" y="25" flags="0x4"/>
    </TTGlyph>
    <TTGlyph name="Tcommaaccent.smcp" xMin="58" yMin="-472" xMax="856" yMax="1165">
      <component glyphName="T.smcp" x="0" y="0" flags="0x204"/>
      <component glyphName="commaaccent" x="244" y="-333" flags="0x4"/>
    </TTGlyph>
    <TTGlyph name="Theta" xMin="90" yMin="-21" xMax="1067" yMax="1477">
      <contour>
        <pt x="794" y="652" on="1"/>
        <pt x="417" y="652" on="1"/>
        <pt x="417" y="806" on="1"/>
        <pt x="794" y="806" on="1"/>
      </contour>
      <contour>
        <pt x="1067" y="527" on="1"/>
        <pt x="1067" y="268" on="0"/>
        <pt x="799" y="-21" on="0"/>
        <pt x="574" y="-21" on="1"/>
        <pt x="352" y="-21" on="0"/>
        <pt x="90" y="268" on="0"/>
        <pt x="90" y="527" on="1"/>
        <pt x="90" y="927" on="1"/>
        <pt x="90" y="1185" on="0"/>
        <pt x="353" y="1477" on="0"/>
        <pt x="574" y="1477" on="1"/>
        <pt x="798" y="1477" on="0"/>
        <pt x="1067" y="1185" on="0"/>
        <pt x="1067" y="927" on="1"/>
      </contour>
      <contour>
        <pt x="865" y="930" on="1"/>
        <pt x="865" y="1120" on="0"/>
        <pt x="713" y="1317" on="0"/>
        <pt x="574" y="1317" on="1"/>
        <pt x="437" y="1317" on="0"/>
        <pt x="291" y="1120" on="0"/>
        <pt x="291" y="930" on="1"/>
        <pt x="291" y="527" on="1"/>
        <pt x="291" y="335" on="0"/>
        <pt x="438" y="137" on="0"/>
        <pt x="574" y="137" on="1"/>
        <pt x="714" y="137" on="0"/>
        <pt x="865" y="334" on="0"/>
        <pt x="865" y="527" on="1"/>
      </contour>
    </TTGlyph>
    <TTGlyph name="Thorn" xMin="133" yMin="0" xMax="981" yMax="1456">
      <contour>
        <pt x="336" y="1456" on="1"/>
        <pt x="336" y="1166" on="1"/>
        <pt x="547" y="1166" on="1"/>
        <pt x="752" y="1166" on="0"/>
        <pt x="981" y="928" on="0"/>
        <pt x="981" y="738" on="1"/>
        <pt x="981" y="546" on="0"/>
        <pt x="752" y="309" on="0"/>
        <pt x="547" y="309" on="1"/>
        <pt x="336" y="309" on="1"/>
        <pt x="336" y="0" on="1"/>
        <pt x="133" y="0" on="1"/>
        <pt x="133" y="1456" on="1"/>
      </contour>
      <contour>
        <pt x="336" y="1011" on="1"/>
        <pt x="336" y="464" on="1"/>
        <pt x="547" y="464" on="1"/>
        <pt x="663" y="464" on="0"/>
        <pt x="778" y="622" on="0"/>
        <pt x="778" y="736" on="1"/>
        <pt x="778" y="851" on="0"/>
        <pt x="663" y="1011" on="0"/>
        <pt x="547" y="1011" on="1"/>
      </contour>
    </TTGlyph>
    <TTGlyph name="U" xMin="117" yMin="-21" xMax="1045" yMax="1456">
      <contour>
        <pt x="1045" y="1456" on="1"/>
        <pt x="1045" y="447" on="1"/>
        <pt x="1045" y="221" on="0"/>
        <pt x="786" y="-21" on="0"/>
        <pt x="577" y="-21" on="1"/>
        <pt x="371" y="-21" on="0"/>
        <pt x="117" y="221" on="0"/>
        <pt x="117" y="447" on="1"/>
        <pt x="117" y="1456" on="1"/>
        <pt x="318" y="1456" on="1"/>
        <pt x="318" y="447" on="1"/>
        <pt x="318" y="291" on="0"/>
        <pt x="458" y="133" on="0"/>
        <pt x="577" y="133" on="1"/>
        <pt x="701" y="133" on="0"/>
        <pt x="843" y="285" on="0"/>
        <pt x="843" y="447" on="1"/>
        <pt x="843" y="1456" on="1"/>
      </contour>
    </TTGlyph>
    <TTGlyph name="U.smcp" xMin="115" yMin="-17" xMax="977" yMax="1165">
      <contour>
        <pt x="977" y="1165" on="1"/>
        <pt x="977" y="401" on="1"/>
        <pt x="977" y="204" on="0"/>
        <pt x="739" y="-17" on="0"/>
        <pt x="546" y="-17" on="1"/>
        <pt x="353" y="-17" on="0"/>
        <pt x="115" y="204" on="0"/>
        <pt x="115" y="401" on="1"/>
        <pt x="115" y="1165" on="1"/>
        <pt x="317" y="1165" on="1"/>
        <pt x="317" y="401" on="1"/>
        <pt x="317" y="275" on="0"/>
        <pt x="441" y="135" on="0"/>
        <pt x="546" y="135" on="1"/>
        <pt x="652" y="135" on="0"/>
        <pt x="775" y="275" on="0"/>
        <pt x="775" y="401" on="1"/>
        <pt x="775" y="1165" on="1"/>
      </contour>
    </TTGlyph>
    <TTGlyph name="Uacute" xMin="117" yMin="-21" xMax="1045" yMax="1824">
      <component glyphName="U" x="0" y="0" flags="0x204"/>
      <component glyphName="acute" x="367" y="346" flags="0x4"/>
    </TTGlyph>
    <TTGlyph name="Uacute.smcp" xMin="115" yMin="-17" xMax="977" yMax="1502">
      <component glyphName="U.smcp" x="0" y="0" flags="0x204"/>
      <component glyphName="acute" x="322" y="24" flags="0x4"/>
    </TTGlyph>
    <TTGlyph name="Ubreve" xMin="117" yMin="-21" xMax="1045" yMax="1872">
      <component glyphName="U" x="0" y="0" flags="0x204"/>
      <component glyphName="breve" x="184" y="416" flags="0x4"/>
    </TTGlyph>
    <TTGlyph name="Ubreve.smcp" xMin="115" yMin="-17" xMax="977" yMax="1550">
      <component glyphName="U.smcp" x="0" y="0" flags="0x204"/>
      <component glyphName="breve" x="139" y="94" flags="0x4"/>
    </TTGlyph>
    <TTGlyph name="Ucircumflex" xMin="117" yMin="-21" xMax="1045" yMax="1854">
      <component glyphName="U" x="0" y="0" flags="0x204"/>
      <component glyphName="circumflex" x="161" y="347" flags="0x4"/>
    </TTGlyph>
    <TTGlyph name="Ucircumflex.smcp" xMin="115" yMin="-17" xMax="977" yMax="1532">
      <component glyphName="U.smcp" x="0" y="0" flags="0x204"/>
      <component glyphName="circumflex" x="116" y="25" flags="0x4"/>
    </TTGlyph>
    <TTGlyph name="Udieresis" xMin="117" yMin="-21" xMax="1045" yMax="1802">
      <component glyphName="U" x="0" y="0" flags="0x204"/>
      <component glyphName="dieresis" x="113" y="346" flags="0x4"/>
    </TTGlyph>
    <TTGlyph name="Udieresis.smcp" xMin="115" yMin="-17" xMax="977" yMax="1480">
      <component glyphName="U.smcp" x="0" y="0" flags="0x204"/>
      <component glyphName="dieresis" x="68" y="24" flags="0x4"/>
    </TTGlyph>
    <TTGlyph name="Ugrave" xMin="117" yMin="-21" xMax="1045" yMax="1827">
      <component glyphName="U" x="0" y="0" flags="0x204"/>
      <component glyphName="grave" x="204" y="350" flags="0x4"/>
    </TTGlyph>
    <TTGlyph name="Ugrave.smcp" xMin="115" yMin="-17" xMax="977" yMax="1505">
      <component glyphName="U.smcp" x="0" y="0" flags="0x204"/>
      <component glyphName="grave" x="159" y="28" flags="0x4"/>
    </TTGlyph>
    <TTGlyph name="Uhorn" xMin="117" yMin="-21" xMax="1397" yMax="1595">
      <contour>
        <pt x="1045" y="1456" on="1"/>
        <pt x="1045" y="1259" on="1"/>
        <pt x="1051" y="1257" on="1"/>
        <pt x="1142" y="1271" on="0"/>
        <pt x="1228" y="1444" on="0"/>
        <pt x="1228" y="1595" on="1"/>
        <pt x="1397" y="1595" on="1"/>
        <pt x="1397" y="1379" on="0"/>
        <pt x="1220" y="1133" on="0"/>
        <pt x="1045" y="1113" on="1"/>
        <pt x="1045" y="447" on="1"/>
        <pt x="1045" y="221" on="0"/>
        <pt x="786" y="-21" on="0"/>
        <pt x="577" y="-21" on="1"/>
        <pt x="371" y="-21" on="0"/>
        <pt x="117" y="221" on="0"/>
        <pt x="117" y="447" on="1"/>
        <pt x="117" y="1456" on="1"/>
        <pt x="318" y="1456" on="1"/>
        <pt x="318" y="447" on="1"/>
        <pt x="318" y="291" on="0"/>
        <pt x="458" y="133" on="0"/>
        <pt x="577" y="133" on="1"/>
        <pt x="701" y="133" on="0"/>
        <pt x="843" y="285" on="0"/>
        <pt x="843" y="447" on="1"/>
        <pt x="843" y="1456" on="1"/>
      </contour>
    </TTGlyph>
    <TTGlyph name="Uhungarumlaut" xMin="117" yMin="-21" xMax="1045" yMax="1867">
      <component glyphName="U" x="0" y="0" flags="0x204"/>
      <component glyphName="hungarumlaut" x="239" y="349" flags="0x4"/>
    </TTGlyph>
    <TTGlyph name="Uhungarumlaut.smcp" xMin="115" yMin="-17" xMax="983" yMax="1545">
      <component glyphName="U.smcp" x="0" y="0" flags="0x204"/>
      <component glyphName="hungarumlaut" x="194" y="27" flags="0x4"/>
    </TTGlyph>
    <TTGlyph name="Umacron" xMin="117" yMin="-21" xMax="1045" yMax="1784">
      <component glyphName="U" x="0" y="0" flags="0x204"/>
      <component glyphName="macron" x="141" y="328" flags="0x4"/>
    </TTGlyph>
    <TTGlyph name="Umacron.smcp" xMin="115" yMin="-17" xMax="977" yMax="1462">
      <component glyphName="U.smcp" x="0" y="0" flags="0x204"/>
      <component glyphName="macron" x="96" y="6" flags="0x4"/>
    </TTGlyph>
    <TTGlyph name="Uogonek" xMin="117" yMin="-413" xMax="1045" yMax="1456">
      <component glyphName="U" x="0" y="0" flags="0x204"/>
      <component glyphName="ogonek" x="332" y="0" flags="0x4"/>
    </TTGlyph>
    <TTGlyph name="Uogonek.smcp" xMin="115" yMin="-413" xMax="977" yMax="1165">
      <component glyphName="U.smcp" x="0" y="0" flags="0x204"/>
      <component glyphName="ogonek" x="301" y="0" flags="0x4"/>
    </TTGlyph>
    <TTGlyph name="Upsilon" xMin="23" yMin="0" xMax="1076" yMax="1456">
      <component glyphName="Y" x="0" y="0" flags="0x204"/>
    </TTGlyph>
    <TTGlyph name="Upsilondieresis" xMin="23" yMin="0" xMax="1076" yMax="1798">
      <component glyphName="Y" x="0" y="0" flags="0x204"/>
      <component glyphName="dieresis" x="84" y="342" flags="0x4"/>
    </TTGlyph>
    <TTGlyph name="Upsilontonos" xMin="-106" yMin="0" xMax="1176" yMax="1633">
      <component glyphName="Y" x="100" y="0" flags="0x4"/>
      <component glyphName="tonos" x="-297" y="0" flags="0x4"/>
    </TTGlyph>
    <TTGlyph name="Uring" xMin="117" yMin="-21" xMax="1045" yMax="1918">
      <component glyphName="U" x="0" y="0" flags="0x204"/>
      <component glyphName="ring" x="272" y="423" flags="0x4"/>
    </TTGlyph>
    <TTGlyph name="Uring.smcp" xMin="115" yMin="-17" xMax="977" yMax="1596">
      <component glyphName="U.smcp" x="0" y="0" flags="0x204"/>
      <component glyphName="ring" x="227" y="101" flags="0x4"/>
    </TTGlyph>
    <TTGlyph name="Utilde" xMin="117" yMin="-21" xMax="1045" yMax="1869">
      <component glyphName="U" x="0" y="0" flags="0x204"/>
      <component glyphName="tilde" x="163" y="354" flags="0x4"/>
    </TTGlyph>
    <TTGlyph name="Utilde.smcp" xMin="115" yMin="-17" xMax="977" yMax="1547">
      <component glyphName="U.smcp" x="0" y="0" flags="0x204"/>
      <component glyphName="tilde" x="118" y="32" flags="0x4"/>
    </TTGlyph>
    <TTGlyph name="V" xMin="24" yMin="0" xMax="1095" yMax="1456">
      <contour>
        <pt x="536" y="322" on="1"/>
        <pt x="556" y="237" on="1"/>
        <pt x="562" y="237" on="1"/>
        <pt x="583" y="321" on="1"/>
        <pt x="880" y="1456" on="1"/>
        <pt x="1095" y="1456" on="1"/>
        <pt x="657" y="0" on="1"/>
        <pt x="461" y="0" on="1"/>
        <pt x="24" y="1456" on="1"/>
        <pt x="240" y="1456" on="1"/>
      </contour>
    </TTGlyph>
    <TTGlyph name="V.smcp" xMin="32" yMin="0" xMax="989" yMax="1165">
      <contour>
        <pt x="495" y="264" on="1"/>
        <pt x="507" y="211" on="1"/>
        <pt x="513" y="211" on="1"/>
        <pt x="525" y="262" on="1"/>
        <pt x="775" y="1165" on="1"/>
        <pt x="989" y="1165" on="1"/>
        <pt x="615" y="0" on="1"/>
        <pt x="406" y="0" on="1"/>
        <pt x="32" y="1165" on="1"/>
        <pt x="247" y="1165" on="1"/>
      </contour>
    </TTGlyph>
    <TTGlyph name="W" xMin="41" yMin="0" xMax="1504" yMax="1456">
      <contour>
        <pt x="1103" y="418" on="1"/>
        <pt x="1109" y="418" on="1"/>
        <pt x="1305" y="1456" on="1"/>
        <pt x="1504" y="1456" on="1"/>
        <pt x="1210" y="0" on="1"/>
        <pt x="1023" y="0" on="1"/>
        <pt x="776" y="1034" on="1"/>
        <pt x="770" y="1034" on="1"/>
        <pt x="521" y="0" on="1"/>
        <pt x="334" y="0" on="1"/>
        <pt x="41" y="1456" on="1"/>
        <pt x="240" y="1456" on="1"/>
        <pt x="437" y="418" on="1"/>
        <pt x="443" y="418" on="1"/>
        <pt x="691" y="1456" on="1"/>
        <pt x="852" y="1456" on="1"/>
      </contour>
    </TTGlyph>
    <TTGlyph name="W.smcp" xMin="52" yMin="0" xMax="1274" yMax="1165">
      <contour>
        <pt x="923" y="378" on="1"/>
        <pt x="929" y="379" on="1"/>
        <pt x="1061" y="1165" on="1"/>
        <pt x="1274" y="1165" on="1"/>
        <pt x="1033" y="0" on="1"/>
        <pt x="839" y="0" on="1"/>
        <pt x="666" y="760" on="1"/>
        <pt x="660" y="760" on="1"/>
        <pt x="488" y="0" on="1"/>
        <pt x="293" y="0" on="1"/>
        <pt x="52" y="1165" on="1"/>
        <pt x="266" y="1165" on="1"/>
        <pt x="398" y="376" on="1"/>
        <pt x="404" y="376" on="1"/>
        <pt x="576" y="1165" on="1"/>
        <pt x="751" y="1165" on="1"/>
      </contour>
    </TTGlyph>
    <TTGlyph name="Wacute" xMin="41" yMin="0" xMax="1504" yMax="1824">
      <component glyphName="W" x="0" y="0" flags="0x204"/>
      <component glyphName="acute" x="558" y="346" flags="0x4"/>
    </TTGlyph>
    <TTGlyph name="Wcircumflex" xMin="41" yMin="0" xMax="1504" yMax="1854">
      <component glyphName="W" x="0" y="0" flags="0x204"/>
      <component glyphName="circumflex" x="352" y="347" flags="0x4"/>
    </TTGlyph>
    <TTGlyph name="Wcircumflex.smcp" xMin="52" yMin="0" xMax="1274" yMax="1531">
      <component glyphName="W.smcp" x="0" y="0" flags="0x204"/>
      <component glyphName="circumflex" x="238" y="24" flags="0x4"/>
    </TTGlyph>
    <TTGlyph name="Wdieresis" xMin="41" yMin="0" xMax="1504" yMax="1802">
      <component glyphName="W" x="0" y="0" flags="0x204"/>
      <component glyphName="dieresis" x="304" y="346" flags="0x4"/>
    </TTGlyph>
    <TTGlyph name="Wgrave" xMin="41" yMin="0" xMax="1504" yMax="1827">
      <component glyphName="W" x="0" y="0" flags="0x204"/>
      <component glyphName="grave" x="395" y="350" flags="0x4"/>
    </TTGlyph>
    <TTGlyph name="X" xMin="48" yMin="0" xMax="1074" yMax="1456">
      <contour>
        <pt x="553" y="888" on="1"/>
        <pt x="559" y="888" on="1"/>
        <pt x="819" y="1456" on="1"/>
        <pt x="1058" y="1456" on="1"/>
        <pt x="679" y="735" on="1"/>
        <pt x="1074" y="0" on="1"/>
        <pt x="831" y="0" on="1"/>
        <pt x="562" y="582" on="1"/>
        <pt x="556" y="582" on="1"/>
        <pt x="288" y="0" on="1"/>
        <pt x="48" y="0" on="1"/>
        <pt x="436" y="735" on="1"/>
        <pt x="58" y="1456" on="1"/>
        <pt x="295" y="1456" on="1"/>
      </contour>
    </TTGlyph>
    <TTGlyph name="X.smcp" xMin="44" yMin="0" xMax="942" yMax="1165">
      <contour>
        <pt x="488" y="733" on="1"/>
        <pt x="494" y="733" on="1"/>
        <pt x="698" y="1165" on="1"/>
        <pt x="934" y="1165" on="1"/>
        <pt x="617" y="588" on="1"/>
        <pt x="942" y="0" on="1"/>
        <pt x="708" y="0" on="1"/>
        <pt x="496" y="442" on="1"/>
        <pt x="490" y="442" on="1"/>
        <pt x="281" y="0" on="1"/>
        <pt x="44" y="0" on="1"/>
        <pt x="370" y="588" on="1"/>
        <pt x="52" y="1165" on="1"/>
        <pt x="287" y="1165" on="1"/>
      </contour>
    </TTGlyph>
    <TTGlyph name="Xi" xMin="100" yMin="0" xMax="911" yMax="1456">
      <contour>
        <pt x="100" y="154" on="1"/>
        <pt x="911" y="154" on="1"/>
        <pt x="911" y="0" on="1"/>
        <pt x="100" y="0" on="1"/>
      </contour>
      <contour>
        <pt x="185" y="817" on="1"/>
        <pt x="823" y="817" on="1"/>
        <pt x="823" y="665" on="1"/>
        <pt x="185" y="665" on="1"/>
      </contour>
      <contour>
        <pt x="111" y="1456" on="1"/>
        <pt x="887" y="1456" on="1"/>
        <pt x="887" y="1301" on="1"/>
        <pt x="111" y="1301" on="1"/>
      </contour>
    </TTGlyph>
    <TTGlyph name="Y" xMin="23" yMin="0" xMax="1076" yMax="1456">
      <contour>
        <pt x="547" y="749" on="1"/>
        <pt x="553" y="749" on="1"/>
        <pt x="851" y="1456" on="1"/>
        <pt x="1076" y="1456" on="1"/>
        <pt x="648" y="524" on="1"/>
        <pt x="648" y="0" on="1"/>
        <pt x="446" y="0" on="1"/>
        <pt x="446" y="537" on="1"/>
        <pt x="23" y="1456" on="1"/>
        <pt x="250" y="1456" on="1"/>
      </contour>
    </TTGlyph>
    <TTGlyph name="Y.smcp" xMin="24" yMin="0" xMax="924" yMax="1165">
      <contour>
        <pt x="471" y="623" on="1"/>
        <pt x="477" y="623" on="1"/>
        <pt x="701" y="1165" on="1"/>
        <pt x="924" y="1165" on="1"/>
        <pt x="573" y="419" on="1"/>
        <pt x="573" y="0" on="1"/>
        <pt x="370" y="0" on="1"/>
        <pt x="370" y="428" on="1"/>
        <pt x="24" y="1165" on="1"/>
        <pt x="246" y="1165" on="1"/>
      </contour>
    </TTGlyph>
    <TTGlyph name="Yacute" xMin="23" yMin="0" xMax="1076" yMax="1820">
      <component glyphName="Y" x="0" y="0" flags="0x204"/>
      <component glyphName="acute" x="338" y="342" flags="0x4"/>
    </TTGlyph>
    <TTGlyph name="Yacute.smcp" xMin="24" yMin="0" xMax="924" yMax="1498">
      <component glyphName="Y.smcp" x="0" y="0" flags="0x204"/>
      <component glyphName="acute" x="258" y="20" flags="0x4"/>
    </TTGlyph>
    <TTGlyph name="Ycircumflex" xMin="23" yMin="0" xMax="1076" yMax="1850">
      <component glyphName="Y" x="0" y="0" flags="0x204"/>
      <component glyphName="circumflex" x="132" y="343" flags="0x4"/>
    </TTGlyph>
    <TTGlyph name="Ycircumflex.smcp" xMin="24" yMin="0" xMax="924" yMax="1528">
      <component glyphName="Y.smcp" x="0" y="0" flags="0x204"/>
      <component glyphName="circumflex" x="52" y="21" flags="0x4"/>
    </TTGlyph>
    <TTGlyph name="Ydieresis" xMin="23" yMin="0" xMax="1076" yMax="1798">
      <component glyphName="Y" x="0" y="0" flags="0x204"/>
      <component glyphName="dieresis" x="84" y="342" flags="0x4"/>
    </TTGlyph>
    <TTGlyph name="Ydieresis.smcp" xMin="24" yMin="0" xMax="924" yMax="1476">
      <component glyphName="Y.smcp" x="0" y="0" flags="0x204"/>
      <component glyphName="dieresis" x="4" y="20" flags="0x4"/>
    </TTGlyph>
    <TTGlyph name="Ygrave" xMin="23" yMin="0" xMax="1076" yMax="1823">
      <component glyphName="Y" x="0" y="0" flags="0x204"/>
      <component glyphName="grave" x="175" y="346" flags="0x4"/>
    </TTGlyph>
    <TTGlyph name="Z" xMin="79" yMin="0" xMax="939" yMax="1456">
      <contour>
        <pt x="295" y="154" on="1"/>
        <pt x="939" y="154" on="1"/>
        <pt x="939" y="0" on="1"/>
        <pt x="79" y="0" on="1"/>
        <pt x="79" y="125" on="1"/>
        <pt x="700" y="1301" on="1"/>
        <pt x="83" y="1301" on="1"/>
        <pt x="83" y="1456" on="1"/>
        <pt x="919" y="1456" on="1"/>
        <pt x="919" y="1335" on="1"/>
      </contour>
    </TTGlyph>
    <TTGlyph name="Z.smcp" xMin="70" yMin="0" xMax="858" yMax="1165">
      <contour>
        <pt x="306" y="152" on="1"/>
        <pt x="858" y="152" on="1"/>
        <pt x="858" y="0" on="1"/>
        <pt x="70" y="0" on="1"/>
        <pt x="70" y="103" on="1"/>
        <pt x="607" y="1011" on="1"/>
        <pt x="97" y="1011" on="1"/>
        <pt x="97" y="1165" on="1"/>
        <pt x="846" y="1165" on="1"/>
        <pt x="846" y="1065" on="1"/>
      </contour>
    </TTGlyph>
    <TTGlyph name="Zacute" xMin="79" yMin="0" xMax="939" yMax="1824">
      <component glyphName="Z" x="0" y="0" flags="0x204"/>
      <component glyphName="acute" x="288" y="346" flags="0x4"/>
    </TTGlyph>
    <TTGlyph name="Zacute.smcp" xMin="70" yMin="0" xMax="858" yMax="1501">
      <component glyphName="Z.smcp" x="0" y="0" flags="0x204"/>
      <component glyphName="acute" x="247" y="23" flags="0x4"/>
    </TTGlyph>
    <TTGlyph name="Zcaron" xMin="79" yMin="0" xMax="939" yMax="1859">
      <component glyphName="Z" x="0" y="0" flags="0x204"/>
      <component glyphName="caron" x="102" y="350" flags="0x4"/>
    </TTGlyph>
    <TTGlyph name="Zcaron.smcp" xMin="70" yMin="0" xMax="858" yMax="1536">
      <component glyphName="Z.smcp" x="0" y="0" flags="0x204"/>
      <component glyphName="caron" x="61" y="27" flags="0x4"/>
    </TTGlyph>
    <TTGlyph name="Zdotaccent" xMin="79" yMin="0" xMax="939" yMax="1816">
      <component glyphName="Z" x="0" y="0" flags="0x204"/>
      <component glyphName="dotaccent" x="255" y="357" flags="0x4"/>
    </TTGlyph>
    <TTGlyph name="Zdotaccent.smcp" xMin="70" yMin="0" xMax="858" yMax="1493">
      <component glyphName="Z.smcp" x="0" y="0" flags="0x204"/>
      <component glyphName="dotaccent" x="214" y="34" flags="0x4"/>
    </TTGlyph>
    <TTGlyph name="Zeta" xMin="79" yMin="0" xMax="939" yMax="1456">
      <component glyphName="Z" x="0" y="0" flags="0x204"/>
    </TTGlyph>
    <TTGlyph name="a" xMin="84" yMin="-21" xMax="872" yMax="1102">
      <contour>
        <pt x="667" y="0" on="1"/>
        <pt x="656" y="37" on="0"/>
        <pt x="642" y="108" on="0"/>
        <pt x="640" y="144" on="1"/>
        <pt x="595" y="71" on="0"/>
        <pt x="459" y="-21" on="0"/>
        <pt x="376" y="-21" on="1"/>
        <pt x="239" y="-21" on="0"/>
        <pt x="84" y="152" on="0"/>
        <pt x="84" y="297" on="1"/>
        <pt x="84" y="452" on="0"/>
        <pt x="295" y="629" on="0"/>
        <pt x="486" y="629" on="1"/>
        <pt x="637" y="629" on="1"/>
        <pt x="637" y="740" on="1"/>
        <pt x="637" y="839" on="0"/>
        <pt x="549" y="950" on="0"/>
        <pt x="468" y="950" on="1"/>
        <pt x="395" y="950" on="0"/>
        <pt x="306" y="850" on="0"/>
        <pt x="306" y="775" on="1"/>
        <pt x="113" y="776" on="1"/>
        <pt x="110" y="782" on="1"/>
        <pt x="105" y="907" on="0"/>
        <pt x="315" y="1102" on="0"/>
        <pt x="481" y="1102" on="1"/>
        <pt x="641" y="1102" on="0"/>
        <pt x="840" y="913" on="0"/>
        <pt x="840" y="738" on="1"/>
        <pt x="840" y="236" on="1"/>
        <pt x="840" y="173" on="0"/>
        <pt x="855" y="56" on="0"/>
        <pt x="872" y="0" on="1"/>
      </contour>
      <contour>
        <pt x="422" y="135" on="1"/>
        <pt x="493" y="135" on="0"/>
        <pt x="610" y="219" on="0"/>
        <pt x="637" y="282" on="1"/>
        <pt x="637" y="503" on="1"/>
        <pt x="483" y="503" on="1"/>
        <pt x="390" y="503" on="0"/>
        <pt x="287" y="384" on="0"/>
        <pt x="287" y="298" on="1"/>
        <pt x="287" y="225" on="0"/>
        <pt x="357" y="135" on="0"/>
      </contour>
    </TTGlyph>
    <TTGlyph name="aacute" xMin="84" yMin="-21" xMax="872" yMax="1502">
      <component glyphName="a" x="0" y="0" flags="0x204"/>
      <component glyphName="acute" x="257" y="24" flags="0x4"/>
    </TTGlyph>
    <TTGlyph name="abreve" xMin="84" yMin="-21" xMax="872" yMax="1550">
      <component glyphName="a" x="0" y="0" flags="0x204"/>
      <component glyphName="breve" x="74" y="94" flags="0x4"/>
    </TTGlyph>
    <TTGlyph name="acircumflex" xMin="84" yMin="-21" xMax="872" yMax="1532">
      <component glyphName="a" x="0" y="0" flags="0x204"/>
      <component glyphName="circumflex" x="51" y="25" flags="0x4"/>
    </TTGlyph>
    <TTGlyph name="acute" xMin="112" yMin="1212" xMax="512" yMax="1478">
      <contour>
        <pt x="284" y="1478" on="1"/>
        <pt x="510" y="1478" on="1"/>
        <pt x="512" y="1473" on="1"/>
        <pt x="274" y="1212" on="1"/>
        <pt x="112" y="1212" on="1"/>
      </contour>
    </TTGlyph>
    <TTGlyph name="acutecomb" xMin="-596" yMin="1210" xMax="-313" yMax="1535">
      <contour>
        <pt x="-484" y="1535" on="1"/>
        <pt x="-313" y="1535" on="1"/>
        <pt x="-473" y="1210" on="1"/>
        <pt x="-596" y="1210" on="1"/>
      </contour>
    </TTGlyph>
    <TTGlyph name="adieresis" xMin="84" yMin="-21" xMax="872" yMax="1480">
      <component glyphName="a" x="0" y="0" flags="0x204"/>
      <component glyphName="dieresis" x="3" y="24" flags="0x4"/>
    </TTGlyph>
    <TTGlyph name="ae" xMin="53" yMin="-21" xMax="1419" yMax="1102">
      <contour>
        <pt x="1068" y="-21" on="1"/>
        <pt x="956" y="-21" on="0"/>
        <pt x="783" y="69" on="0"/>
        <pt x="727" y="153" on="1"/>
        <pt x="678" y="78" on="0"/>
        <pt x="498" y="-21" on="0"/>
        <pt x="373" y="-21" on="1"/>
        <pt x="220" y="-21" on="0"/>
        <pt x="53" y="153" on="0"/>
        <pt x="53" y="304" on="1"/>
        <pt x="53" y="462" on="0"/>
        <pt x="258" y="638" on="0"/>
        <pt x="453" y="638" on="1"/>
        <pt x="629" y="638" on="1"/>
        <pt x="629" y="716" on="1"/>
        <pt x="629" y="825" on="0"/>
        <pt x="549" y="946" on="0"/>
        <pt x="475" y="946" on="1"/>
        <pt x="395" y="946" on="0"/>
        <pt x="302" y="837" on="0"/>
        <pt x="302" y="757" on="1"/>
        <pt x="108" y="773" on="1"/>
        <pt x="106" y="779" on="1"/>
        <pt x="101" y="918" on="0"/>
        <pt x="306" y="1102" on="0"/>
        <pt x="476" y="1102" on="1"/>
        <pt x="568" y="1102" on="0"/>
        <pt x="713" y="1035" on="0"/>
        <pt x="760" y="971" on="1"/>
        <pt x="813" y="1034" on="0"/>
        <pt x="956" y="1102" on="0"/>
        <pt x="1041" y="1102" on="1"/>
        <pt x="1220" y="1102" on="0"/>
        <pt x="1419" y="845" on="0"/>
        <pt x="1419" y="623" on="1"/>
        <pt x="1419" y="499" on="1"/>
        <pt x="836" y="499" on="1"/>
        <pt x="837" y="333" on="0"/>
        <pt x="957" y="133" on="0"/>
        <pt x="1082" y="133" on="1"/>
        <pt x="1165" y="133" on="0"/>
        <pt x="1277" y="186" on="0"/>
        <pt x="1340" y="236" on="1"/>
        <pt x="1399" y="104" on="1"/>
        <pt x="1352" y="56" on="0"/>
        <pt x="1180" y="-21" on="0"/>
      </contour>
      <contour>
        <pt x="413" y="127" on="1"/>
        <pt x="470" y="127" on="0"/>
        <pt x="595" y="207" on="0"/>
        <pt x="629" y="259" on="1"/>
        <pt x="629" y="501" on="1"/>
        <pt x="455" y="501" on="1"/>
        <pt x="361" y="501" on="0"/>
        <pt x="256" y="384" on="0"/>
        <pt x="256" y="300" on="1"/>
        <pt x="256" y="220" on="0"/>
        <pt x="334" y="127" on="0"/>
      </contour>
      <contour>
        <pt x="1041" y="946" on="1"/>
        <pt x="950" y="946" on="0"/>
        <pt x="849" y="778" on="0"/>
        <pt x="839" y="639" on="1"/>
        <pt x="1219" y="639" on="1"/>
        <pt x="1219" y="669" on="1"/>
        <pt x="1219" y="793" on="0"/>
        <pt x="1131" y="946" on="0"/>
      </contour>
    </TTGlyph>
    <TTGlyph name="aeacute" xMin="53" yMin="-21" xMax="1419" yMax="1503">
      <component glyphName="ae" x="0" y="0" flags="0x204"/>
      <component glyphName="acute" x="522" y="25" flags="0x4"/>
    </TTGlyph>
    <TTGlyph name="agrave" xMin="84" yMin="-21" xMax="872" yMax="1505">
      <component glyphName="a" x="0" y="0" flags="0x204"/>
      <component glyphName="grave" x="94" y="28" flags="0x4"/>
    </TTGlyph>
    <TTGlyph name="alpha" xMin="80" yMin="-21" xMax="977" yMax="1102">
      <contour>
        <pt x="870" y="1081" on="1"/>
        <pt x="870" y="302" on="1"/>
        <pt x="870" y="212" on="0"/>
        <pt x="903" y="142" on="0"/>
        <pt x="934" y="142" on="1"/>
        <pt x="940" y="142" on="0"/>
        <pt x="951" y="145" on="0"/>
        <pt x="958" y="148" on="1"/>
        <pt x="977" y="6" on="1"/>
        <pt x="951" y="-9" on="0"/>
        <pt x="902" y="-21" on="0"/>
        <pt x="872" y="-21" on="1"/>
        <pt x="802" y="-21" on="0"/>
        <pt x="708" y="54" on="0"/>
        <pt x="686" y="134" on="1"/>
        <pt x="643" y="58" on="0"/>
        <pt x="519" y="-21" on="0"/>
        <pt x="437" y="-21" on="1"/>
        <pt x="268" y="-21" on="0"/>
        <pt x="80" y="268" on="0"/>
        <pt x="80" y="507" on="1"/>
        <pt x="80" y="528" on="1"/>
        <pt x="80" y="788" on="0"/>
        <pt x="268" y="1102" on="0"/>
        <pt x="438" y="1102" on="1"/>
        <pt x="517" y="1102" on="0"/>
        <pt x="637" y="1025" on="0"/>
        <pt x="680" y="952" on="1"/>
        <pt x="696" y="1081" on="1"/>
      </contour>
      <contour>
        <pt x="284" y="507" on="1"/>
        <pt x="284" y="336" on="0"/>
        <pt x="381" y="133" on="0"/>
        <pt x="487" y="133" on="1"/>
        <pt x="550" y="133" on="0"/>
        <pt x="639" y="210" on="0"/>
        <pt x="667" y="281" on="1"/>
        <pt x="667" y="302" on="1"/>
        <pt x="667" y="785" on="1"/>
        <pt x="638" y="860" on="0"/>
        <pt x="551" y="946" on="0"/>
        <pt x="489" y="946" on="1"/>
        <pt x="384" y="946" on="0"/>
        <pt x="284" y="714" on="0"/>
        <pt x="284" y="528" on="1"/>
      </contour>
    </TTGlyph>
    <TTGlyph name="alpha.alt" xMin="80" yMin="-21" xMax="951" yMax="1102">
      <contour>
        <pt x="741" y="196" on="1"/>
        <pt x="695" y="91" on="0"/>
        <pt x="548" y="-21" on="0"/>
        <pt x="443" y="-21" on="1"/>
        <pt x="271" y="-21" on="0"/>
        <pt x="80" y="268" on="0"/>
        <pt x="80" y="507" on="1"/>
        <pt x="80" y="528" on="1"/>
        <pt x="80" y="787" on="0"/>
        <pt x="271" y="1102" on="0"/>
        <pt x="444" y="1102" on="1"/>
        <pt x="546" y="1102" on="0"/>
        <pt x="691" y="991" on="0"/>
        <pt x="737" y="888" on="1"/>
        <pt x="761" y="1082" on="1"/>
        <pt x="945" y="1082" on="1"/>
        <pt x="854" y="540" on="1"/>
        <pt x="951" y="0" on="1"/>
        <pt x="767" y="0" on="1"/>
      </contour>
      <contour>
        <pt x="284" y="507" on="1"/>
        <pt x="284" y="336" on="0"/>
        <pt x="381" y="133" on="0"/>
        <pt x="487" y="133" on="1"/>
        <pt x="579" y="133" on="0"/>
        <pt x="678" y="336" on="0"/>
        <pt x="694" y="502" on="1"/>
        <pt x="694" y="564" on="1"/>
        <pt x="681" y="723" on="0"/>
        <pt x="580" y="946" on="0"/>
        <pt x="489" y="946" on="1"/>
        <pt x="384" y="946" on="0"/>
        <pt x="284" y="714" on="0"/>
        <pt x="284" y="528" on="1"/>
      </contour>
    </TTGlyph>
    <TTGlyph name="alphatonos" xMin="80" yMin="-21" xMax="977" yMax="1606">
      <component glyphName="alpha" x="0" y="0" flags="0x204"/>
      <component glyphName="tonos" x="269" y="-27" flags="0x4"/>
    </TTGlyph>
    <TTGlyph name="amacron" xMin="84" yMin="-21" xMax="872" yMax="1462">
      <component glyphName="a" x="0" y="0" flags="0x204"/>
      <component glyphName="macron" x="31" y="6" flags="0x4"/>
    </TTGlyph>
    <TTGlyph name="ampersand" xMin="67" yMin="-21" xMax="1131" yMax="1477">
      <contour>
        <pt x="67" y="383" on="1"/>
        <pt x="67" y="504" on="0"/>
        <pt x="192" y="689" on="0"/>
        <pt x="315" y="785" on="1"/>
        <pt x="247" y="883" on="0"/>
        <pt x="181" y="1042" on="0"/>
        <pt x="181" y="1125" on="1"/>
        <pt x="181" y="1291" on="0"/>
        <pt x="360" y="1477" on="0"/>
        <pt x="513" y="1477" on="1"/>
        <pt x="652" y="1477" on="0"/>
        <pt x="824" y="1298" on="0"/>
        <pt x="824" y="1169" on="1"/>
        <pt x="824" y="1073" on="0"/>
        <pt x="736" y="929" on="0"/>
        <pt x="655" y="864" on="1"/>
        <pt x="551" y="778" on="1"/>
        <pt x="844" y="385" on="1"/>
        <pt x="850" y="386" on="1"/>
        <pt x="881" y="444" on="0"/>
        <pt x="916" y="591" on="0"/>
        <pt x="916" y="675" on="1"/>
        <pt x="1081" y="675" on="1"/>
        <pt x="1081" y="544" on="0"/>
        <pt x="1017" y="326" on="0"/>
        <pt x="952" y="240" on="1"/>
        <pt x="1131" y="0" on="1"/>
        <pt x="894" y="0" on="1"/>
        <pt x="817" y="104" on="1"/>
        <pt x="742" y="43" on="0"/>
        <pt x="576" y="-21" on="0"/>
        <pt x="484" y="-21" on="1"/>
        <pt x="293" y="-21" on="0"/>
        <pt x="67" y="202" on="0"/>
      </contour>
      <contour>
        <pt x="490" y="133" on="1"/>
        <pt x="552" y="133" on="0"/>
        <pt x="674" y="180" on="0"/>
        <pt x="727" y="225" on="1"/>
        <pt x="407" y="658" on="1"/>
        <pt x="384" y="639" on="1"/>
        <pt x="317" y="567" on="0"/>
        <pt x="272" y="442" on="0"/>
        <pt x="272" y="388" on="1"/>
        <pt x="272" y="278" on="0"/>
        <pt x="388" y="133" on="0"/>
      </contour>
      <contour>
        <pt x="373" y="1127" on="1"/>
        <pt x="373" y="1076" on="0"/>
        <pt x="418" y="967" on="0"/>
        <pt x="462" y="901" on="1"/>
        <pt x="566" y="983" on="1"/>
        <pt x="616" y="1023" on="0"/>
        <pt x="653" y="1111" on="0"/>
        <pt x="653" y="1164" on="1"/>
        <pt x="653" y="1228" on="0"/>
        <pt x="577" y="1321" on="0"/>
        <pt x="513" y="1321" on="1"/>
        <pt x="446" y="1321" on="0"/>
        <pt x="373" y="1210" on="0"/>
      </contour>
    </TTGlyph>
    <TTGlyph name="anoteleia" xMin="143" yMin="606" xMax="348" yMax="820">
      <component glyphName="periodcentered" x="0" y="0" flags="0x4"/>
    </TTGlyph>
    <TTGlyph name="aogonek" xMin="84" yMin="-413" xMax="907" yMax="1102">
      <component glyphName="a" x="0" y="0" flags="0x204"/>
      <component glyphName="ogonek" x="486" y="0" flags="0x4"/>
    </TTGlyph>
    <TTGlyph name="approxequal" xMin="94" yMin="284" xMax="905" yMax="1016">
      <contour>
        <pt x="102" y="866" on="1"/>
        <pt x="142" y="934" on="0"/>
        <pt x="246" y="1012" on="0"/>
        <pt x="302" y="1012" on="1"/>
        <pt x="360" y="1013" on="0"/>
        <pt x="430" y="983" on="0"/>
        <pt x="505" y="939" on="1"/>
        <pt x="573" y="897" on="0"/>
        <pt x="640" y="869" on="0"/>
        <pt x="696" y="869" on="1"/>
        <pt x="750" y="869" on="0"/>
        <pt x="855" y="946" on="0"/>
        <pt x="896" y="1016" on="1"/>
        <pt x="905" y="854" on="1"/>
        <pt x="864" y="785" on="0"/>
        <pt x="760" y="708" on="0"/>
        <pt x="705" y="708" on="1"/>
        <pt x="648" y="708" on="0"/>
        <pt x="579" y="737" on="0"/>
        <pt x="514" y="777" on="1"/>
        <pt x="432" y="824" on="0"/>
        <pt x="367" y="852" on="0"/>
        <pt x="309" y="851" on="1"/>
        <pt x="254" y="851" on="0"/>
        <pt x="150" y="773" on="0"/>
        <pt x="110" y="704" on="1"/>
      </contour>
      <contour>
        <pt x="94" y="447" on="1"/>
        <pt x="134" y="515" on="0"/>
        <pt x="238" y="593" on="0"/>
        <pt x="293" y="593" on="1"/>
        <pt x="352" y="594" on="0"/>
        <pt x="419" y="565" on="0"/>
        <pt x="497" y="520" on="1"/>
        <pt x="568" y="477" on="0"/>
        <pt x="632" y="449" on="0"/>
        <pt x="688" y="449" on="1"/>
        <pt x="742" y="449" on="0"/>
        <pt x="847" y="528" on="0"/>
        <pt x="888" y="597" on="1"/>
        <pt x="896" y="434" on="1"/>
        <pt x="855" y="365" on="0"/>
        <pt x="751" y="288" on="0"/>
        <pt x="696" y="288" on="1"/>
        <pt x="640" y="288" on="0"/>
        <pt x="571" y="317" on="0"/>
        <pt x="505" y="357" on="1"/>
        <pt x="426" y="403" on="0"/>
        <pt x="359" y="432" on="0"/>
        <pt x="300" y="431" on="1"/>
        <pt x="245" y="431" on="0"/>
        <pt x="142" y="353" on="0"/>
        <pt x="101" y="284" on="1"/>
      </contour>
    </TTGlyph>
    <TTGlyph name="aring" xMin="84" yMin="-21" xMax="872" yMax="1596">
      <component glyphName="a" x="0" y="0" flags="0x204"/>
      <component glyphName="ring" x="162" y="101" flags="0x4"/>
    </TTGlyph>
    <TTGlyph name="aringacute" xMin="84" yMin="-21" xMax="872" yMax="1778">
      <component glyphName="a" x="0" y="0" flags="0x204"/>
      <component glyphName="ringacute" x="179" y="86" flags="0x4"/>
    </TTGlyph>
    <TTGlyph name="asciicircum" xMin="53" yMin="729" xMax="703" yMax="1456">
      <contour>
        <pt x="224" y="729" on="1"/>
        <pt x="53" y="729" on="1"/>
        <pt x="306" y="1456" on="1"/>
        <pt x="451" y="1456" on="1"/>
        <pt x="703" y="729" on="1"/>
        <pt x="533" y="729" on="1"/>
        <pt x="390" y="1173" on="1"/>
        <pt x="380" y="1221" on="1"/>
        <pt x="374" y="1221" on="1"/>
        <pt x="364" y="1173" on="1"/>
      </contour>
    </TTGlyph>
    <TTGlyph name="asciitilde" xMin="108" yMin="402" xMax="1057" yMax="803">
      <contour>
        <pt x="1057" y="745" on="1"/>
        <pt x="1057" y="603" on="0"/>
        <pt x="909" y="402" on="0"/>
        <pt x="798" y="402" on="1"/>
        <pt x="725" y="402" on="0"/>
        <pt x="602" y="470" on="0"/>
        <pt x="532" y="544" on="1"/>
        <pt x="485" y="594" on="0"/>
        <pt x="412" y="642" on="0"/>
        <pt x="371" y="642" on="1"/>
        <pt x="320" y="642" on="0"/>
        <pt x="250" y="530" on="0"/>
        <pt x="250" y="446" on="1"/>
        <pt x="108" y="466" on="1"/>
        <pt x="108" y="607" on="0"/>
        <pt x="252" y="803" on="0"/>
        <pt x="365" y="803" on="1"/>
        <pt x="437" y="803" on="0"/>
        <pt x="564" y="732" on="0"/>
        <pt x="633" y="662" on="1"/>
        <pt x="677" y="610" on="0"/>
        <pt x="750" y="564" on="0"/>
        <pt x="791" y="564" on="1"/>
        <pt x="841" y="564" on="0"/>
        <pt x="914" y="680" on="0"/>
        <pt x="914" y="765" on="1"/>
      </contour>
    </TTGlyph>
    <TTGlyph name="asterisk" xMin="32" yMin="610" xMax="772" yMax="1456">
      <contour>
        <pt x="301" y="984" on="1"/>
        <pt x="32" y="1080" on="1"/>
        <pt x="76" y="1220" on="1"/>
        <pt x="344" y="1101" on="1"/>
        <pt x="333" y="1456" on="1"/>
        <pt x="478" y="1456" on="1"/>
        <pt x="466" y="1095" on="1"/>
        <pt x="728" y="1216" on="1"/>
        <pt x="772" y="1075" on="1"/>
        <pt x="498" y="975" on="1"/>
        <pt x="677" y="697" on="1"/>
        <pt x="559" y="610" on="1"/>
        <pt x="397" y="905" on="1"/>
        <pt x="238" y="616" on="1"/>
        <pt x="120" y="700" on="1"/>
      </contour>
    </TTGlyph>
    <TTGlyph name="at" xMin="73" yMin="-453" xMax="1556" yMax="1422">
      <contour>
        <pt x="1542" y="509" on="1"/>
        <pt x="1534" y="293" on="0"/>
        <pt x="1331" y="-21" on="0"/>
        <pt x="1131" y="-21" on="1"/>
        <pt x="1062" y="-21" on="0"/>
        <pt x="964" y="69" on="0"/>
        <pt x="945" y="151" on="1"/>
        <pt x="902" y="65" on="0"/>
        <pt x="780" y="-20" on="0"/>
        <pt x="699" y="-20" on="1"/>
        <pt x="580" y="-20" on="0"/>
        <pt x="453" y="220" on="0"/>
        <pt x="469" y="416" on="1"/>
        <pt x="490" y="671" on="0"/>
        <pt x="698" y="980" on="0"/>
        <pt x="846" y="980" on="1"/>
        <pt x="942" y="980" on="0"/>
        <pt x="1059" y="927" on="0"/>
        <pt x="1129" y="873" on="1"/>
        <pt x="1126" y="870" on="1"/>
        <pt x="1131" y="870" on="1"/>
        <pt x="1085" y="293" on="1"/>
        <pt x="1078" y="178" on="0"/>
        <pt x="1126" y="93" on="0"/>
        <pt x="1165" y="93" on="1"/>
        <pt x="1273" y="93" on="0"/>
        <pt x="1402" y="327" on="0"/>
        <pt x="1410" y="509" on="1"/>
        <pt x="1425" y="885" on="0"/>
        <pt x="1146" y="1305" on="0"/>
        <pt x="852" y="1305" on="1"/>
        <pt x="580" y="1305" on="0"/>
        <pt x="247" y="851" on="0"/>
        <pt x="235" y="478" on="1"/>
        <pt x="219" y="108" on="0"/>
        <pt x="516" y="-333" on="0"/>
        <pt x="793" y="-333" on="1"/>
        <pt x="870" y="-333" on="0"/>
        <pt x="1030" y="-291" on="0"/>
        <pt x="1086" y="-257" on="1"/>
        <pt x="1118" y="-364" on="1"/>
        <pt x="1059" y="-406" on="0"/>
        <pt x="876" y="-453" on="0"/>
        <pt x="789" y="-453" on="1"/>
        <pt x="446" y="-453" on="0"/>
        <pt x="73" y="46" on="0"/>
        <pt x="89" y="478" on="1"/>
        <pt x="105" y="903" on="0"/>
        <pt x="519" y="1422" on="0"/>
        <pt x="856" y="1422" on="1"/>
        <pt x="1196" y="1422" on="0"/>
        <pt x="1556" y="932" on="0"/>
      </contour>
      <contour>
        <pt x="637" y="416" on="1"/>
        <pt x="627" y="274" on="0"/>
        <pt x="684" y="115" on="0"/>
        <pt x="748" y="115" on="1"/>
        <pt x="804" y="115" on="0"/>
        <pt x="896" y="177" on="0"/>
        <pt x="933" y="258" on="1"/>
        <pt x="933" y="265" on="0"/>
        <pt x="933" y="280" on="0"/>
        <pt x="935" y="293" on="1"/>
        <pt x="977" y="829" on="1"/>
        <pt x="953" y="840" on="0"/>
        <pt x="903" y="853" on="0"/>
        <pt x="877" y="853" on="1"/>
        <pt x="771" y="853" on="0"/>
        <pt x="654" y="635" on="0"/>
      </contour>
    </TTGlyph>
    <TTGlyph name="atilde" xMin="84" yMin="-21" xMax="872" yMax="1547">
      <component glyphName="a" x="0" y="0" flags="0x204"/>
      <component glyphName="tilde" x="53" y="32" flags="0x4"/>
    </TTGlyph>
    <TTGlyph name="b" xMin="116" yMin="-21" xMax="917" yMax="1560">
      <contour>
        <pt x="917" y="451" on="1"/>
        <pt x="917" y="236" on="0"/>
        <pt x="731" y="-21" on="0"/>
        <pt x="562" y="-21" on="1"/>
        <pt x="477" y="-21" on="0"/>
        <pt x="350" y="54" on="0"/>
        <pt x="307" y="127" on="1"/>
        <pt x="292" y="0" on="1"/>
        <pt x="116" y="0" on="1"/>
        <pt x="116" y="1560" on="1"/>
        <pt x="319" y="1560" on="1"/>
        <pt x="319" y="968" on="1"/>
        <pt x="361" y="1033" on="0"/>
        <pt x="481" y="1102" on="0"/>
        <pt x="560" y="1102" on="1"/>
        <pt x="731" y="1102" on="0"/>
        <pt x="917" y="827" on="0"/>
        <pt x="917" y="598" on="1"/>
      </contour>
      <contour>
        <pt x="715" y="598" on="1"/>
        <pt x="715" y="754" on="0"/>
        <pt x="616" y="944" on="0"/>
        <pt x="509" y="944" on="1"/>
        <pt x="441" y="944" on="0"/>
        <pt x="346" y="863" on="0"/>
        <pt x="319" y="795" on="1"/>
        <pt x="319" y="275" on="1"/>
        <pt x="346" y="209" on="0"/>
        <pt x="442" y="136" on="0"/>
        <pt x="511" y="136" on="1"/>
        <pt x="618" y="136" on="0"/>
        <pt x="715" y="306" on="0"/>
        <pt x="715" y="451" on="1"/>
      </contour>
    </TTGlyph>
    <TTGlyph name="backslash" xMin="25" yMin="-125" xMax="737" yMax="1456">
      <contour>
        <pt x="25" y="1456" on="1"/>
        <pt x="222" y="1456" on="1"/>
        <pt x="737" y="-125" on="1"/>
        <pt x="540" y="-125" on="1"/>
      </contour>
    </TTGlyph>
    <TTGlyph name="bar" xMin="155" yMin="-270" xMax="292" yMax="1456">
      <contour>
        <pt x="292" y="-270" on="1"/>
        <pt x="155" y="-270" on="1"/>
        <pt x="155" y="1456" on="1"/>
        <pt x="292" y="1456" on="1"/>
      </contour>
    </TTGlyph>
    <TTGlyph name="beta" xMin="135" yMin="-395" xMax="966" yMax="1477">
      <contour>
        <pt x="529" y="1477" on="1"/>
        <pt x="701" y="1477" on="0"/>
        <pt x="909" y="1262" on="0"/>
        <pt x="909" y="1086" on="1"/>
        <pt x="909" y="989" on="0"/>
        <pt x="819" y="828" on="0"/>
        <pt x="741" y="782" on="1"/>
        <pt x="848" y="739" on="0"/>
        <pt x="966" y="544" on="0"/>
        <pt x="966" y="413" on="1"/>
        <pt x="966" y="208" on="0"/>
        <pt x="758" y="-21" on="0"/>
        <pt x="585" y="-21" on="1"/>
        <pt x="518" y="-21" on="0"/>
        <pt x="389" y="20" on="0"/>
        <pt x="338" y="61" on="1"/>
        <pt x="338" y="-395" on="1"/>
        <pt x="135" y="-395" on="1"/>
        <pt x="135" y="1057" on="1"/>
        <pt x="135" y="1235" on="0"/>
        <pt x="365" y="1477" on="0"/>
      </contour>
      <contour>
        <pt x="526" y="845" on="1"/>
        <pt x="619" y="845" on="0"/>
        <pt x="707" y="970" on="0"/>
        <pt x="707" y="1083" on="1"/>
        <pt x="707" y="1180" on="0"/>
        <pt x="613" y="1321" on="0"/>
        <pt x="529" y="1321" on="1"/>
        <pt x="447" y="1321" on="0"/>
        <pt x="338" y="1171" on="0"/>
        <pt x="338" y="1057" on="1"/>
        <pt x="338" y="225" on="1"/>
        <pt x="374" y="181" on="0"/>
        <pt x="482" y="133" on="0"/>
        <pt x="548" y="133" on="1"/>
        <pt x="648" y="133" on="0"/>
        <pt x="762" y="286" on="0"/>
        <pt x="762" y="411" on="1"/>
        <pt x="762" y="533" on="0"/>
        <pt x="657" y="695" on="0"/>
        <pt x="564" y="695" on="1"/>
        <pt x="463" y="695" on="1"/>
        <pt x="463" y="845" on="1"/>
      </contour>
    </TTGlyph>
    <TTGlyph name="braceleft" xMin="55" yMin="-379" xMax="562" yMax="1597">
      <contour>
        <pt x="522" y="-379" on="1"/>
        <pt x="358" y="-324" on="0"/>
        <pt x="219" y="-85" on="0"/>
        <pt x="219" y="85" on="1"/>
        <pt x="219" y="297" on="1"/>
        <pt x="219" y="409" on="0"/>
        <pt x="138" y="535" on="0"/>
        <pt x="55" y="535" on="1"/>
        <pt x="55" y="681" on="1"/>
        <pt x="138" y="681" on="0"/>
        <pt x="219" y="804" on="0"/>
        <pt x="219" y="917" on="1"/>
        <pt x="219" y="1132" on="1"/>
        <pt x="219" y="1303" on="0"/>
        <pt x="358" y="1542" on="0"/>
        <pt x="522" y="1597" on="1"/>
        <pt x="561" y="1483" on="1"/>
        <pt x="478" y="1447" on="0"/>
        <pt x="409" y="1266" on="0"/>
        <pt x="409" y="1132" on="1"/>
        <pt x="409" y="917" on="1"/>
        <pt x="409" y="811" on="0"/>
        <pt x="329" y="650" on="0"/>
        <pt x="248" y="608" on="1"/>
        <pt x="329" y="564" on="0"/>
        <pt x="409" y="402" on="0"/>
        <pt x="409" y="297" on="1"/>
        <pt x="409" y="85" on="1"/>
        <pt x="409" y="-49" on="0"/>
        <pt x="478" y="-227" on="0"/>
        <pt x="562" y="-264" on="1"/>
      </contour>
    </TTGlyph>
    <TTGlyph name="braceright" xMin="30" yMin="-379" xMax="538" yMax="1597">
      <contour>
        <pt x="30" y="-264" on="1"/>
        <pt x="113" y="-227" on="0"/>
        <pt x="185" y="-48" on="0"/>
        <pt x="185" y="85" on="1"/>
        <pt x="185" y="297" on="1"/>
        <pt x="185" y="405" on="0"/>
        <pt x="267" y="566" on="0"/>
        <pt x="352" y="607" on="1"/>
        <pt x="267" y="647" on="0"/>
        <pt x="185" y="808" on="0"/>
        <pt x="185" y="917" on="1"/>
        <pt x="185" y="1132" on="1"/>
        <pt x="185" y="1265" on="0"/>
        <pt x="114" y="1446" on="0"/>
        <pt x="31" y="1483" on="1"/>
        <pt x="71" y="1597" on="1"/>
        <pt x="234" y="1542" on="0"/>
        <pt x="374" y="1303" on="0"/>
        <pt x="374" y="1132" on="1"/>
        <pt x="374" y="917" on="1"/>
        <pt x="374" y="804" on="0"/>
        <pt x="453" y="681" on="0"/>
        <pt x="538" y="681" on="1"/>
        <pt x="538" y="535" on="1"/>
        <pt x="454" y="535" on="0"/>
        <pt x="374" y="409" on="0"/>
        <pt x="374" y="297" on="1"/>
        <pt x="374" y="85" on="1"/>
        <pt x="374" y="-85" on="0"/>
        <pt x="234" y="-324" on="0"/>
        <pt x="71" y="-379" on="1"/>
      </contour>
    </TTGlyph>
    <TTGlyph name="bracketleft" xMin="127" yMin="-319" xMax="480" yMax="1672">
      <contour>
        <pt x="480" y="1519" on="1"/>
        <pt x="332" y="1519" on="1"/>
        <pt x="332" y="-167" on="1"/>
        <pt x="480" y="-167" on="1"/>
        <pt x="480" y="-319" on="1"/>
        <pt x="127" y="-319" on="1"/>
        <pt x="127" y="1672" on="1"/>
        <pt x="480" y="1672" on="1"/>
      </contour>
    </TTGlyph>
    <TTGlyph name="bracketright" xMin="17" yMin="-319" xMax="372" yMax="1672">
      <contour>
        <pt x="17" y="1672" on="1"/>
        <pt x="372" y="1672" on="1"/>
        <pt x="372" y="-319" on="1"/>
        <pt x="17" y="-319" on="1"/>
        <pt x="17" y="-167" on="1"/>
        <pt x="167" y="-167" on="1"/>
        <pt x="167" y="1519" on="1"/>
        <pt x="17" y="1519" on="1"/>
      </contour>
    </TTGlyph>
    <TTGlyph name="breve" xMin="114" yMin="1184" xMax="681" yMax="1456">
      <contour>
        <pt x="675" y="1456" on="1"/>
        <pt x="677" y="1450" on="1"/>
        <pt x="681" y="1332" on="0"/>
        <pt x="528" y="1184" on="0"/>
        <pt x="398" y="1184" on="1"/>
        <pt x="267" y="1184" on="0"/>
        <pt x="114" y="1332" on="0"/>
        <pt x="119" y="1450" on="1"/>
        <pt x="121" y="1456" on="1"/>
        <pt x="272" y="1456" on="1"/>
        <pt x="272" y="1390" on="0"/>
        <pt x="333" y="1306" on="0"/>
        <pt x="398" y="1306" on="1"/>
        <pt x="460" y="1306" on="0"/>
        <pt x="521" y="1390" on="0"/>
        <pt x="521" y="1456" on="1"/>
      </contour>
    </TTGlyph>
    <TTGlyph name="breveacutecomb" xMin="108" yMin="1236" xMax="657" yMax="1669">
      <contour>
        <pt x="650" y="1456" on="1"/>
        <pt x="652" y="1450" on="1"/>
        <pt x="657" y="1356" on="0"/>
        <pt x="508" y="1236" on="0"/>
        <pt x="383" y="1236" on="1"/>
        <pt x="256" y="1236" on="0"/>
        <pt x="108" y="1356" on="0"/>
        <pt x="114" y="1450" on="1"/>
        <pt x="116" y="1456" on="1"/>
        <pt x="266" y="1456" on="1"/>
        <pt x="266" y="1402" on="0"/>
        <pt x="321" y="1336" on="0"/>
        <pt x="383" y="1336" on="1"/>
        <pt x="442" y="1336" on="0"/>
        <pt x="499" y="1403" on="0"/>
        <pt x="499" y="1456" on="1"/>
      </contour>
      <contour>
        <pt x="424" y="1669" on="1"/>
        <pt x="579" y="1669" on="1"/>
        <pt x="436" y="1470" on="1"/>
        <pt x="325" y="1470" on="1"/>
      </contour>
    </TTGlyph>
    <TTGlyph name="brevegravecomb" xMin="97" yMin="1188" xMax="664" yMax="1704">
      <contour>
        <pt x="658" y="1456" on="1"/>
        <pt x="660" y="1450" on="1"/>
        <pt x="664" y="1334" on="0"/>
        <pt x="510" y="1188" on="0"/>
        <pt x="381" y="1188" on="1"/>
        <pt x="251" y="1188" on="0"/>
        <pt x="97" y="1334" on="0"/>
        <pt x="102" y="1450" on="1"/>
        <pt x="104" y="1456" on="1"/>
        <pt x="247" y="1456" on="1"/>
        <pt x="247" y="1392" on="0"/>
        <pt x="312" y="1312" on="0"/>
        <pt x="381" y="1312" on="1"/>
        <pt x="449" y="1312" on="0"/>
        <pt x="514" y="1392" on="0"/>
        <pt x="514" y="1456" on="1"/>
      </contour>
      <contour>
        <pt x="474" y="1491" on="1"/>
        <pt x="313" y="1491" on="1"/>
        <pt x="141" y="1699" on="1"/>
        <pt x="144" y="1704" on="1"/>
        <pt x="346" y="1704" on="1"/>
      </contour>
    </TTGlyph>
    <TTGlyph name="brevehookcomb" xMin="108" yMin="1241" xMax="650" yMax="1815">
      <contour>
        <pt x="643" y="1456" on="1"/>
        <pt x="645" y="1450" on="1"/>
        <pt x="650" y="1358" on="0"/>
        <pt x="504" y="1241" on="0"/>
        <pt x="379" y="1241" on="1"/>
        <pt x="254" y="1241" on="0"/>
        <pt x="108" y="1358" on="0"/>
        <pt x="114" y="1450" on="1"/>
        <pt x="116" y="1456" on="1"/>
        <pt x="264" y="1456" on="1"/>
        <pt x="264" y="1403" on="0"/>
        <pt x="320" y="1338" on="0"/>
        <pt x="379" y="1338" on="1"/>
        <pt x="437" y="1338" on="0"/>
        <pt x="494" y="1404" on="0"/>
        <pt x="494" y="1456" on="1"/>
      </contour>
      <contour>
        <pt x="313" y="1493" on="1"/>
        <pt x="306" y="1607" on="1"/>
        <pt x="367" y="1610" on="0"/>
        <pt x="422" y="1638" on="0"/>
        <pt x="422" y="1670" on="1"/>
        <pt x="422" y="1704" on="0"/>
        <pt x="353" y="1735" on="0"/>
        <pt x="296" y="1735" on="1"/>
        <pt x="301" y="1815" on="1"/>
        <pt x="437" y="1815" on="0"/>
        <pt x="584" y="1738" on="0"/>
        <pt x="584" y="1671" on="1"/>
        <pt x="584" y="1615" on="0"/>
        <pt x="513" y="1557" on="0"/>
        <pt x="459" y="1550" on="1"/>
        <pt x="458" y="1493" on="1"/>
      </contour>
    </TTGlyph>
    <TTGlyph name="brevetildecomb" xMin="108" yMin="1236" xMax="651" yMax="1745">
      <contour>
        <pt x="644" y="1456" on="1"/>
        <pt x="646" y="1450" on="1"/>
        <pt x="651" y="1356" on="0"/>
        <pt x="504" y="1236" on="0"/>
        <pt x="380" y="1236" on="1"/>
        <pt x="255" y="1236" on="0"/>
        <pt x="108" y="1356" on="0"/>
        <pt x="114" y="1450" on="1"/>
        <pt x="116" y="1456" on="1"/>
        <pt x="264" y="1456" on="1"/>
        <pt x="264" y="1402" on="0"/>
        <pt x="319" y="1335" on="0"/>
        <pt x="380" y="1335" on="1"/>
        <pt x="439" y="1335" on="0"/>
        <pt x="495" y="1402" on="0"/>
        <pt x="495" y="1456" on="1"/>
      </contour>
      <contour>
        <pt x="625" y="1721" on="1"/>
        <pt x="625" y="1646" on="0"/>
        <pt x="545" y="1543" on="0"/>
        <pt x="486" y="1543" on="1"/>
        <pt x="438" y="1543" on="0"/>
        <pt x="325" y="1624" on="0"/>
        <pt x="291" y="1624" on="1"/>
        <pt x="264" y="1624" on="0"/>
        <pt x="228" y="1570" on="0"/>
        <pt x="228" y="1530" on="1"/>
        <pt x="142" y="1552" on="1"/>
        <pt x="142" y="1625" on="0"/>
        <pt x="219" y="1730" on="0"/>
        <pt x="280" y="1730" on="1"/>
        <pt x="318" y="1730" on="0"/>
        <pt x="439" y="1649" on="0"/>
        <pt x="475" y="1649" on="1"/>
        <pt x="500" y="1649" on="0"/>
        <pt x="538" y="1704" on="0"/>
        <pt x="538" y="1745" on="1"/>
      </contour>
    </TTGlyph>
    <TTGlyph name="brokenbar" xMin="123" yMin="-270" xMax="313" yMax="1456">
      <contour>
        <pt x="123" y="-270" on="1"/>
        <pt x="123" y="514" on="1"/>
        <pt x="313" y="514" on="1"/>
        <pt x="313" y="-270" on="1"/>
      </contour>
      <contour>
        <pt x="313" y="698" on="1"/>
        <pt x="123" y="698" on="1"/>
        <pt x="123" y="1456" on="1"/>
        <pt x="313" y="1456" on="1"/>
      </contour>
    </TTGlyph>
    <TTGlyph name="bullet" xMin="129" yMin="523" xMax="517" yMax="992">
      <contour>
        <pt x="129" y="793" on="1"/>
        <pt x="129" y="880" on="0"/>
        <pt x="234" y="992" on="0"/>
        <pt x="322" y="992" on="1"/>
        <pt x="411" y="992" on="0"/>
        <pt x="517" y="880" on="0"/>
        <pt x="517" y="793" on="1"/>
        <pt x="517" y="721" on="1"/>
        <pt x="517" y="632" on="0"/>
        <pt x="412" y="523" on="0"/>
        <pt x="324" y="523" on="1"/>
        <pt x="235" y="523" on="0"/>
        <pt x="129" y="632" on="0"/>
        <pt x="129" y="721" on="1"/>
      </contour>
    </TTGlyph>
    <TTGlyph name="c" xMin="75" yMin="-21" xMax="860" yMax="1102">
      <contour>
        <pt x="492" y="133" on="1"/>
        <pt x="568" y="133" on="0"/>
        <pt x="672" y="250" on="0"/>
        <pt x="672" y="348" on="1"/>
        <pt x="854" y="348" on="1"/>
        <pt x="856" y="342" on="1"/>
        <pt x="860" y="189" on="0"/>
        <pt x="645" y="-21" on="0"/>
        <pt x="492" y="-21" on="1"/>
        <pt x="290" y="-21" on="0"/>
        <pt x="75" y="253" on="0"/>
        <pt x="75" y="465" on="1"/>
        <pt x="75" y="614" on="1"/>
        <pt x="75" y="826" on="0"/>
        <pt x="290" y="1102" on="0"/>
        <pt x="491" y="1102" on="1"/>
        <pt x="655" y="1102" on="0"/>
        <pt x="860" y="883" on="0"/>
        <pt x="857" y="709" on="1"/>
        <pt x="854" y="703" on="1"/>
        <pt x="672" y="703" on="1"/>
        <pt x="672" y="811" on="0"/>
        <pt x="573" y="946" on="0"/>
        <pt x="491" y="946" on="1"/>
        <pt x="375" y="946" on="0"/>
        <pt x="278" y="758" on="0"/>
        <pt x="278" y="614" on="1"/>
        <pt x="278" y="465" on="1"/>
        <pt x="278" y="319" on="0"/>
        <pt x="375" y="133" on="0"/>
      </contour>
    </TTGlyph>
    <TTGlyph name="cacute" xMin="75" yMin="-21" xMax="860" yMax="1502">
      <component glyphName="c" x="0" y="0" flags="0x204"/>
      <component glyphName="acute" x="245" y="24" flags="0x4"/>
    </TTGlyph>
    <TTGlyph name="caron" xMin="108" yMin="1252" xMax="693" yMax="1509">
      <contour>
        <pt x="400" y="1359" on="1"/>
        <pt x="512" y="1509" on="1"/>
        <pt x="693" y="1509" on="1"/>
        <pt x="693" y="1492" on="1"/>
        <pt x="467" y="1252" on="1"/>
        <pt x="333" y="1252" on="1"/>
        <pt x="108" y="1491" on="1"/>
        <pt x="108" y="1509" on="1"/>
        <pt x="287" y="1509" on="1"/>
      </contour>
    </TTGlyph>
    <TTGlyph name="ccaron" xMin="75" yMin="-21" xMax="860" yMax="1537">
      <component glyphName="c" x="0" y="0" flags="0x204"/>
      <component glyphName="caron" x="59" y="28" flags="0x4"/>
    </TTGlyph>
    <TTGlyph name="ccedilla" xMin="75" yMin="-447" xMax="860" yMax="1102">
      <component glyphName="c" x="0" y="0" flags="0x204"/>
      <component glyphName="cedilla" x="272" y="-5" flags="0x4"/>
    </TTGlyph>
    <TTGlyph name="ccircumflex" xMin="75" yMin="-21" xMax="860" yMax="1532">
      <component glyphName="c" x="0" y="0" flags="0x204"/>
      <component glyphName="circumflex" x="39" y="25" flags="0x4"/>
    </TTGlyph>
    <TTGlyph name="cedilla" xMin="100" yMin="-442" xMax="395" yMax="2">
      <contour>
        <pt x="276" y="2" on="1"/>
        <pt x="266" y="-56" on="1"/>
        <pt x="322" y="-66" on="0"/>
        <pt x="395" y="-147" on="0"/>
        <pt x="395" y="-228" on="1"/>
        <pt x="395" y="-326" on="0"/>
        <pt x="250" y="-442" on="0"/>
        <pt x="117" y="-442" on="1"/>
        <pt x="111" y="-329" on="1"/>
        <pt x="164" y="-329" on="0"/>
        <pt x="229" y="-279" on="0"/>
        <pt x="229" y="-228" on="1"/>
        <pt x="229" y="-178" on="0"/>
        <pt x="171" y="-139" on="0"/>
        <pt x="100" y="-132" on="1"/>
        <pt x="126" y="2" on="1"/>
      </contour>
    </TTGlyph>
    <TTGlyph name="cent" xMin="97" yMin="-245" xMax="884" yMax="1318">
      <contour>
        <pt x="514" y="133" on="1"/>
        <pt x="590" y="133" on="0"/>
        <pt x="694" y="250" on="0"/>
        <pt x="694" y="348" on="1"/>
        <pt x="877" y="348" on="1"/>
        <pt x="880" y="343" on="1"/>
        <pt x="882" y="210" on="0"/>
        <pt x="715" y="11" on="0"/>
        <pt x="588" y="-14" on="1"/>
        <pt x="588" y="-245" on="1"/>
        <pt x="425" y="-245" on="1"/>
        <pt x="425" y="-13" on="1"/>
        <pt x="265" y="17" on="0"/>
        <pt x="97" y="279" on="0"/>
        <pt x="97" y="465" on="1"/>
        <pt x="97" y="614" on="1"/>
        <pt x="97" y="800" on="0"/>
        <pt x="265" y="1063" on="0"/>
        <pt x="425" y="1094" on="1"/>
        <pt x="425" y="1318" on="1"/>
        <pt x="588" y="1318" on="1"/>
        <pt x="588" y="1095" on="1"/>
        <pt x="722" y="1070" on="0"/>
        <pt x="884" y="859" on="0"/>
        <pt x="884" y="703" on="1"/>
        <pt x="694" y="703" on="1"/>
        <pt x="694" y="811" on="0"/>
        <pt x="595" y="946" on="0"/>
        <pt x="513" y="946" on="1"/>
        <pt x="397" y="946" on="0"/>
        <pt x="300" y="758" on="0"/>
        <pt x="300" y="614" on="1"/>
        <pt x="300" y="465" on="1"/>
        <pt x="300" y="319" on="0"/>
        <pt x="397" y="133" on="0"/>
      </contour>
    </TTGlyph>
    <TTGlyph name="chi" xMin="54" yMin="-431" xMax="929" yMax="1095">
      <contour>
        <pt x="166" y="1095" on="1"/>
        <pt x="283" y="1095" on="0"/>
        <pt x="410" y="939" on="0"/>
        <pt x="446" y="831" on="1"/>
        <pt x="514" y="637" on="1"/>
        <pt x="520" y="637" on="1"/>
        <pt x="705" y="1082" on="1"/>
        <pt x="911" y="1082" on="1"/>
        <pt x="612" y="362" on="1"/>
        <pt x="778" y="-107" on="1"/>
        <pt x="800" y="-179" on="0"/>
        <pt x="851" y="-262" on="0"/>
        <pt x="887" y="-265" on="1"/>
        <pt x="899" y="-265" on="0"/>
        <pt x="916" y="-265" on="0"/>
        <pt x="929" y="-263" on="1"/>
        <pt x="924" y="-419" on="1"/>
        <pt x="906" y="-425" on="0"/>
        <pt x="857" y="-431" on="0"/>
        <pt x="837" y="-431" on="1"/>
        <pt x="741" y="-427" on="0"/>
        <pt x="625" y="-281" on="0"/>
        <pt x="586" y="-146" on="1"/>
        <pt x="504" y="86" on="1"/>
        <pt x="498" y="86" on="1"/>
        <pt x="290" y="-415" on="1"/>
        <pt x="84" y="-415" on="1"/>
        <pt x="406" y="362" on="1"/>
        <pt x="263" y="769" on="1"/>
        <pt x="239" y="844" on="0"/>
        <pt x="163" y="937" on="0"/>
        <pt x="114" y="937" on="1"/>
        <pt x="104" y="937" on="0"/>
        <pt x="73" y="933" on="0"/>
        <pt x="57" y="931" on="1"/>
        <pt x="54" y="1080" on="1"/>
        <pt x="82" y="1086" on="0"/>
        <pt x="138" y="1095" on="0"/>
      </contour>
    </TTGlyph>
    <TTGlyph name="circumflex" xMin="137" yMin="1252" xMax="707" yMax="1507">
      <contour>
        <pt x="707" y="1274" on="1"/>
        <pt x="707" y="1252" on="1"/>
        <pt x="543" y="1252" on="1"/>
        <pt x="420" y="1403" on="1"/>
        <pt x="298" y="1252" on="1"/>
        <pt x="137" y="1252" on="1"/>
        <pt x="137" y="1275" on="1"/>
        <pt x="359" y="1507" on="1"/>
        <pt x="481" y="1507" on="1"/>
      </contour>
    </TTGlyph>
    <TTGlyph name="circumflexacutecomb" xMin="95" yMin="1252" xMax="1008" yMax="1667">
      <contour>
        <pt x="341" y="1505" on="1"/>
        <pt x="507" y="1505" on="1"/>
        <pt x="753" y="1258" on="1"/>
        <pt x="750" y="1252" on="1"/>
        <pt x="559" y="1252" on="1"/>
        <pt x="423" y="1411" on="1"/>
        <pt x="288" y="1252" on="1"/>
        <pt x="97" y="1252" on="1"/>
        <pt x="95" y="1258" on="1"/>
      </contour>
      <contour>
        <pt x="809" y="1667" on="1"/>
        <pt x="1008" y="1667" on="1"/>
        <pt x="833" y="1416" on="1"/>
        <pt x="686" y="1416" on="1"/>
      </contour>
    </TTGlyph>
    <TTGlyph name="circumflexgravecomb" xMin="-162" yMin="1252" xMax="750" yMax="1667">
      <contour>
        <pt x="750" y="1258" on="1"/>
        <pt x="747" y="1252" on="1"/>
        <pt x="556" y="1252" on="1"/>
        <pt x="420" y="1411" on="1"/>
        <pt x="284" y="1252" on="1"/>
        <pt x="93" y="1252" on="1"/>
        <pt x="91" y="1258" on="1"/>
        <pt x="337" y="1505" on="1"/>
        <pt x="504" y="1505" on="1"/>
      </contour>
      <contour>
        <pt x="158" y="1416" on="1"/>
        <pt x="12" y="1416" on="1"/>
        <pt x="-162" y="1667" on="1"/>
        <pt x="35" y="1667" on="1"/>
      </contour>
    </TTGlyph>
    <TTGlyph name="circumflexhookcomb" xMin="90" yMin="1252" xMax="946" yMax="1727">
      <contour>
        <pt x="750" y="1258" on="1"/>
        <pt x="747" y="1252" on="1"/>
        <pt x="570" y="1252" on="1"/>
        <pt x="420" y="1427" on="1"/>
        <pt x="270" y="1252" on="1"/>
        <pt x="93" y="1252" on="1"/>
        <pt x="90" y="1258" on="1"/>
        <pt x="327" y="1505" on="1"/>
        <pt x="513" y="1505" on="1"/>
      </contour>
      <contour>
        <pt x="708" y="1384" on="1"/>
        <pt x="701" y="1503" on="1"/>
        <pt x="757" y="1507" on="0"/>
        <pt x="804" y="1535" on="0"/>
        <pt x="804" y="1567" on="1"/>
        <pt x="804" y="1603" on="0"/>
        <pt x="744" y="1636" on="0"/>
        <pt x="693" y="1636" on="1"/>
        <pt x="698" y="1727" on="1"/>
        <pt x="817" y="1727" on="0"/>
        <pt x="946" y="1643" on="0"/>
        <pt x="946" y="1570" on="1"/>
        <pt x="946" y="1510" on="0"/>
        <pt x="883" y="1447" on="0"/>
        <pt x="836" y="1440" on="1"/>
        <pt x="835" y="1384" on="1"/>
      </contour>
    </TTGlyph>
    <TTGlyph name="circumflextildecomb" xMin="91" yMin="1254" xMax="745" yMax="1760">
      <contour>
        <pt x="745" y="1260" on="1"/>
        <pt x="743" y="1254" on="1"/>
        <pt x="568" y="1254" on="1"/>
        <pt x="418" y="1420" on="1"/>
        <pt x="268" y="1254" on="1"/>
        <pt x="93" y="1254" on="1"/>
        <pt x="91" y="1260" on="1"/>
        <pt x="336" y="1500" on="1"/>
        <pt x="500" y="1500" on="1"/>
      </contour>
      <contour>
        <pt x="649" y="1735" on="1"/>
        <pt x="649" y="1667" on="0"/>
        <pt x="574" y="1567" on="0"/>
        <pt x="519" y="1567" on="1"/>
        <pt x="475" y="1567" on="0"/>
        <pt x="365" y="1645" on="0"/>
        <pt x="333" y="1645" on="1"/>
        <pt x="309" y="1645" on="0"/>
        <pt x="275" y="1587" on="0"/>
        <pt x="275" y="1550" on="1"/>
        <pt x="195" y="1571" on="1"/>
        <pt x="195" y="1639" on="0"/>
        <pt x="268" y="1744" on="0"/>
        <pt x="323" y="1744" on="1"/>
        <pt x="358" y="1744" on="0"/>
        <pt x="476" y="1668" on="0"/>
        <pt x="509" y="1668" on="1"/>
        <pt x="532" y="1668" on="0"/>
        <pt x="567" y="1723" on="0"/>
        <pt x="567" y="1760" on="1"/>
      </contour>
    </TTGlyph>
    <TTGlyph name="colon" xMin="137" yMin="0" xMax="341" yMax="1081">
      <component glyphName="period" x="0" y="0" flags="0x4"/>
      <component glyphName="period" x="0" y="878" flags="0x4"/>
    </TTGlyph>
    <TTGlyph name="comma" xMin="53" yMin="-271" xMax="301" yMax="214">
      <contour>
        <pt x="301" y="24" on="1"/>
        <pt x="174" y="-271" on="1"/>
        <pt x="53" y="-271" on="1"/>
        <pt x="112" y="31" on="1"/>
        <pt x="112" y="214" on="1"/>
        <pt x="301" y="214" on="1"/>
      </contour>
    </TTGlyph>
    <TTGlyph name="commaaccent" xMin="78" yMin="-139" xMax="273" yMax="224">
      <contour>
        <pt x="273" y="85" on="1"/>
        <pt x="169" y="-139" on="1"/>
        <pt x="78" y="-139" on="1"/>
        <pt x="129" y="92" on="1"/>
        <pt x="129" y="224" on="1"/>
        <pt x="273" y="224" on="1"/>
      </contour>
    </TTGlyph>
    <TTGlyph name="commaaccentrotate" xMin="128" yMin="1162" xMax="332" yMax="1552">
      <contour>
        <pt x="128" y="1314" on="1"/>
        <pt x="225" y="1552" on="1"/>
        <pt x="332" y="1552" on="1"/>
        <pt x="307" y="1308" on="1"/>
        <pt x="307" y="1162" on="1"/>
        <pt x="128" y="1162" on="1"/>
      </contour>
    </TTGlyph>
    <TTGlyph name="copyright" xMin="88" yMin="-21" xMax="1343" yMax="1476">
      <contour>
        <pt x="989" y="596" on="1"/>
        <pt x="992" y="590" on="1"/>
        <pt x="995" y="440" on="0"/>
        <pt x="841" y="282" on="0"/>
        <pt x="704" y="282" on="1"/>
        <pt x="563" y="282" on="0"/>
        <pt x="397" y="495" on="0"/>
        <pt x="397" y="669" on="1"/>
        <pt x="397" y="788" on="1"/>
        <pt x="397" y="961" on="0"/>
        <pt x="563" y="1175" on="0"/>
        <pt x="704" y="1175" on="1"/>
        <pt x="841" y="1175" on="0"/>
        <pt x="996" y="1016" on="0"/>
        <pt x="993" y="867" on="1"/>
        <pt x="990" y="861" on="1"/>
        <pt x="869" y="861" on="1"/>
        <pt x="869" y="963" on="0"/>
        <pt x="785" y="1059" on="0"/>
        <pt x="704" y="1059" on="1"/>
        <pt x="618" y="1059" on="0"/>
        <pt x="525" y="909" on="0"/>
        <pt x="525" y="789" on="1"/>
        <pt x="525" y="669" on="1"/>
        <pt x="525" y="546" on="0"/>
        <pt x="618" y="397" on="0"/>
        <pt x="704" y="397" on="1"/>
        <pt x="786" y="397" on="0"/>
        <pt x="868" y="491" on="0"/>
        <pt x="868" y="596" on="1"/>
      </contour>
      <contour>
        <pt x="190" y="729" on="1"/>
        <pt x="190" y="458" on="0"/>
        <pt x="497" y="86" on="0"/>
        <pt x="715" y="86" on="1"/>
        <pt x="933" y="86" on="0"/>
        <pt x="1240" y="458" on="0"/>
        <pt x="1240" y="729" on="1"/>
        <pt x="1240" y="997" on="0"/>
        <pt x="933" y="1367" on="0"/>
        <pt x="715" y="1367" on="1"/>
        <pt x="496" y="1367" on="0"/>
        <pt x="190" y="997" on="0"/>
      </contour>
      <contour>
        <pt x="88" y="729" on="1"/>
        <pt x="88" y="1044" on="0"/>
        <pt x="453" y="1476" on="0"/>
        <pt x="715" y="1476" on="1"/>
        <pt x="976" y="1476" on="0"/>
        <pt x="1343" y="1044" on="0"/>
        <pt x="1343" y="729" on="1"/>
        <pt x="1343" y="413" on="0"/>
        <pt x="975" y="-21" on="0"/>
        <pt x="715" y="-21" on="1"/>
        <pt x="454" y="-21" on="0"/>
        <pt x="88" y="413" on="0"/>
      </contour>
    </TTGlyph>
    <TTGlyph name="crossbar" xMin="133" yMin="663" xMax="688" yMax="804">
      <contour>
        <pt x="688" y="663" on="1"/>
        <pt x="133" y="663" on="1"/>
        <pt x="133" y="804" on="1"/>
        <pt x="688" y="804" on="1"/>
      </contour>
    </TTGlyph>
    <TTGlyph name="currency" xMin="90" yMin="-27" xMax="1209" yMax="1265">
      <contour>
        <pt x="972" y="112" on="1"/>
        <pt x="904" y="48" on="0"/>
        <pt x="738" y="-20" on="0"/>
        <pt x="648" y="-20" on="1"/>
        <pt x="557" y="-20" on="0"/>
        <pt x="392" y="47" on="0"/>
        <pt x="324" y="110" on="1"/>
        <pt x="206" y="-26" on="1"/>
        <pt x="90" y="92" on="1"/>
        <pt x="219" y="239" on="1"/>
        <pt x="171" y="317" on="0"/>
        <pt x="120" y="505" on="0"/>
        <pt x="120" y="608" on="1"/>
        <pt x="120" y="715" on="0"/>
        <pt x="174" y="907" on="0"/>
        <pt x="226" y="987" on="1"/>
        <pt x="90" y="1144" on="1"/>
        <pt x="206" y="1264" on="1"/>
        <pt x="335" y="1115" on="1"/>
        <pt x="402" y="1172" on="0"/>
        <pt x="561" y="1234" on="0"/>
        <pt x="648" y="1234" on="1"/>
        <pt x="734" y="1234" on="0"/>
        <pt x="893" y="1171" on="0"/>
        <pt x="961" y="1113" on="1"/>
        <pt x="1093" y="1265" on="1"/>
        <pt x="1209" y="1144" on="1"/>
        <pt x="1070" y="984" on="1"/>
        <pt x="1119" y="903" on="0"/>
        <pt x="1173" y="712" on="0"/>
        <pt x="1173" y="608" on="1"/>
        <pt x="1173" y="506" on="0"/>
        <pt x="1123" y="321" on="0"/>
        <pt x="1077" y="243" on="1"/>
        <pt x="1209" y="92" on="1"/>
        <pt x="1093" y="-27" on="1"/>
      </contour>
      <contour>
        <pt x="273" y="608" on="1"/>
        <pt x="273" y="410" on="0"/>
        <pt x="492" y="133" on="0"/>
        <pt x="648" y="133" on="1"/>
        <pt x="802" y="133" on="0"/>
        <pt x="1020" y="410" on="0"/>
        <pt x="1020" y="608" on="1"/>
        <pt x="1020" y="804" on="0"/>
        <pt x="802" y="1080" on="0"/>
        <pt x="648" y="1080" on="1"/>
        <pt x="492" y="1080" on="0"/>
        <pt x="273" y="804" on="0"/>
      </contour>
    </TTGlyph>
    <TTGlyph name="cyrillicbreve" xMin="114" yMin="1184" xMax="681" yMax="1456">
      <component glyphName="breve" x="0" y="0" flags="0x204"/>
    </TTGlyph>
    <TTGlyph name="cyrillichook" xMin="-64" yMin="-437" xMax="340" yMax="174">
      <contour>
        <pt x="340" y="174" on="1"/>
        <pt x="340" y="-74" on="1"/>
        <pt x="340" y="-248" on="0"/>
        <pt x="183" y="-437" on="0"/>
        <pt x="42" y="-437" on="1"/>
        <pt x="12" y="-437" on="0"/>
        <pt x="-36" y="-428" on="0"/>
        <pt x="-64" y="-419" on="1"/>
        <pt x="-53" y="-262" on="1"/>
        <pt x="-37" y="-267" on="0"/>
        <pt x="10" y="-276" on="0"/>
        <pt x="29" y="-276" on="1"/>
        <pt x="80" y="-276" on="0"/>
        <pt x="137" y="-171" on="0"/>
        <pt x="137" y="-74" on="1"/>
        <pt x="137" y="174" on="1"/>
      </contour>
    </TTGlyph>
    <TTGlyph name="cyrillichookleft" xMin="34" yMin="-401" xMax="399" yMax="55">
      <contour>
        <pt x="239" y="55" on="1"/>
        <pt x="319" y="4" on="0"/>
        <pt x="399" y="-133" on="0"/>
        <pt x="399" y="-207" on="1"/>
        <pt x="399" y="-299" on="0"/>
        <pt x="285" y="-401" on="0"/>
        <pt x="197" y="-401" on="1"/>
        <pt x="142" y="-401" on="0"/>
        <pt x="64" y="-376" on="0"/>
        <pt x="34" y="-357" on="1"/>
        <pt x="62" y="-241" on="1"/>
        <pt x="81" y="-252" on="0"/>
        <pt x="126" y="-268" on="0"/>
        <pt x="154" y="-268" on="1"/>
        <pt x="201" y="-268" on="0"/>
        <pt x="238" y="-219" on="0"/>
        <pt x="238" y="-186" on="1"/>
        <pt x="238" y="-136" on="0"/>
        <pt x="188" y="-51" on="0"/>
        <pt x="143" y="0" on="1"/>
      </contour>
    </TTGlyph>
    <TTGlyph name="cyrillictic" xMin="90" yMin="-356" xMax="293" yMax="157">
      <contour>
        <pt x="293" y="-356" on="1"/>
        <pt x="90" y="-356" on="1"/>
        <pt x="90" y="157" on="1"/>
        <pt x="293" y="157" on="1"/>
      </contour>
    </TTGlyph>
    <TTGlyph name="d" xMin="78" yMin="-21" xMax="875" yMax="1560">
      <contour>
        <pt x="78" y="528" on="1"/>
        <pt x="78" y="787" on="0"/>
        <pt x="265" y="1102" on="0"/>
        <pt x="435" y="1102" on="1"/>
        <pt x="511" y="1102" on="0"/>
        <pt x="630" y="1034" on="0"/>
        <pt x="673" y="970" on="1"/>
        <pt x="673" y="1560" on="1"/>
        <pt x="875" y="1560" on="1"/>
        <pt x="875" y="0" on="1"/>
        <pt x="698" y="0" on="1"/>
        <pt x="683" y="124" on="1"/>
        <pt x="640" y="53" on="0"/>
        <pt x="515" y="-21" on="0"/>
        <pt x="434" y="-21" on="1"/>
        <pt x="265" y="-21" on="0"/>
        <pt x="78" y="267" on="0"/>
        <pt x="78" y="507" on="1"/>
      </contour>
      <contour>
        <pt x="281" y="507" on="1"/>
        <pt x="281" y="336" on="0"/>
        <pt x="379" y="136" on="0"/>
        <pt x="485" y="136" on="1"/>
        <pt x="551" y="136" on="0"/>
        <pt x="644" y="208" on="0"/>
        <pt x="673" y="273" on="1"/>
        <pt x="673" y="799" on="1"/>
        <pt x="644" y="866" on="0"/>
        <pt x="551" y="944" on="0"/>
        <pt x="487" y="944" on="1"/>
        <pt x="381" y="944" on="0"/>
        <pt x="281" y="714" on="0"/>
        <pt x="281" y="528" on="1"/>
      </contour>
    </TTGlyph>
    <TTGlyph name="dagger" xMin="61" yMin="0" xMax="899" yMax="1456">
      <contour>
        <pt x="899" y="923" on="1"/>
        <pt x="579" y="923" on="1"/>
        <pt x="579" y="0" on="1"/>
        <pt x="377" y="0" on="1"/>
        <pt x="377" y="923" on="1"/>
        <pt x="61" y="923" on="1"/>
        <pt x="61" y="1082" on="1"/>
        <pt x="377" y="1082" on="1"/>
        <pt x="377" y="1456" on="1"/>
        <pt x="579" y="1456" on="1"/>
        <pt x="579" y="1082" on="1"/>
        <pt x="899" y="1082" on="1"/>
      </contour>
    </TTGlyph>
    <TTGlyph name="daggerdbl" xMin="86" yMin="-416" xMax="923" yMax="1456">
      <contour>
        <pt x="923" y="0" on="1"/>
        <pt x="602" y="0" on="1"/>
        <pt x="602" y="-416" on="1"/>
        <pt x="399" y="-416" on="1"/>
        <pt x="399" y="0" on="1"/>
        <pt x="86" y="0" on="1"/>
        <pt x="86" y="154" on="1"/>
        <pt x="399" y="154" on="1"/>
        <pt x="399" y="925" on="1"/>
        <pt x="86" y="925" on="1"/>
        <pt x="86" y="1082" on="1"/>
        <pt x="399" y="1082" on="1"/>
        <pt x="399" y="1456" on="1"/>
        <pt x="602" y="1456" on="1"/>
        <pt x="602" y="1082" on="1"/>
        <pt x="923" y="1082" on="1"/>
        <pt x="923" y="925" on="1"/>
        <pt x="602" y="925" on="1"/>
        <pt x="602" y="154" on="1"/>
        <pt x="923" y="154" on="1"/>
      </contour>
    </TTGlyph>
    <TTGlyph name="dasiaoxia" xMin="102" yMin="1135" xMax="608" yMax="1477">
      <contour>
        <pt x="346" y="1164" on="1"/>
        <pt x="433" y="1477" on="1"/>
        <pt x="608" y="1477" on="1"/>
        <pt x="608" y="1456" on="1"/>
        <pt x="414" y="1137" on="1"/>
        <pt x="346" y="1137" on="1"/>
      </contour>
      <contour>
        <pt x="102" y="1282" on="1"/>
        <pt x="231" y="1476" on="1"/>
        <pt x="320" y="1476" on="1"/>
        <pt x="252" y="1272" on="1"/>
        <pt x="252" y="1135" on="1"/>
        <pt x="102" y="1135" on="1"/>
      </contour>
    </TTGlyph>
    <TTGlyph name="dcaron" xMin="78" yMin="-21" xMax="1137" yMax="1560">
      <component glyphName="d" x="0" y="0" flags="0x4"/>
      <component glyphName="commaaccent" x="864" y="1335" flags="0x4"/>
    </TTGlyph>
    <TTGlyph name="dcroat" xMin="78" yMin="-21" xMax="1016" yMax="1560">
      <contour>
        <pt x="1016" y="1238" on="1"/>
        <pt x="875" y="1238" on="1"/>
        <pt x="875" y="0" on="1"/>
        <pt x="698" y="0" on="1"/>
        <pt x="683" y="124" on="1"/>
        <pt x="640" y="53" on="0"/>
        <pt x="515" y="-21" on="0"/>
        <pt x="434" y="-21" on="1"/>
        <pt x="265" y="-21" on="0"/>
        <pt x="78" y="267" on="0"/>
        <pt x="78" y="507" on="1"/>
        <pt x="78" y="528" on="1"/>
        <pt x="78" y="787" on="0"/>
        <pt x="265" y="1102" on="0"/>
        <pt x="435" y="1102" on="1"/>
        <pt x="511" y="1102" on="0"/>
        <pt x="630" y="1034" on="0"/>
        <pt x="673" y="970" on="1"/>
        <pt x="673" y="1238" on="1"/>
        <pt x="461" y="1238" on="1"/>
        <pt x="461" y="1379" on="1"/>
        <pt x="673" y="1379" on="1"/>
        <pt x="673" y="1560" on="1"/>
        <pt x="875" y="1560" on="1"/>
        <pt x="875" y="1379" on="1"/>
        <pt x="1016" y="1379" on="1"/>
      </contour>
      <contour>
        <pt x="281" y="507" on="1"/>
        <pt x="281" y="336" on="0"/>
        <pt x="379" y="136" on="0"/>
        <pt x="485" y="136" on="1"/>
        <pt x="551" y="136" on="0"/>
        <pt x="644" y="208" on="0"/>
        <pt x="673" y="273" on="1"/>
        <pt x="673" y="799" on="1"/>
        <pt x="644" y="866" on="0"/>
        <pt x="551" y="944" on="0"/>
        <pt x="487" y="944" on="1"/>
        <pt x="381" y="944" on="0"/>
        <pt x="281" y="714" on="0"/>
        <pt x="281" y="528" on="1"/>
      </contour>
    </TTGlyph>
    <TTGlyph name="degree" xMin="122" yMin="959" xMax="584" yMax="1477">
      <contour>
        <pt x="122" y="1216" on="1"/>
        <pt x="122" y="1322" on="0"/>
        <pt x="259" y="1477" on="0"/>
        <pt x="355" y="1477" on="1"/>
        <pt x="448" y="1477" on="0"/>
        <pt x="584" y="1322" on="0"/>
        <pt x="584" y="1216" on="1"/>
        <pt x="584" y="1108" on="0"/>
        <pt x="449" y="959" on="0"/>
        <pt x="355" y="959" on="1"/>
        <pt x="259" y="959" on="0"/>
        <pt x="122" y="1108" on="0"/>
      </contour>
      <contour>
        <pt x="239" y="1216" on="1"/>
        <pt x="239" y="1157" on="0"/>
        <pt x="306" y="1078" on="0"/>
        <pt x="355" y="1078" on="1"/>
        <pt x="402" y="1078" on="0"/>
        <pt x="467" y="1156" on="0"/>
        <pt x="467" y="1216" on="1"/>
        <pt x="467" y="1276" on="0"/>
        <pt x="402" y="1357" on="0"/>
        <pt x="355" y="1357" on="1"/>
        <pt x="306" y="1357" on="0"/>
        <pt x="239" y="1276" on="0"/>
      </contour>
    </TTGlyph>
    <TTGlyph name="delta" xMin="76" yMin="-21" xMax="918" yMax="1456">
      <contour>
        <pt x="824" y="1456" on="1"/>
        <pt x="824" y="1303" on="1"/>
        <pt x="456" y="1303" on="1"/>
        <pt x="653" y="1137" on="0"/>
        <pt x="918" y="759" on="0"/>
        <pt x="918" y="553" on="1"/>
        <pt x="918" y="526" on="1"/>
        <pt x="918" y="284" on="0"/>
        <pt x="693" y="-21" on="0"/>
        <pt x="498" y="-21" on="1"/>
        <pt x="301" y="-21" on="0"/>
        <pt x="76" y="279" on="0"/>
        <pt x="76" y="518" on="1"/>
        <pt x="76" y="545" on="1"/>
        <pt x="76" y="753" on="0"/>
        <pt x="269" y="1040" on="0"/>
        <pt x="428" y="1061" on="1"/>
        <pt x="431" y="1061" on="0"/>
        <pt x="437" y="1060" on="0"/>
        <pt x="435" y="1059" on="1"/>
        <pt x="438" y="1065" on="1"/>
        <pt x="388" y="1126" on="0"/>
        <pt x="251" y="1261" on="0"/>
        <pt x="179" y="1322" on="1"/>
        <pt x="179" y="1456" on="1"/>
      </contour>
      <contour>
        <pt x="279" y="526" on="1"/>
        <pt x="279" y="353" on="0"/>
        <pt x="387" y="133" on="0"/>
        <pt x="498" y="133" on="1"/>
        <pt x="606" y="133" on="0"/>
        <pt x="715" y="354" on="0"/>
        <pt x="715" y="526" on="1"/>
        <pt x="715" y="553" on="1"/>
        <pt x="715" y="682" on="0"/>
        <pt x="621" y="883" on="0"/>
        <pt x="554" y="934" on="1"/>
        <pt x="540" y="939" on="0"/>
        <pt x="510" y="946" on="0"/>
        <pt x="497" y="946" on="1"/>
        <pt x="387" y="946" on="0"/>
        <pt x="279" y="723" on="0"/>
        <pt x="279" y="553" on="1"/>
      </contour>
    </TTGlyph>
    <TTGlyph name="dieresis" xMin="151" yMin="1271" xMax="787" yMax="1456">
      <contour>
        <pt x="787" y="1271" on="1"/>
        <pt x="580" y="1271" on="1"/>
        <pt x="580" y="1456" on="1"/>
        <pt x="787" y="1456" on="1"/>
      </contour>
      <contour>
        <pt x="359" y="1271" on="1"/>
        <pt x="151" y="1271" on="1"/>
        <pt x="151" y="1456" on="1"/>
        <pt x="359" y="1456" on="1"/>
      </contour>
    </TTGlyph>
    <TTGlyph name="dieresistonos" xMin="141" yMin="1274" xMax="776" yMax="1722">
      <contour>
        <pt x="776" y="1274" on="1"/>
        <pt x="588" y="1274" on="1"/>
        <pt x="588" y="1456" on="1"/>
        <pt x="776" y="1456" on="1"/>
      </contour>
      <contour>
        <pt x="330" y="1274" on="1"/>
        <pt x="141" y="1274" on="1"/>
        <pt x="141" y="1456" on="1"/>
        <pt x="330" y="1456" on="1"/>
      </contour>
      <contour>
        <pt x="437" y="1722" on="1"/>
        <pt x="646" y="1722" on="1"/>
        <pt x="518" y="1472" on="1"/>
        <pt x="400" y="1472" on="1"/>
      </contour>
    </TTGlyph>
    <TTGlyph name="divide" xMin="64" yMin="188" xMax="922" yMax="1190">
      <contour>
        <pt x="922" y="608" on="1"/>
        <pt x="64" y="608" on="1"/>
        <pt x="64" y="779" on="1"/>
        <pt x="922" y="779" on="1"/>
      </contour>
      <contour>
        <pt x="597" y="995" on="1"/>
        <pt x="392" y="995" on="1"/>
        <pt x="392" y="1190" on="1"/>
        <pt x="597" y="1190" on="1"/>
      </contour>
      <contour>
        <pt x="597" y="188" on="1"/>
        <pt x="392" y="188" on="1"/>
        <pt x="392" y="383" on="1"/>
        <pt x="597" y="383" on="1"/>
      </contour>
    </TTGlyph>
    <TTGlyph name="dollar" xMin="93" yMin="-210" xMax="905" yMax="1685">
      <contour>
        <pt x="703" y="370" on="1"/>
        <pt x="703" y="466" on="0"/>
        <pt x="609" y="591" on="0"/>
        <pt x="497" y="645" on="1"/>
        <pt x="318" y="715" on="0"/>
        <pt x="140" y="910" on="0"/>
        <pt x="140" y="1082" on="1"/>
        <pt x="140" y="1245" on="0"/>
        <pt x="312" y="1454" on="0"/>
        <pt x="459" y="1473" on="1"/>
        <pt x="459" y="1685" on="1"/>
        <pt x="590" y="1685" on="1"/>
        <pt x="590" y="1471" on="1"/>
        <pt x="735" y="1447" on="0"/>
        <pt x="901" y="1210" on="0"/>
        <pt x="901" y="1014" on="1"/>
        <pt x="698" y="1014" on="1"/>
        <pt x="698" y="1150" on="0"/>
        <pt x="601" y="1317" on="0"/>
        <pt x="518" y="1317" on="1"/>
        <pt x="431" y="1317" on="0"/>
        <pt x="342" y="1187" on="0"/>
        <pt x="342" y="1084" on="1"/>
        <pt x="342" y="986" on="0"/>
        <pt x="432" y="866" on="0"/>
        <pt x="551" y="809" on="1"/>
        <pt x="730" y="736" on="0"/>
        <pt x="905" y="543" on="0"/>
        <pt x="905" y="372" on="1"/>
        <pt x="905" y="204" on="0"/>
        <pt x="728" y="2" on="0"/>
        <pt x="574" y="-17" on="1"/>
        <pt x="574" y="-210" on="1"/>
        <pt x="444" y="-210" on="1"/>
        <pt x="444" y="-17" on="1"/>
        <pt x="291" y="0" on="0"/>
        <pt x="93" y="218" on="0"/>
        <pt x="93" y="432" on="1"/>
        <pt x="295" y="432" on="1"/>
        <pt x="295" y="274" on="0"/>
        <pt x="416" y="138" on="0"/>
        <pt x="505" y="138" on="1"/>
        <pt x="598" y="138" on="0"/>
        <pt x="703" y="266" on="0"/>
      </contour>
    </TTGlyph>
    <TTGlyph name="dotaccent" xMin="137" yMin="1259" xMax="354" yMax="1459">
      <contour>
        <pt x="354" y="1259" on="1"/>
        <pt x="137" y="1259" on="1"/>
        <pt x="137" y="1459" on="1"/>
        <pt x="354" y="1459" on="1"/>
      </contour>
    </TTGlyph>
    <TTGlyph name="dotbelow" xMin="-610" yMin="-333" xMax="-383" yMax="-133">
      <contour>
        <pt x="-383" y="-333" on="1"/>
        <pt x="-610" y="-333" on="1"/>
        <pt x="-610" y="-133" on="1"/>
        <pt x="-383" y="-133" on="1"/>
      </contour>
    </TTGlyph>
    <TTGlyph name="dotlessi" xMin="129" yMin="0" xMax="332" yMax="1082">
      <contour>
        <pt x="332" y="0" on="1"/>
        <pt x="129" y="0" on="1"/>
        <pt x="129" y="1082" on="1"/>
        <pt x="332" y="1082" on="1"/>
      </contour>
    </TTGlyph>
    <TTGlyph name="e" xMin="82" yMin="-21" xMax="866" yMax="1102">
      <contour>
        <pt x="507" y="-21" on="1"/>
        <pt x="314" y="-21" on="0"/>
        <pt x="82" y="247" on="0"/>
        <pt x="82" y="456" on="1"/>
        <pt x="82" y="614" on="1"/>
        <pt x="82" y="826" on="0"/>
        <pt x="309" y="1102" on="0"/>
        <pt x="484" y="1102" on="1"/>
        <pt x="668" y="1102" on="0"/>
        <pt x="866" y="851" on="0"/>
        <pt x="866" y="639" on="1"/>
        <pt x="866" y="499" on="1"/>
        <pt x="284" y="499" on="1"/>
        <pt x="284" y="456" on="1"/>
        <pt x="284" y="316" on="0"/>
        <pt x="407" y="133" on="0"/>
        <pt x="520" y="133" on="1"/>
        <pt x="604" y="133" on="0"/>
        <pt x="724" y="186" on="0"/>
        <pt x="778" y="237" on="1"/>
        <pt x="842" y="111" on="1"/>
        <pt x="791" y="53" on="0"/>
        <pt x="619" y="-21" on="0"/>
      </contour>
      <contour>
        <pt x="484" y="946" on="1"/>
        <pt x="396" y="946" on="0"/>
        <pt x="290" y="775" on="0"/>
        <pt x="284" y="644" on="1"/>
        <pt x="665" y="644" on="1"/>
        <pt x="665" y="685" on="1"/>
        <pt x="665" y="800" on="0"/>
        <pt x="573" y="946" on="0"/>
      </contour>
    </TTGlyph>
    <TTGlyph name="eacute" xMin="82" yMin="-21" xMax="866" yMax="1503">
      <component glyphName="e" x="0" y="0" flags="0x204"/>
      <component glyphName="acute" x="260" y="25" flags="0x4"/>
    </TTGlyph>
    <TTGlyph name="ebreve" xMin="82" yMin="-21" xMax="866" yMax="1551">
      <component glyphName="e" x="0" y="0" flags="0x204"/>
      <component glyphName="breve" x="77" y="95" flags="0x4"/>
    </TTGlyph>
    <TTGlyph name="ecaron" xMin="82" yMin="-21" xMax="866" yMax="1538">
      <component glyphName="e" x="0" y="0" flags="0x204"/>
      <component glyphName="caron" x="74" y="29" flags="0x4"/>
    </TTGlyph>
    <TTGlyph name="ecircumflex" xMin="82" yMin="-21" xMax="866" yMax="1533">
      <component glyphName="e" x="0" y="0" flags="0x204"/>
      <component glyphName="circumflex" x="54" y="26" flags="0x4"/>
    </TTGlyph>
    <TTGlyph name="edieresis" xMin="82" yMin="-21" xMax="866" yMax="1481">
      <component glyphName="e" x="0" y="0" flags="0x204"/>
      <component glyphName="dieresis" x="6" y="25" flags="0x4"/>
    </TTGlyph>
    <TTGlyph name="edotaccent" xMin="82" yMin="-21" xMax="866" yMax="1495">
      <component glyphName="e" x="0" y="0" flags="0x204"/>
      <component glyphName="dotaccent" x="227" y="36" flags="0x4"/>
    </TTGlyph>
    <TTGlyph name="egrave" xMin="82" yMin="-21" xMax="866" yMax="1506">
      <component glyphName="e" x="0" y="0" flags="0x204"/>
      <component glyphName="grave" x="97" y="29" flags="0x4"/>
    </TTGlyph>
    <TTGlyph name="eight" xMin="89" yMin="-21" xMax="910" yMax="1477">
      <contour>
        <pt x="880" y="1076" on="1"/>
        <pt x="880" y="961" on="0"/>
        <pt x="770" y="788" on="0"/>
        <pt x="676" y="746" on="1"/>
        <pt x="783" y="701" on="0"/>
        <pt x="910" y="514" on="0"/>
        <pt x="910" y="392" on="1"/>
        <pt x="910" y="192" on="0"/>
        <pt x="683" y="-21" on="0"/>
        <pt x="501" y="-21" on="1"/>
        <pt x="316" y="-21" on="0"/>
        <pt x="89" y="192" on="0"/>
        <pt x="89" y="392" on="1"/>
        <pt x="89" y="515" on="0"/>
        <pt x="215" y="702" on="0"/>
        <pt x="323" y="747" on="1"/>
        <pt x="229" y="789" on="0"/>
        <pt x="121" y="962" on="0"/>
        <pt x="121" y="1076" on="1"/>
        <pt x="121" y="1267" on="0"/>
        <pt x="329" y="1477" on="0"/>
        <pt x="499" y="1477" on="1"/>
        <pt x="668" y="1477" on="0"/>
        <pt x="880" y="1267" on="0"/>
      </contour>
      <contour>
        <pt x="708" y="399" on="1"/>
        <pt x="708" y="519" on="0"/>
        <pt x="590" y="670" on="0"/>
        <pt x="499" y="670" on="1"/>
        <pt x="407" y="670" on="0"/>
        <pt x="292" y="520" on="0"/>
        <pt x="292" y="399" on="1"/>
        <pt x="292" y="274" on="0"/>
        <pt x="405" y="133" on="0"/>
        <pt x="501" y="133" on="1"/>
        <pt x="592" y="133" on="0"/>
        <pt x="708" y="275" on="0"/>
      </contour>
      <contour>
        <pt x="676" y="1071" on="1"/>
        <pt x="676" y="1181" on="0"/>
        <pt x="578" y="1321" on="0"/>
        <pt x="499" y="1321" on="1"/>
        <pt x="419" y="1321" on="0"/>
        <pt x="324" y="1186" on="0"/>
        <pt x="324" y="1071" on="1"/>
        <pt x="324" y="958" on="0"/>
        <pt x="420" y="824" on="0"/>
        <pt x="501" y="824" on="1"/>
        <pt x="580" y="824" on="0"/>
        <pt x="676" y="958" on="0"/>
      </contour>
    </TTGlyph>
    <TTGlyph name="eight.lnum" xMin="99" yMin="-21" xMax="951" yMax="1477">
      <contour>
        <pt x="920" y="1076" on="1"/>
        <pt x="920" y="961" on="0"/>
        <pt x="805" y="788" on="0"/>
        <pt x="708" y="746" on="1"/>
        <pt x="819" y="701" on="0"/>
        <pt x="951" y="514" on="0"/>
        <pt x="951" y="392" on="1"/>
        <pt x="951" y="192" on="0"/>
        <pt x="716" y="-21" on="0"/>
        <pt x="527" y="-21" on="1"/>
        <pt x="335" y="-21" on="0"/>
        <pt x="99" y="192" on="0"/>
        <pt x="99" y="392" on="1"/>
        <pt x="99" y="515" on="0"/>
        <pt x="229" y="701" on="0"/>
        <pt x="342" y="746" on="1"/>
        <pt x="242" y="789" on="0"/>
        <pt x="130" y="961" on="0"/>
        <pt x="130" y="1076" on="1"/>
        <pt x="130" y="1267" on="0"/>
        <pt x="347" y="1477" on="0"/>
        <pt x="525" y="1477" on="1"/>
        <pt x="701" y="1477" on="0"/>
        <pt x="920" y="1267" on="0"/>
      </contour>
      <contour>
        <pt x="749" y="399" on="1"/>
        <pt x="749" y="519" on="0"/>
        <pt x="622" y="670" on="0"/>
        <pt x="525" y="670" on="1"/>
        <pt x="425" y="670" on="0"/>
        <pt x="302" y="520" on="0"/>
        <pt x="302" y="399" on="1"/>
        <pt x="302" y="274" on="0"/>
        <pt x="424" y="133" on="0"/>
        <pt x="527" y="133" on="1"/>
        <pt x="625" y="133" on="0"/>
        <pt x="749" y="275" on="0"/>
      </contour>
      <contour>
        <pt x="718" y="1071" on="1"/>
        <pt x="718" y="1181" on="0"/>
        <pt x="610" y="1321" on="0"/>
        <pt x="525" y="1321" on="1"/>
        <pt x="436" y="1321" on="0"/>
        <pt x="332" y="1186" on="0"/>
        <pt x="332" y="1071" on="1"/>
        <pt x="332" y="958" on="0"/>
        <pt x="438" y="824" on="0"/>
        <pt x="527" y="824" on="1"/>
        <pt x="613" y="824" on="0"/>
        <pt x="718" y="958" on="0"/>
      </contour>
    </TTGlyph>
    <TTGlyph name="eight.smcp" xMin="79" yMin="-17" xMax="854" yMax="1181">
      <contour>
        <pt x="824" y="863" on="1"/>
        <pt x="824" y="775" on="0"/>
        <pt x="731" y="640" on="0"/>
        <pt x="652" y="603" on="1"/>
        <pt x="744" y="565" on="0"/>
        <pt x="854" y="419" on="0"/>
        <pt x="854" y="324" on="1"/>
        <pt x="854" y="164" on="0"/>
        <pt x="637" y="-17" on="0"/>
        <pt x="474" y="-17" on="1"/>
        <pt x="304" y="-17" on="0"/>
        <pt x="79" y="164" on="0"/>
        <pt x="79" y="324" on="1"/>
        <pt x="79" y="419" on="0"/>
        <pt x="192" y="565" on="0"/>
        <pt x="288" y="603" on="1"/>
        <pt x="204" y="640" on="0"/>
        <pt x="108" y="775" on="0"/>
        <pt x="108" y="863" on="1"/>
        <pt x="108" y="1014" on="0"/>
        <pt x="314" y="1181" on="0"/>
        <pt x="472" y="1181" on="1"/>
        <pt x="624" y="1181" on="0"/>
        <pt x="824" y="1014" on="0"/>
      </contour>
      <contour>
        <pt x="651" y="331" on="1"/>
        <pt x="651" y="416" on="0"/>
        <pt x="546" y="525" on="0"/>
        <pt x="472" y="525" on="1"/>
        <pt x="392" y="525" on="0"/>
        <pt x="282" y="416" on="0"/>
        <pt x="282" y="331" on="1"/>
        <pt x="282" y="243" on="0"/>
        <pt x="392" y="136" on="0"/>
        <pt x="474" y="136" on="1"/>
        <pt x="548" y="136" on="0"/>
        <pt x="651" y="243" on="0"/>
      </contour>
      <contour>
        <pt x="622" y="855" on="1"/>
        <pt x="622" y="931" on="0"/>
        <pt x="534" y="1027" on="0"/>
        <pt x="472" y="1027" on="1"/>
        <pt x="404" y="1027" on="0"/>
        <pt x="311" y="934" on="0"/>
        <pt x="311" y="855" on="1"/>
        <pt x="311" y="777" on="0"/>
        <pt x="405" y="680" on="0"/>
        <pt x="474" y="680" on="1"/>
        <pt x="535" y="680" on="0"/>
        <pt x="622" y="778" on="0"/>
      </contour>
    </TTGlyph>
    <TTGlyph name="eight.sup" xMin="96" yMin="-11" xMax="667" yMax="812">
      <contour>
        <pt x="647" y="592" on="1"/>
        <pt x="647" y="533" on="0"/>
        <pt x="581" y="441" on="0"/>
        <pt x="525" y="415" on="1"/>
        <pt x="589" y="387" on="0"/>
        <pt x="667" y="287" on="0"/>
        <pt x="667" y="223" on="1"/>
        <pt x="667" y="112" on="0"/>
        <pt x="508" y="-11" on="0"/>
        <pt x="388" y="-11" on="1"/>
        <pt x="262" y="-11" on="0"/>
        <pt x="96" y="113" on="0"/>
        <pt x="96" y="223" on="1"/>
        <pt x="96" y="287" on="0"/>
        <pt x="176" y="388" on="0"/>
        <pt x="244" y="415" on="1"/>
        <pt x="185" y="441" on="0"/>
        <pt x="117" y="533" on="0"/>
        <pt x="117" y="592" on="1"/>
        <pt x="117" y="696" on="0"/>
        <pt x="270" y="812" on="0"/>
        <pt x="387" y="812" on="1"/>
        <pt x="499" y="812" on="0"/>
        <pt x="647" y="697" on="0"/>
      </contour>
      <contour>
        <pt x="511" y="229" on="1"/>
        <pt x="511" y="284" on="0"/>
        <pt x="438" y="354" on="0"/>
        <pt x="387" y="354" on="1"/>
        <pt x="330" y="354" on="0"/>
        <pt x="253" y="284" on="0"/>
        <pt x="253" y="229" on="1"/>
        <pt x="253" y="175" on="0"/>
        <pt x="330" y="110" on="0"/>
        <pt x="388" y="110" on="1"/>
        <pt x="439" y="110" on="0"/>
        <pt x="511" y="175" on="0"/>
      </contour>
      <contour>
        <pt x="489" y="585" on="1"/>
        <pt x="489" y="632" on="0"/>
        <pt x="430" y="689" on="0"/>
        <pt x="387" y="689" on="1"/>
        <pt x="338" y="689" on="0"/>
        <pt x="275" y="634" on="0"/>
        <pt x="275" y="585" on="1"/>
        <pt x="275" y="535" on="0"/>
        <pt x="340" y="475" on="0"/>
        <pt x="388" y="475" on="1"/>
        <pt x="430" y="475" on="0"/>
        <pt x="489" y="535" on="0"/>
      </contour>
    </TTGlyph>
    <TTGlyph name="ellipsis" xMin="142" yMin="0" xMax="1104" yMax="203">
      <component glyphName="period" x="5" y="0" flags="0x4"/>
      <component glyphName="period" x="391" y="0" flags="0x4"/>
      <component glyphName="period" x="763" y="0" flags="0x4"/>
    </TTGlyph>
    <TTGlyph name="emacron" xMin="82" yMin="-21" xMax="866" yMax="1463">
      <component glyphName="e" x="0" y="0" flags="0x204"/>
      <component glyphName="macron" x="34" y="7" flags="0x4"/>
    </TTGlyph>
    <TTGlyph name="emdash" xMin="164" yMin="649" xMax="1294" yMax="804">
      <component glyphName="minus" x="-60" y="0" scalex="1.59997558594" scaley="1.0" flags="0x4"/>
    </TTGlyph>
    <TTGlyph name="endash" xMin="157" yMin="649" xMax="1075" yMax="804">
      <component glyphName="minus" x="-25" y="0" scalex="1.29998779297" scaley="1.0" flags="0x4"/>
    </TTGlyph>
    <TTGlyph name="eng" xMin="114" yMin="-437" xMax="878" yMax="1102">
      <contour>
        <pt x="300" y="1082" on="1"/>
        <pt x="311" y="927" on="1"/>
        <pt x="357" y="1010" on="0"/>
        <pt x="492" y="1102" on="0"/>
        <pt x="577" y="1102" on="1"/>
        <pt x="719" y="1102" on="0"/>
        <pt x="878" y="890" on="0"/>
        <pt x="878" y="666" on="1"/>
        <pt x="878" y="-74" on="1"/>
        <pt x="878" y="-248" on="0"/>
        <pt x="719" y="-437" on="0"/>
        <pt x="579" y="-437" on="1"/>
        <pt x="549" y="-437" on="0"/>
        <pt x="497" y="-428" on="0"/>
        <pt x="469" y="-419" on="1"/>
        <pt x="481" y="-262" on="1"/>
        <pt x="497" y="-267" on="0"/>
        <pt x="547" y="-276" on="0"/>
        <pt x="565" y="-276" on="1"/>
        <pt x="617" y="-276" on="0"/>
        <pt x="675" y="-171" on="0"/>
        <pt x="675" y="-74" on="1"/>
        <pt x="675" y="665" on="1"/>
        <pt x="675" y="818" on="0"/>
        <pt x="591" y="944" on="0"/>
        <pt x="507" y="944" on="1"/>
        <pt x="442" y="944" on="0"/>
        <pt x="347" y="877" on="0"/>
        <pt x="317" y="817" on="1"/>
        <pt x="317" y="0" on="1"/>
        <pt x="114" y="0" on="1"/>
        <pt x="114" y="1082" on="1"/>
      </contour>
    </TTGlyph>
    <TTGlyph name="eogonek" xMin="82" yMin="-358" xMax="866" yMax="1102">
      <component glyphName="e" x="0" y="0" flags="0x204"/>
      <component glyphName="ogonek" x="409" y="55" flags="0x4"/>
    </TTGlyph>
    <TTGlyph name="epsilon" xMin="90" yMin="-19" xMax="885" yMax="1100">
      <contour>
        <pt x="90" y="302" on="1"/>
        <pt x="90" y="395" on="0"/>
        <pt x="182" y="524" on="0"/>
        <pt x="270" y="556" on="1"/>
        <pt x="192" y="591" on="0"/>
        <pt x="106" y="714" on="0"/>
        <pt x="106" y="789" on="1"/>
        <pt x="106" y="937" on="0"/>
        <pt x="316" y="1100" on="0"/>
        <pt x="495" y="1100" on="1"/>
        <pt x="654" y="1100" on="0"/>
        <pt x="871" y="926" on="0"/>
        <pt x="866" y="787" on="1"/>
        <pt x="864" y="781" on="1"/>
        <pt x="670" y="781" on="1"/>
        <pt x="670" y="855" on="0"/>
        <pt x="566" y="950" on="0"/>
        <pt x="488" y="950" on="1"/>
        <pt x="398" y="950" on="0"/>
        <pt x="309" y="854" on="0"/>
        <pt x="309" y="783" on="1"/>
        <pt x="309" y="708" on="0"/>
        <pt x="396" y="622" on="0"/>
        <pt x="484" y="622" on="1"/>
        <pt x="649" y="622" on="1"/>
        <pt x="649" y="481" on="1"/>
        <pt x="484" y="481" on="1"/>
        <pt x="390" y="481" on="0"/>
        <pt x="293" y="395" on="0"/>
        <pt x="293" y="307" on="1"/>
        <pt x="293" y="229" on="0"/>
        <pt x="395" y="129" on="0"/>
        <pt x="488" y="129" on="1"/>
        <pt x="577" y="129" on="0"/>
        <pt x="685" y="237" on="0"/>
        <pt x="685" y="316" on="1"/>
        <pt x="879" y="316" on="1"/>
        <pt x="881" y="310" on="1"/>
        <pt x="885" y="151" on="0"/>
        <pt x="654" y="-19" on="0"/>
        <pt x="495" y="-19" on="1"/>
        <pt x="316" y="-19" on="0"/>
        <pt x="90" y="152" on="0"/>
      </contour>
    </TTGlyph>
    <TTGlyph name="epsilontonos" xMin="90" yMin="-19" xMax="885" yMax="1605">
      <component glyphName="epsilon" x="0" y="0" flags="0x204"/>
      <component glyphName="tonos" x="225" y="-28" flags="0x4"/>
    </TTGlyph>
    <TTGlyph name="equal" xMin="130" yMin="390" xMax="862" yMax="968">
      <contour>
        <pt x="862" y="808" on="1"/>
        <pt x="130" y="808" on="1"/>
        <pt x="130" y="968" on="1"/>
        <pt x="862" y="968" on="1"/>
      </contour>
      <contour>
        <pt x="862" y="390" on="1"/>
        <pt x="130" y="390" on="1"/>
        <pt x="130" y="550" on="1"/>
        <pt x="862" y="550" on="1"/>
      </contour>
    </TTGlyph>
    <TTGlyph name="estimated" xMin="135" yMin="-20" xMax="996" yMax="1102">
      <contour>
        <pt x="891" y="94" on="1"/>
        <pt x="817" y="39" on="0"/>
        <pt x="658" y="-20" on="0"/>
        <pt x="578" y="-20" on="1"/>
        <pt x="393" y="-20" on="0"/>
        <pt x="135" y="309" on="0"/>
        <pt x="135" y="541" on="1"/>
        <pt x="135" y="767" on="0"/>
        <pt x="407" y="1102" on="0"/>
        <pt x="578" y="1102" on="1"/>
        <pt x="753" y="1102" on="0"/>
        <pt x="996" y="792" on="0"/>
        <pt x="996" y="561" on="1"/>
        <pt x="996" y="514" on="1"/>
        <pt x="347" y="514" on="1"/>
        <pt x="347" y="186" on="1"/>
        <pt x="393" y="134" on="0"/>
        <pt x="513" y="76" on="0"/>
        <pt x="578" y="76" on="1"/>
        <pt x="658" y="76" on="0"/>
        <pt x="815" y="136" on="0"/>
        <pt x="889" y="198" on="1"/>
      </contour>
      <contour>
        <pt x="578" y="1008" on="1"/>
        <pt x="515" y="1008" on="0"/>
        <pt x="396" y="943" on="0"/>
        <pt x="347" y="886" on="1"/>
        <pt x="347" y="609" on="1"/>
        <pt x="804" y="609" on="1"/>
        <pt x="804" y="895" on="1"/>
        <pt x="757" y="948" on="0"/>
        <pt x="641" y="1008" on="0"/>
      </contour>
    </TTGlyph>
    <TTGlyph name="eta" xMin="114" yMin="-415" xMax="878" yMax="1102">
      <contour>
        <pt x="300" y="1082" on="1"/>
        <pt x="311" y="927" on="1"/>
        <pt x="357" y="1010" on="0"/>
        <pt x="492" y="1102" on="0"/>
        <pt x="577" y="1102" on="1"/>
        <pt x="721" y="1102" on="0"/>
        <pt x="878" y="895" on="0"/>
        <pt x="878" y="666" on="1"/>
        <pt x="878" y="-415" on="1"/>
        <pt x="675" y="-415" on="1"/>
        <pt x="675" y="665" on="1"/>
        <pt x="675" y="818" on="0"/>
        <pt x="591" y="946" on="0"/>
        <pt x="507" y="946" on="1"/>
        <pt x="442" y="946" on="0"/>
        <pt x="347" y="878" on="0"/>
        <pt x="317" y="818" on="1"/>
        <pt x="317" y="0" on="1"/>
        <pt x="114" y="0" on="1"/>
        <pt x="114" y="1082" on="1"/>
      </contour>
    </TTGlyph>
    <TTGlyph name="etatonos" xMin="114" yMin="-415" xMax="878" yMax="1606">
      <component glyphName="eta" x="0" y="0" flags="0x204"/>
      <component glyphName="tonos" x="231" y="-27" flags="0x4"/>
    </TTGlyph>
    <TTGlyph name="eth" xMin="60" yMin="-21" xMax="942" yMax="1517">
      <contour>
        <pt x="739" y="1291" on="1"/>
        <pt x="836" y="1171" on="0"/>
        <pt x="942" y="841" on="0"/>
        <pt x="942" y="637" on="1"/>
        <pt x="942" y="550" on="1"/>
        <pt x="942" y="299" on="0"/>
        <pt x="688" y="-21" on="0"/>
        <pt x="497" y="-21" on="1"/>
        <pt x="305" y="-21" on="0"/>
        <pt x="60" y="256" on="0"/>
        <pt x="60" y="462" on="1"/>
        <pt x="60" y="692" on="0"/>
        <pt x="289" y="968" on="0"/>
        <pt x="478" y="968" on="1"/>
        <pt x="547" y="968" on="0"/>
        <pt x="669" y="914" on="0"/>
        <pt x="712" y="868" on="1"/>
        <pt x="716" y="872" on="1"/>
        <pt x="700" y="966" on="0"/>
        <pt x="631" y="1124" on="0"/>
        <pt x="583" y="1187" on="1"/>
        <pt x="365" y="1041" on="1"/>
        <pt x="301" y="1135" on="1"/>
        <pt x="503" y="1270" on="1"/>
        <pt x="468" y="1298" on="0"/>
        <pt x="395" y="1343" on="0"/>
        <pt x="358" y="1360" on="1"/>
        <pt x="421" y="1517" on="1"/>
        <pt x="487" y="1492" on="0"/>
        <pt x="608" y="1421" on="0"/>
        <pt x="660" y="1375" on="1"/>
        <pt x="855" y="1505" on="1"/>
        <pt x="918" y="1411" on="1"/>
      </contour>
      <contour>
        <pt x="739" y="639" on="1"/>
        <pt x="739" y="646" on="0"/>
        <pt x="738" y="675" on="0"/>
        <pt x="738" y="682" on="1"/>
        <pt x="708" y="740" on="0"/>
        <pt x="585" y="817" on="0"/>
        <pt x="498" y="817" on="1"/>
        <pt x="388" y="817" on="0"/>
        <pt x="263" y="615" on="0"/>
        <pt x="263" y="462" on="1"/>
        <pt x="263" y="330" on="0"/>
        <pt x="392" y="134" on="0"/>
        <pt x="500" y="134" on="1"/>
        <pt x="608" y="134" on="0"/>
        <pt x="739" y="368" on="0"/>
        <pt x="739" y="550" on="1"/>
      </contour>
    </TTGlyph>
    <TTGlyph name="exclam" xMin="136" yMin="0" xMax="340" yMax="1456">
      <contour>
        <pt x="339" y="485" on="1"/>
        <pt x="136" y="485" on="1"/>
        <pt x="136" y="1456" on="1"/>
        <pt x="339" y="1456" on="1"/>
      </contour>
      <contour>
        <pt x="340" y="0" on="1"/>
        <pt x="136" y="0" on="1"/>
        <pt x="136" y="204" on="1"/>
        <pt x="340" y="204" on="1"/>
      </contour>
    </TTGlyph>
    <TTGlyph name="exclamdbl" xMin="136" yMin="0" xMax="814" yMax="1456">
      <component glyphName="exclam" x="0" y="0" flags="0x4"/>
      <component glyphName="exclam" x="474" y="0" flags="0x4"/>
    </TTGlyph>
    <TTGlyph name="exclamdown" xMin="129" yMin="-374" xMax="334" yMax="1082">
      <contour>
        <pt x="333" y="-374" on="1"/>
        <pt x="130" y="-374" on="1"/>
        <pt x="130" y="596" on="1"/>
        <pt x="333" y="596" on="1"/>
      </contour>
      <contour>
        <pt x="334" y="869" on="1"/>
        <pt x="129" y="869" on="1"/>
        <pt x="129" y="1082" on="1"/>
        <pt x="334" y="1082" on="1"/>
      </contour>
    </TTGlyph>
    <TTGlyph name="f" xMin="47" yMin="0" xMax="629" yMax="1581">
      <contour>
        <pt x="187" y="0" on="1"/>
        <pt x="187" y="937" on="1"/>
        <pt x="47" y="937" on="1"/>
        <pt x="47" y="1082" on="1"/>
        <pt x="187" y="1082" on="1"/>
        <pt x="187" y="1221" on="1"/>
        <pt x="187" y="1393" on="0"/>
        <pt x="352" y="1581" on="0"/>
        <pt x="501" y="1581" on="1"/>
        <pt x="530" y="1581" on="0"/>
        <pt x="591" y="1570" on="0"/>
        <pt x="629" y="1560" on="1"/>
        <pt x="609" y="1411" on="1"/>
        <pt x="592" y="1416" on="0"/>
        <pt x="550" y="1422" on="0"/>
        <pt x="526" y="1422" on="1"/>
        <pt x="459" y="1422" on="0"/>
        <pt x="390" y="1318" on="0"/>
        <pt x="390" y="1221" on="1"/>
        <pt x="390" y="1082" on="1"/>
        <pt x="579" y="1082" on="1"/>
        <pt x="579" y="937" on="1"/>
        <pt x="390" y="937" on="1"/>
        <pt x="390" y="0" on="1"/>
      </contour>
    </TTGlyph>
    <TTGlyph name="fi" xMin="29" yMin="0" xMax="895" yMax="1581">
      <contour>
        <pt x="170" y="0" on="1"/>
        <pt x="170" y="937" on="1"/>
        <pt x="29" y="937" on="1"/>
        <pt x="29" y="1082" on="1"/>
        <pt x="170" y="1082" on="1"/>
        <pt x="170" y="1193" on="1"/>
        <pt x="170" y="1379" on="0"/>
        <pt x="365" y="1581" on="0"/>
        <pt x="539" y="1581" on="1"/>
        <pt x="601" y="1581" on="0"/>
        <pt x="726" y="1550" on="0"/>
        <pt x="799" y="1521" on="1"/>
        <pt x="768" y="1363" on="1"/>
        <pt x="718" y="1385" on="0"/>
        <pt x="614" y="1412" on="0"/>
        <pt x="553" y="1412" on="1"/>
        <pt x="461" y="1412" on="0"/>
        <pt x="373" y="1302" on="0"/>
        <pt x="373" y="1193" on="1"/>
        <pt x="373" y="1082" on="1"/>
        <pt x="556" y="1082" on="1"/>
        <pt x="556" y="937" on="1"/>
        <pt x="373" y="937" on="1"/>
        <pt x="373" y="0" on="1"/>
      </contour>
      <contour>
        <pt x="895" y="0" on="1"/>
        <pt x="692" y="0" on="1"/>
        <pt x="692" y="1082" on="1"/>
        <pt x="895" y="1082" on="1"/>
      </contour>
    </TTGlyph>
    <TTGlyph name="five" xMin="117" yMin="-21" xMax="907" yMax="1456">
      <contour>
        <pt x="140" y="654" on="1"/>
        <pt x="210" y="1456" on="1"/>
        <pt x="863" y="1456" on="1"/>
        <pt x="863" y="1289" on="1"/>
        <pt x="379" y="1289" on="1"/>
        <pt x="341" y="857" on="1"/>
        <pt x="378" y="895" on="0"/>
        <pt x="476" y="944" on="0"/>
        <pt x="539" y="946" on="1"/>
        <pt x="711" y="948" on="0"/>
        <pt x="907" y="689" on="0"/>
        <pt x="907" y="465" on="1"/>
        <pt x="907" y="248" on="0"/>
        <pt x="702" y="-21" on="0"/>
        <pt x="505" y="-21" on="1"/>
        <pt x="341" y="-21" on="0"/>
        <pt x="117" y="187" on="0"/>
        <pt x="121" y="382" on="1"/>
        <pt x="123" y="387" on="1"/>
        <pt x="314" y="391" on="1"/>
        <pt x="314" y="267" on="0"/>
        <pt x="419" y="133" on="0"/>
        <pt x="505" y="133" on="1"/>
        <pt x="604" y="133" on="0"/>
        <pt x="704" y="308" on="0"/>
        <pt x="704" y="463" on="1"/>
        <pt x="704" y="609" on="0"/>
        <pt x="600" y="786" on="0"/>
        <pt x="503" y="786" on="1"/>
        <pt x="417" y="786" on="0"/>
        <pt x="332" y="711" on="0"/>
        <pt x="315" y="637" on="1"/>
      </contour>
    </TTGlyph>
    <TTGlyph name="five.lnum" xMin="126" yMin="-21" xMax="916" yMax="1456">
      <contour>
        <pt x="149" y="654" on="1"/>
        <pt x="219" y="1456" on="1"/>
        <pt x="871" y="1456" on="1"/>
        <pt x="871" y="1289" on="1"/>
        <pt x="387" y="1289" on="1"/>
        <pt x="350" y="857" on="1"/>
        <pt x="387" y="895" on="0"/>
        <pt x="485" y="944" on="0"/>
        <pt x="548" y="946" on="1"/>
        <pt x="720" y="948" on="0"/>
        <pt x="916" y="689" on="0"/>
        <pt x="916" y="465" on="1"/>
        <pt x="916" y="248" on="0"/>
        <pt x="710" y="-21" on="0"/>
        <pt x="514" y="-21" on="1"/>
        <pt x="350" y="-21" on="0"/>
        <pt x="126" y="187" on="0"/>
        <pt x="130" y="382" on="1"/>
        <pt x="132" y="387" on="1"/>
        <pt x="322" y="391" on="1"/>
        <pt x="322" y="267" on="0"/>
        <pt x="428" y="133" on="0"/>
        <pt x="514" y="133" on="1"/>
        <pt x="613" y="133" on="0"/>
        <pt x="713" y="308" on="0"/>
        <pt x="713" y="463" on="1"/>
        <pt x="713" y="609" on="0"/>
        <pt x="609" y="786" on="0"/>
        <pt x="512" y="786" on="1"/>
        <pt x="426" y="786" on="0"/>
        <pt x="341" y="711" on="0"/>
        <pt x="323" y="637" on="1"/>
      </contour>
    </TTGlyph>
    <TTGlyph name="five.smcp" xMin="75" yMin="-17" xMax="829" yMax="1165">
      <contour>
        <pt x="112" y="507" on="1"/>
        <pt x="171" y="1165" on="1"/>
        <pt x="776" y="1165" on="1"/>
        <pt x="776" y="1006" on="1"/>
        <pt x="351" y="1006" on="1"/>
        <pt x="325" y="681" on="1"/>
        <pt x="358" y="709" on="0"/>
        <pt x="449" y="748" on="0"/>
        <pt x="503" y="749" on="1"/>
        <pt x="655" y="752" on="0"/>
        <pt x="829" y="551" on="0"/>
        <pt x="829" y="371" on="1"/>
        <pt x="829" y="193" on="0"/>
        <pt x="643" y="-17" on="0"/>
        <pt x="451" y="-17" on="1"/>
        <pt x="291" y="-17" on="0"/>
        <pt x="75" y="146" on="0"/>
        <pt x="80" y="304" on="1"/>
        <pt x="82" y="309" on="1"/>
        <pt x="276" y="321" on="1"/>
        <pt x="276" y="235" on="0"/>
        <pt x="372" y="136" on="0"/>
        <pt x="451" y="136" on="1"/>
        <pt x="540" y="136" on="0"/>
        <pt x="626" y="260" on="0"/>
        <pt x="626" y="374" on="1"/>
        <pt x="626" y="480" on="0"/>
        <pt x="538" y="604" on="0"/>
        <pt x="460" y="604" on="1"/>
        <pt x="385" y="604" on="0"/>
        <pt x="307" y="545" on="0"/>
        <pt x="291" y="494" on="1"/>
      </contour>
    </TTGlyph>
</ttFont>
